<?xml version="1.0" encoding="utf-8"?>
<!-- Generator: Adobe Illustrator 24.1.0, SVG Export Plug-In . SVG Version: 6.00 Build 0)  -->
<svg version="1.1" id="Layer_1" xmlns="http://www.w3.org/2000/svg" xmlns:xlink="http://www.w3.org/1999/xlink" x="0px" y="0px"
	 viewBox="0 0 270 120" style="enable-background:new 0 0 270 120;" xml:space="preserve">
<style type="text/css">
	.st0{fill:#FFFFFF;}
	.st1{enable-background:new    ;}
	.st2{fill:#231F20;}
	.st3{fill:#FFCD0A;}
	.st4{fill:#EC108C;}
</style>
<rect x="1" y="101.24" class="st0" width="257.46" height="16.1"/>
<g class="st1">
	<path class="st2" d="M11.39,115.65l-0.84-2.55c-0.02-0.04-0.04-0.08-0.1-0.08H4.22c-0.06,0-0.08,0.04-0.1,0.08l-0.82,2.55
		c-0.04,0.17-0.15,0.23-0.29,0.23H2c-0.19,0-0.29-0.13-0.23-0.31l4.6-14.1c0.04-0.17,0.15-0.23,0.29-0.23H8
		c0.15,0,0.25,0.06,0.29,0.23l4.62,14.1c0.06,0.19-0.04,0.31-0.23,0.31h-1C11.54,115.88,11.44,115.82,11.39,115.65z M4.66,111.8
		h5.38c0.06,0,0.1-0.04,0.08-0.13l-2.72-8.56c-0.02-0.1-0.1-0.1-0.13,0l-2.7,8.56C4.55,111.76,4.59,111.8,4.66,111.8z"/>
	<path class="st2" d="M23.88,110.59c0,1.03-0.04,1.88-0.25,2.59c-0.5,1.74-1.84,2.87-3.87,2.87c-1.11,0-2.05-0.46-2.66-1.26
		c-0.06-0.08-0.13-0.04-0.13,0.04v4.83c0,0.17-0.1,0.27-0.27,0.27h-0.94c-0.17,0-0.27-0.1-0.27-0.27v-14.1
		c0-0.17,0.1-0.27,0.27-0.27h0.94c0.17,0,0.27,0.1,0.27,0.27v0.79c0,0.08,0.06,0.1,0.13,0.04c0.61-0.82,1.55-1.28,2.66-1.28
		c1.99,0,3.33,1.11,3.83,2.8C23.82,108.66,23.88,109.52,23.88,110.59z M22.4,110.59c0-1.36-0.13-1.97-0.38-2.53
		c-0.34-1-1.23-1.63-2.41-1.63c-1.15,0-1.9,0.67-2.24,1.61c-0.25,0.54-0.36,1.17-0.36,2.55c0,1.4,0.13,2.03,0.38,2.59
		c0.34,0.92,1.09,1.57,2.2,1.57c1.13,0,1.97-0.63,2.32-1.53C22.23,112.66,22.4,112.03,22.4,110.59z"/>
	<path class="st2" d="M32.25,105.44c0.15,0.06,0.19,0.19,0.15,0.34l-0.21,0.92c-0.04,0.17-0.15,0.23-0.34,0.17
		c-0.25-0.08-0.59-0.13-1.02-0.1c-1.44,0.04-2.51,1.17-2.51,2.74v6.11c0,0.17-0.1,0.27-0.27,0.27h-0.94c-0.17,0-0.27-0.1-0.27-0.27
		v-10.04c0-0.17,0.1-0.27,0.27-0.27h0.94c0.17,0,0.27,0.1,0.27,0.27v1.17c0,0.1,0.06,0.13,0.1,0.04c0.57-0.96,1.46-1.59,2.68-1.59
		C31.63,105.19,31.98,105.3,32.25,105.44z"/>
	<path class="st2" d="M41.15,113.2c0.06-0.15,0.21-0.21,0.36-0.13l0.61,0.34c0.15,0.08,0.21,0.21,0.13,0.36
		c-0.65,1.36-2.01,2.28-3.89,2.28c-1.99,0-3.35-1-3.91-2.62c-0.29-0.77-0.4-1.72-0.4-2.89c0-1.07,0.02-1.78,0.19-2.43
		c0.46-1.8,1.97-2.99,4.04-2.99c2.49,0,3.81,1.4,4.18,3.6c0.1,0.57,0.13,1.11,0.13,2.09c0,0.17-0.1,0.27-0.27,0.27H35.6
		c-0.06,0-0.1,0.04-0.1,0.1c0,0.69,0.04,1.21,0.13,1.53c0.29,1.21,1.32,2.05,2.85,2.05C39.77,114.75,40.67,114.15,41.15,113.2z
		 M35.67,108.39c-0.1,0.33-0.15,0.82-0.17,1.42c0,0.06,0.04,0.1,0.1,0.1h5.38c0.06,0,0.1-0.04,0.1-0.1
		c-0.02-0.57-0.06-1.05-0.13-1.34c-0.29-1.21-1.26-2.05-2.7-2.05C36.84,106.43,35.94,107.24,35.67,108.39z"/>
	<path class="st2" d="M53.55,108.77v6.84c0,0.17-0.1,0.27-0.27,0.27h-0.94c-0.17,0-0.27-0.1-0.27-0.27v-6.55
		c0-1.55-1-2.62-2.49-2.62c-1.42,0-2.43,0.88-2.57,2.2v6.97c0,0.17-0.1,0.27-0.27,0.27H45.8c-0.17,0-0.27-0.1-0.27-0.27v-10.04
		c0-0.17,0.1-0.27,0.27-0.27h0.94c0.17,0,0.27,0.1,0.27,0.27v0.77c0,0.08,0.06,0.15,0.1,0.06c0.61-0.84,1.59-1.26,2.8-1.26
		C52.11,105.15,53.55,106.57,53.55,108.77z"/>
	<path class="st2" d="M63.58,101.24h0.94c0.17,0,0.27,0.1,0.27,0.27v14.1c0,0.17-0.1,0.27-0.27,0.27h-0.94
		c-0.17,0-0.27-0.1-0.27-0.27v-0.8c0-0.08-0.06-0.1-0.13-0.04c-0.61,0.82-1.55,1.28-2.66,1.28c-1.99,0-3.33-1.11-3.83-2.8
		c-0.23-0.73-0.29-1.59-0.29-2.66c0-1.03,0.04-1.88,0.25-2.59c0.5-1.74,1.84-2.87,3.87-2.87c1.11,0,2.05,0.46,2.66,1.26
		c0.06,0.08,0.13,0.04,0.13-0.04v-4.83C63.3,101.34,63.41,101.24,63.58,101.24z M63.26,110.59c0-1.4-0.13-2.03-0.38-2.59
		c-0.33-0.92-1.09-1.57-2.2-1.57c-1.13,0-1.97,0.63-2.32,1.53c-0.31,0.56-0.48,1.19-0.48,2.64c0,1.36,0.13,1.97,0.38,2.53
		c0.33,1,1.23,1.63,2.41,1.63c1.15,0,1.9-0.67,2.24-1.61C63.16,112.6,63.26,111.97,63.26,110.59z"/>
	<path class="st2" d="M74.94,113.2c0.06-0.15,0.21-0.21,0.36-0.13l0.61,0.34c0.15,0.08,0.21,0.21,0.13,0.36
		c-0.65,1.36-2.01,2.28-3.89,2.28c-1.99,0-3.35-1-3.91-2.62c-0.29-0.77-0.4-1.72-0.4-2.89c0-1.07,0.02-1.78,0.19-2.43
		c0.46-1.8,1.97-2.99,4.04-2.99c2.49,0,3.81,1.4,4.18,3.6c0.1,0.57,0.13,1.11,0.13,2.09c0,0.17-0.1,0.27-0.27,0.27h-6.69
		c-0.06,0-0.1,0.04-0.1,0.1c0,0.69,0.04,1.21,0.13,1.53c0.29,1.21,1.32,2.05,2.85,2.05C73.56,114.75,74.46,114.15,74.94,113.2z
		 M69.46,108.39c-0.1,0.33-0.15,0.82-0.17,1.42c0,0.06,0.04,0.1,0.1,0.1h5.38c0.06,0,0.1-0.04,0.1-0.1
		c-0.02-0.57-0.06-1.05-0.13-1.34c-0.29-1.21-1.26-2.05-2.7-2.05C70.63,106.43,69.73,107.24,69.46,108.39z"/>
	<path class="st2" d="M84.73,105.44c0.15,0.06,0.19,0.19,0.15,0.34l-0.21,0.92c-0.04,0.17-0.15,0.23-0.34,0.17
		c-0.25-0.08-0.59-0.13-1.02-0.1c-1.44,0.04-2.51,1.17-2.51,2.74v6.11c0,0.17-0.1,0.27-0.27,0.27h-0.94c-0.17,0-0.27-0.1-0.27-0.27
		v-10.04c0-0.17,0.1-0.27,0.27-0.27h0.94c0.17,0,0.27,0.1,0.27,0.27v1.17c0,0.1,0.06,0.13,0.1,0.04c0.57-0.96,1.46-1.59,2.68-1.59
		C84.1,105.19,84.46,105.3,84.73,105.44z"/>
	<path class="st2" d="M99.62,110.59c0,1.03-0.04,1.88-0.25,2.59c-0.5,1.74-1.84,2.87-3.87,2.87c-1.11,0-2.05-0.46-2.66-1.26
		c-0.06-0.08-0.13-0.04-0.13,0.04v4.83c0,0.17-0.1,0.27-0.27,0.27H91.5c-0.17,0-0.27-0.1-0.27-0.27v-14.1c0-0.17,0.1-0.27,0.27-0.27
		h0.94c0.17,0,0.27,0.1,0.27,0.27v0.79c0,0.08,0.06,0.1,0.13,0.04c0.61-0.82,1.55-1.28,2.66-1.28c1.99,0,3.33,1.11,3.83,2.8
		C99.56,108.66,99.62,109.52,99.62,110.59z M98.14,110.59c0-1.36-0.13-1.97-0.38-2.53c-0.34-1-1.23-1.63-2.41-1.63
		c-1.15,0-1.9,0.67-2.24,1.61c-0.25,0.54-0.36,1.17-0.36,2.55c0,1.4,0.13,2.03,0.38,2.59c0.34,0.92,1.09,1.57,2.2,1.57
		c1.13,0,1.97-0.63,2.32-1.53C97.97,112.66,98.14,112.03,98.14,110.59z"/>
	<path class="st2" d="M110.19,108.64v6.97c0,0.17-0.1,0.27-0.27,0.27h-0.94c-0.17,0-0.27-0.1-0.27-0.27v-0.75
		c0-0.08-0.06-0.12-0.13-0.04c-0.77,0.82-1.95,1.24-3.26,1.24c-1.78,0-3.45-0.86-3.45-3.06c0-2.09,1.59-3.39,4.31-3.39h2.43
		c0.06,0,0.1-0.04,0.1-0.1v-0.77c0-1.36-0.71-2.3-2.45-2.3c-1.32,0-2.18,0.54-2.41,1.42c-0.04,0.17-0.15,0.23-0.31,0.21l-1.02-0.13
		c-0.17-0.02-0.27-0.08-0.25-0.23c0.27-1.53,1.82-2.57,3.97-2.57C108.79,105.13,110.19,106.57,110.19,108.64z M108.71,112.49v-1.61
		c0-0.06-0.04-0.1-0.1-0.1h-2.2c-1.82,0-3.05,0.78-3.05,2.14c0,1.28,1.02,1.86,2.3,1.86C107.2,114.77,108.71,113.96,108.71,112.49z"
		/>
	<path class="st2" d="M118.69,105.44c0.15,0.06,0.19,0.19,0.15,0.34l-0.21,0.92c-0.04,0.17-0.15,0.23-0.34,0.17
		c-0.25-0.08-0.59-0.13-1.02-0.1c-1.44,0.04-2.51,1.17-2.51,2.74v6.11c0,0.17-0.1,0.27-0.27,0.27h-0.94c-0.17,0-0.27-0.1-0.27-0.27
		v-10.04c0-0.17,0.1-0.27,0.27-0.27h0.94c0.17,0,0.27,0.1,0.27,0.27v1.17c0,0.1,0.06,0.13,0.1,0.04c0.57-0.96,1.46-1.59,2.68-1.59
		C118.06,105.19,118.41,105.3,118.69,105.44z"/>
	<path class="st2" d="M128.46,108.64v6.97c0,0.17-0.1,0.27-0.27,0.27h-0.94c-0.17,0-0.27-0.1-0.27-0.27v-0.75
		c0-0.08-0.06-0.12-0.13-0.04c-0.77,0.82-1.95,1.24-3.26,1.24c-1.78,0-3.45-0.86-3.45-3.06c0-2.09,1.59-3.39,4.31-3.39h2.43
		c0.06,0,0.1-0.04,0.1-0.1v-0.77c0-1.36-0.71-2.3-2.45-2.3c-1.32,0-2.18,0.54-2.41,1.42c-0.04,0.17-0.15,0.23-0.31,0.21l-1.02-0.13
		c-0.17-0.02-0.27-0.08-0.25-0.23c0.27-1.53,1.82-2.57,3.97-2.57C127.05,105.13,128.46,106.57,128.46,108.64z M126.97,112.49v-1.61
		c0-0.06-0.04-0.1-0.1-0.1h-2.2c-1.82,0-3.05,0.78-3.05,2.14c0,1.28,1.02,1.86,2.3,1.86C125.46,114.77,126.97,113.96,126.97,112.49z
		"/>
	<path class="st2" d="M135.65,113.14c-0.21-0.71-0.27-1.53-0.27-2.59c0-1.15,0.1-1.9,0.27-2.55c0.5-1.72,2.03-2.87,4.06-2.87
		c2.11,0,3.68,1.21,4.1,2.7c0.06,0.21,0.1,0.42,0.13,0.57c0.02,0.19-0.08,0.29-0.25,0.31l-0.92,0.1c-0.17,0.02-0.27-0.04-0.31-0.23
		c0-0.08-0.02-0.17-0.04-0.25c-0.23-1.03-1.26-1.9-2.7-1.9c-1.42,0-2.39,0.84-2.66,2.03c-0.1,0.44-0.19,1.17-0.19,2.11
		c0,1.03,0.08,1.72,0.19,2.13c0.27,1.21,1.24,2.05,2.66,2.05c1.4,0,2.45-0.82,2.68-1.88c0.02-0.04,0.02-0.08,0.02-0.1l0.02-0.02
		c0.02-0.19,0.15-0.25,0.31-0.23l0.9,0.15c0.17,0.02,0.27,0.13,0.25,0.31c-0.02,0.08-0.04,0.21-0.08,0.36
		c-0.42,1.61-2.05,2.72-4.1,2.72C137.66,116.05,136.18,114.9,135.65,113.14z"/>
	<path class="st2" d="M146.49,113.14c-0.21-0.69-0.29-1.57-0.29-2.57c0-1.03,0.08-1.88,0.27-2.55c0.54-1.78,2.05-2.89,4.12-2.89
		c2.01,0,3.54,1.11,4.06,2.87c0.21,0.71,0.29,1.59,0.29,2.57c0,1-0.08,1.88-0.29,2.57c-0.54,1.8-2.07,2.91-4.06,2.91
		C148.54,116.05,147.04,114.94,146.49,113.14z M153.27,112.7c0.13-0.5,0.17-1.28,0.17-2.11c0-0.92-0.04-1.65-0.17-2.11
		c-0.31-1.24-1.32-2.05-2.72-2.05c-1.36,0-2.34,0.82-2.68,2.05c-0.12,0.46-0.17,1.23-0.17,2.11c0,0.9,0.04,1.65,0.17,2.11
		c0.31,1.26,1.32,2.05,2.72,2.05C151.93,114.75,152.94,113.96,153.27,112.7z"/>
	<path class="st2" d="M172.06,108.66v6.95c0,0.17-0.1,0.27-0.27,0.27h-0.92c-0.17,0-0.27-0.1-0.27-0.27v-6.65
		c0-1.55-0.96-2.51-2.38-2.51c-1.46,0-2.47,0.94-2.47,2.47v6.69c0,0.17-0.1,0.27-0.27,0.27h-0.94c-0.17,0-0.27-0.1-0.27-0.27v-6.65
		c0-1.55-0.94-2.51-2.38-2.51c-1.46,0-2.43,0.94-2.43,2.47v6.69c0,0.17-0.1,0.27-0.27,0.27h-0.94c-0.17,0-0.27-0.1-0.27-0.27v-10.04
		c0-0.17,0.1-0.27,0.27-0.27h0.94c0.17,0,0.27,0.1,0.27,0.27v0.73c0,0.08,0.06,0.13,0.13,0.04c0.63-0.82,1.63-1.19,2.76-1.19
		c1.42,0,2.49,0.61,3.01,1.67c0.04,0.08,0.08,0.08,0.13,0.02c0.63-1.17,1.84-1.69,3.2-1.69
		C170.74,105.15,172.06,106.47,172.06,108.66z"/>
	<path class="st2" d="M183.78,110.59c0,1.03-0.04,1.88-0.25,2.59c-0.5,1.74-1.84,2.87-3.87,2.87c-1.11,0-2.05-0.46-2.66-1.26
		c-0.06-0.08-0.13-0.04-0.13,0.04v4.83c0,0.17-0.1,0.27-0.27,0.27h-0.94c-0.17,0-0.27-0.1-0.27-0.27v-14.1
		c0-0.17,0.1-0.27,0.27-0.27h0.94c0.17,0,0.27,0.1,0.27,0.27v0.79c0,0.08,0.06,0.1,0.13,0.04c0.61-0.82,1.55-1.28,2.66-1.28
		c1.99,0,3.33,1.11,3.83,2.8C183.71,108.66,183.78,109.52,183.78,110.59z M182.29,110.59c0-1.36-0.13-1.97-0.38-2.53
		c-0.34-1-1.24-1.63-2.41-1.63c-1.15,0-1.9,0.67-2.24,1.61c-0.25,0.54-0.36,1.17-0.36,2.55c0,1.4,0.13,2.03,0.38,2.59
		c0.33,0.92,1.09,1.57,2.2,1.57c1.13,0,1.97-0.63,2.32-1.53C182.12,112.66,182.29,112.03,182.29,110.59z"/>
	<path class="st2" d="M194.34,108.64v6.97c0,0.17-0.1,0.27-0.27,0.27h-0.94c-0.17,0-0.27-0.1-0.27-0.27v-0.75
		c0-0.08-0.06-0.12-0.12-0.04c-0.78,0.82-1.95,1.24-3.26,1.24c-1.78,0-3.45-0.86-3.45-3.06c0-2.09,1.59-3.39,4.31-3.39h2.43
		c0.06,0,0.1-0.04,0.1-0.1v-0.77c0-1.36-0.71-2.3-2.45-2.3c-1.32,0-2.18,0.54-2.41,1.42c-0.04,0.17-0.15,0.23-0.31,0.21l-1.03-0.13
		c-0.17-0.02-0.27-0.08-0.25-0.23c0.27-1.53,1.82-2.57,3.97-2.57C192.94,105.13,194.34,106.57,194.34,108.64z M192.86,112.49v-1.61
		c0-0.06-0.04-0.1-0.1-0.1h-2.2c-1.82,0-3.05,0.78-3.05,2.14c0,1.28,1.03,1.86,2.3,1.86C191.35,114.77,192.86,113.96,192.86,112.49z
		"/>
	<path class="st2" d="M202.84,105.44c0.15,0.06,0.19,0.19,0.15,0.34l-0.21,0.92c-0.04,0.17-0.15,0.23-0.33,0.17
		c-0.25-0.08-0.58-0.13-1.02-0.1c-1.44,0.04-2.51,1.17-2.51,2.74v6.11c0,0.17-0.1,0.27-0.27,0.27h-0.94c-0.17,0-0.27-0.1-0.27-0.27
		v-10.04c0-0.17,0.1-0.27,0.27-0.27h0.94c0.17,0,0.27,0.1,0.27,0.27v1.17c0,0.1,0.06,0.13,0.1,0.04c0.57-0.96,1.46-1.59,2.68-1.59
		C202.21,105.19,202.56,105.3,202.84,105.44z"/>
	<path class="st2" d="M209.8,106.53h-2.28c-0.06,0-0.1,0.04-0.1,0.1v6.11c0,1.36,0.61,1.82,1.86,1.82h0.46
		c0.17,0,0.27,0.1,0.27,0.27v0.73c0,0.17-0.08,0.27-0.27,0.29h-0.71c-1.82,0-3.05-0.48-3.05-2.66v-6.57c0-0.06-0.04-0.1-0.1-0.1
		h-1.19c-0.17,0-0.27-0.1-0.27-0.27v-0.69c0-0.17,0.1-0.27,0.27-0.27h1.19c0.06,0,0.1-0.04,0.1-0.1v-2.34c0-0.17,0.1-0.27,0.27-0.27
		h0.9c0.17,0,0.27,0.1,0.27,0.27v2.34c0,0.06,0.04,0.1,0.1,0.1h2.28c0.17,0,0.27,0.1,0.27,0.27v0.69
		C210.08,106.43,209.97,106.53,209.8,106.53z"/>
	<path class="st2" d="M212.71,102.3c0-0.63,0.46-1.07,1.13-1.07s1.13,0.44,1.13,1.07c0,0.65-0.46,1.09-1.13,1.09
		C213.17,103.39,212.71,102.95,212.71,102.3z M213.11,115.61v-10.04c0-0.17,0.1-0.27,0.27-0.27h0.94c0.17,0,0.27,0.1,0.27,0.27
		v10.04c0,0.17-0.1,0.27-0.27,0.27h-0.94C213.21,115.88,213.11,115.78,213.11,115.61z"/>
	<path class="st2" d="M218.07,115.61v-14.1c0-0.17,0.1-0.27,0.27-0.27h0.94c0.17,0,0.27,0.1,0.27,0.27v14.1
		c0,0.17-0.1,0.27-0.27,0.27h-0.94C218.17,115.88,218.07,115.78,218.07,115.61z"/>
	<path class="st2" d="M230.98,108.77v6.84c0,0.17-0.1,0.27-0.27,0.27h-0.94c-0.17,0-0.27-0.1-0.27-0.27v-6.55
		c0-1.55-1-2.62-2.49-2.62c-1.42,0-2.43,0.88-2.57,2.2v6.97c0,0.17-0.1,0.27-0.27,0.27h-0.94c-0.17,0-0.27-0.1-0.27-0.27v-14.1
		c0-0.17,0.1-0.27,0.27-0.27h0.94c0.17,0,0.27,0.1,0.27,0.27v4.83c0,0.08,0.06,0.15,0.1,0.06c0.61-0.84,1.59-1.26,2.8-1.26
		C229.53,105.15,230.98,106.57,230.98,108.77z"/>
	<path class="st2" d="M241.84,108.64v6.97c0,0.17-0.1,0.27-0.27,0.27h-0.94c-0.17,0-0.27-0.1-0.27-0.27v-0.75
		c0-0.08-0.06-0.12-0.12-0.04c-0.78,0.82-1.95,1.24-3.26,1.24c-1.78,0-3.45-0.86-3.45-3.06c0-2.09,1.59-3.39,4.31-3.39h2.43
		c0.06,0,0.1-0.04,0.1-0.1v-0.77c0-1.36-0.71-2.3-2.45-2.3c-1.32,0-2.18,0.54-2.41,1.42c-0.04,0.17-0.15,0.23-0.31,0.21l-1.03-0.13
		c-0.17-0.02-0.27-0.08-0.25-0.23c0.27-1.53,1.82-2.57,3.97-2.57C240.43,105.13,241.84,106.57,241.84,108.64z M240.35,112.49v-1.61
		c0-0.06-0.04-0.1-0.1-0.1h-2.2c-1.82,0-3.05,0.78-3.05,2.14c0,1.28,1.03,1.86,2.3,1.86C238.84,114.77,240.35,113.96,240.35,112.49z
		"/>
	<path class="st2" d="M250.33,105.44c0.15,0.06,0.19,0.19,0.15,0.34l-0.21,0.92c-0.04,0.17-0.15,0.23-0.33,0.17
		c-0.25-0.08-0.58-0.13-1.02-0.1c-1.44,0.04-2.51,1.17-2.51,2.74v6.11c0,0.17-0.1,0.27-0.27,0.27h-0.94c-0.17,0-0.27-0.1-0.27-0.27
		v-10.04c0-0.17,0.1-0.27,0.27-0.27h0.94c0.17,0,0.27,0.1,0.27,0.27v1.17c0,0.1,0.06,0.13,0.1,0.04c0.57-0.96,1.46-1.59,2.68-1.59
		C249.7,105.19,250.06,105.3,250.33,105.44z"/>
</g>
<g>
	
		<rect x="132.11" y="47.13" transform="matrix(0.9874 -0.1581 0.1581 0.9874 -7.673 32.4146)" class="st3" width="135.58" height="34.61"/>
	<path class="st4" d="M155.65,80.49c0.34-0.05,0.66,0.03,0.95,0.24c0.3,0.21,0.47,0.5,0.52,0.86c0.05,0.34-0.04,0.66-0.26,0.94
		c-0.23,0.28-0.51,0.46-0.85,0.51l-12.1,1.76c-0.36,0.05-0.68-0.03-0.97-0.24c-0.28-0.21-0.46-0.48-0.5-0.83l-2.89-19.83
		c-0.05-0.34,0.03-0.66,0.24-0.94s0.5-0.46,0.86-0.51l12.1-1.76c0.34-0.05,0.66,0.03,0.95,0.24c0.3,0.21,0.47,0.48,0.52,0.83
		c0.05,0.36-0.03,0.68-0.26,0.97c-0.23,0.28-0.51,0.46-0.85,0.51l-10.85,1.58l2.51,17.26L155.65,80.49z M145.98,74.37
		c-0.36,0.05-0.68-0.03-0.97-0.24s-0.46-0.48-0.5-0.83c-0.05-0.36,0.03-0.68,0.24-0.97c0.21-0.28,0.5-0.46,0.86-0.51l6.86-0.99
		c0.34-0.05,0.66,0.03,0.94,0.24s0.46,0.5,0.51,0.86c0.05,0.34-0.03,0.66-0.24,0.94s-0.48,0.46-0.83,0.5L145.98,74.37z"/>
	<path class="st4" d="M157.06,61.37c-0.04-0.28,0.01-0.55,0.16-0.81c0.15-0.26,0.35-0.44,0.62-0.56c0.27-0.12,0.54-0.15,0.82-0.07
		c0.28,0.07,0.5,0.21,0.67,0.44l8.34,10.41l5.32-12.41c0.12-0.28,0.3-0.5,0.54-0.63c0.24-0.13,0.51-0.19,0.79-0.15
		c0.28,0.04,0.54,0.16,0.74,0.36c0.2,0.2,0.32,0.44,0.36,0.73l2.89,19.81c0.05,0.36-0.03,0.68-0.24,0.97
		c-0.21,0.28-0.5,0.46-0.85,0.51c-0.34,0.05-0.64-0.03-0.94-0.24s-0.47-0.5-0.52-0.86l-2.23-15.28l-4.36,10.18
		c-0.09,0.21-0.23,0.39-0.4,0.52s-0.38,0.2-0.59,0.24c-0.48,0.07-0.89-0.08-1.2-0.47l-6.7-8.35l2.2,15.09
		c0.05,0.36-0.03,0.68-0.24,0.97c-0.21,0.28-0.48,0.46-0.83,0.5c-0.36,0.05-0.68-0.03-0.97-0.24s-0.46-0.5-0.51-0.86L157.06,61.37z"
		/>
	<path class="st4" d="M198.14,76.89c-1.06,0.15-2.08,0.09-3.06-0.16c-0.98-0.27-1.88-0.68-2.66-1.28c-0.79-0.59-1.45-1.32-1.99-2.19
		c-0.54-0.87-0.87-1.84-1.03-2.89l-1.03-7.08c-0.15-1.06-0.09-2.08,0.16-3.06c0.27-0.98,0.68-1.88,1.28-2.66
		c0.59-0.79,1.32-1.45,2.19-1.99s1.84-0.87,2.89-1.03c1.06-0.15,2.08-0.09,3.06,0.16c0.98,0.27,1.88,0.68,2.66,1.28
		c0.79,0.59,1.45,1.32,1.99,2.19s0.87,1.84,1.03,2.89c0.05,0.34-0.03,0.66-0.24,0.95c-0.21,0.3-0.48,0.47-0.83,0.52
		c-0.36,0.05-0.68-0.03-0.97-0.26c-0.28-0.23-0.46-0.51-0.51-0.85c-0.11-0.7-0.34-1.34-0.7-1.92c-0.36-0.58-0.81-1.06-1.33-1.46
		c-0.52-0.39-1.11-0.68-1.77-0.86s-1.34-0.21-2.04-0.12c-0.7,0.11-1.34,0.34-1.92,0.7s-1.06,0.81-1.46,1.33
		c-0.39,0.52-0.68,1.11-0.86,1.77s-0.21,1.34-0.12,2.04L191.9,70c0.11,0.7,0.34,1.34,0.7,1.92s0.81,1.06,1.33,1.46
		c0.52,0.39,1.11,0.67,1.77,0.86c0.66,0.17,1.34,0.21,2.04,0.12c0.7-0.11,1.34-0.34,1.92-0.7s1.06-0.81,1.46-1.33
		s0.68-1.11,0.86-1.77c0.17-0.66,0.21-1.34,0.12-2.04c-0.05-0.36,0.03-0.68,0.24-0.97c0.21-0.28,0.5-0.46,0.86-0.51
		c0.34-0.05,0.66,0.03,0.94,0.24s0.46,0.5,0.51,0.86c0.15,1.06,0.09,2.08-0.16,3.06c-0.27,0.99-0.68,1.88-1.28,2.66
		c-0.59,0.79-1.32,1.45-2.19,1.99C200.17,76.39,199.2,76.73,198.14,76.89z"/>
	<path class="st4" d="M209.07,75.24c-0.35-0.05-0.63-0.21-0.82-0.51c-0.19-0.28-0.27-0.6-0.21-0.97L211.53,53
		c0.04-0.27,0.16-0.5,0.36-0.7c0.2-0.19,0.43-0.31,0.71-0.35c0.28-0.04,0.54,0,0.78,0.13s0.43,0.31,0.58,0.56l6.8,13.87l2.44,5.02
		c0.17,0.32,0.2,0.64,0.08,0.98c-0.12,0.34-0.34,0.58-0.66,0.73c-0.05,0.05-0.12,0.08-0.19,0.09s-0.13,0.01-0.2,0.03
		c-0.28,0.04-0.54,0-0.78-0.12s-0.43-0.31-0.58-0.58l-2.05-4.2l-4.38,0.63c-0.36,0.05-0.68-0.03-0.97-0.24
		c-0.28-0.21-0.46-0.48-0.5-0.83c-0.05-0.36,0.03-0.68,0.24-0.97c0.21-0.28,0.5-0.46,0.86-0.51l3.56-0.52l-4.27-8.68l-2.81,16.81
		c-0.05,0.35-0.23,0.63-0.52,0.82C209.76,75.21,209.44,75.28,209.07,75.24z"/>
	<path class="st4" d="M236.49,68.46c0.42-0.27,0.77-0.59,1.05-0.97c0.28-0.38,0.48-0.81,0.6-1.28c0.12-0.47,0.15-0.97,0.08-1.46
		c-0.07-0.5-0.24-0.95-0.5-1.38c-0.26-0.42-0.58-0.78-0.95-1.07c-0.38-0.3-0.81-0.5-1.29-0.62s-0.97-0.15-1.46-0.08l-1.44,0.21
		l-1.41,0.2c-0.86,0.12-1.69,0.08-2.5-0.13s-1.53-0.56-2.18-1.05s-1.18-1.07-1.62-1.79c-0.44-0.71-0.73-1.49-0.85-2.35
		c-0.12-0.86-0.08-1.69,0.13-2.5s0.56-1.53,1.05-2.18c0.48-0.64,1.07-1.18,1.79-1.62c0.71-0.44,1.49-0.73,2.35-0.85l1.41-0.2
		l1.44-0.21c0.86-0.12,1.69-0.08,2.48,0.15c0.79,0.21,1.52,0.56,2.16,1.05c0.64,0.48,1.18,1.07,1.62,1.79
		c0.44,0.71,0.73,1.49,0.85,2.35c0.05,0.36-0.03,0.68-0.24,0.97c-0.21,0.28-0.48,0.46-0.83,0.5c-0.36,0.05-0.68-0.03-0.97-0.24
		c-0.28-0.21-0.46-0.5-0.51-0.86c-0.07-0.5-0.24-0.95-0.5-1.38c-0.26-0.42-0.58-0.78-0.95-1.07c-0.38-0.3-0.81-0.5-1.29-0.62
		s-0.97-0.15-1.46-0.08l-1.44,0.21l-1.41,0.2c-0.52,0.08-0.98,0.24-1.4,0.5s-0.77,0.58-1.05,0.97c-0.3,0.39-0.5,0.82-0.62,1.3
		s-0.15,0.97-0.08,1.46c0.08,0.52,0.24,0.98,0.5,1.4s0.58,0.77,0.97,1.05c0.39,0.3,0.82,0.5,1.29,0.62
		c0.47,0.12,0.95,0.15,1.48,0.08l1.41-0.2l1.44-0.21c0.86-0.12,1.69-0.08,2.48,0.15c0.79,0.21,1.52,0.56,2.16,1.05
		c0.64,0.48,1.18,1.07,1.62,1.79c0.44,0.71,0.73,1.49,0.85,2.35c0.12,0.86,0.08,1.69-0.15,2.48c-0.21,0.79-0.56,1.52-1.05,2.18
		c-0.47,0.64-1.06,1.2-1.76,1.64s-1.48,0.73-2.34,0.85l-1.44,0.21l-1.41,0.2c-0.86,0.12-1.69,0.08-2.5-0.13s-1.53-0.58-2.18-1.06
		s-1.18-1.09-1.62-1.79c-0.44-0.7-0.73-1.48-0.85-2.34c-0.05-0.36,0.03-0.68,0.24-0.97c0.21-0.28,0.48-0.46,0.83-0.5
		c0.36-0.05,0.68,0.03,0.97,0.24c0.28,0.21,0.46,0.5,0.51,0.86c0.07,0.5,0.24,0.95,0.5,1.38c0.26,0.42,0.58,0.78,0.97,1.05
		c0.39,0.28,0.82,0.48,1.29,0.62c0.47,0.13,0.97,0.16,1.48,0.09l1.41-0.2l1.44-0.21C235.61,68.89,236.08,68.71,236.49,68.46z"/>
	<path class="st4" d="M244.58,70.06c-0.35-0.05-0.63-0.21-0.82-0.51c-0.19-0.28-0.27-0.6-0.21-0.97l3.49-20.76
		c0.04-0.27,0.16-0.5,0.36-0.7c0.2-0.19,0.43-0.31,0.71-0.35c0.28-0.04,0.54,0,0.78,0.13s0.43,0.31,0.58,0.56l6.8,13.87l2.44,5.02
		c0.17,0.32,0.2,0.64,0.08,0.98c-0.12,0.34-0.34,0.58-0.66,0.73c-0.05,0.05-0.12,0.08-0.19,0.09c-0.07,0.01-0.13,0.01-0.2,0.03
		c-0.28,0.04-0.54,0-0.78-0.12s-0.43-0.31-0.58-0.58l-2.05-4.2l-4.38,0.63c-0.36,0.05-0.68-0.03-0.97-0.24
		c-0.28-0.21-0.46-0.48-0.5-0.83c-0.05-0.36,0.03-0.68,0.24-0.97c0.21-0.28,0.5-0.46,0.86-0.51l3.56-0.52l-4.27-8.68l-2.81,16.81
		c-0.05,0.35-0.23,0.63-0.52,0.82C245.25,70.03,244.93,70.11,244.58,70.06z"/>
</g>
<path class="st2" d="M10.36,4.95H9.52L6.53,16.02h6.81L10.36,4.95z M13.99-0.06l4.85,16.89v13.12h-5.02v-8.92H6.06v8.92H1.04V16.84
	l4.85-16.9C5.89-0.06,13.99-0.06,13.99-0.06z"/>
<g>
	<path class="st2" d="M35.1,15.59c0-0.94-0.3-1.71-0.9-2.27c-0.59-0.58-1.32-0.86-2.18-0.86c-0.91,0-1.67,0.28-2.26,0.86
		s-0.9,1.33-0.9,2.27v7.33c0,0.94,0.3,1.71,0.9,2.27c0.59,0.58,1.33,0.86,2.22,0.86s1.61-0.28,2.22-0.86
		c0.59-0.58,0.9-1.33,0.9-2.27V15.59z M23.99,8.52h4.38l0.17,1.97c0.11-0.17,0.27-0.39,0.47-0.64c0.2-0.26,0.7-0.6,1.52-1.03
		c0.81-0.43,1.69-0.64,2.66-0.64c1.84,0,3.45,0.68,4.83,2.04c1.37,1.36,2.07,3.12,2.07,5.25v7.59c0,2.03-0.7,3.75-2.08,5.17
		c-1.4,1.41-3.01,2.12-4.85,2.12c-0.94,0-1.76-0.13-2.47-0.4s-1.18-0.54-1.41-0.79l-0.39-0.39v8.92h-4.9
		C23.99,37.68,23.99,8.52,23.99,8.52z"/>
	<path class="st2" d="M55.4,13.06c-0.56-0.31-1.32-0.47-2.26-0.47c-0.99,0-1.81,0.42-2.44,1.26c-0.64,0.85-0.95,2.08-0.95,3.71v12.4
		h-4.94V8.52h4.65l0.08,2.4c0.03-0.08,0.08-0.19,0.17-0.3c0.08-0.12,0.26-0.32,0.51-0.64c0.26-0.31,0.54-0.59,0.83-0.83
		s0.68-0.47,1.17-0.67c0.48-0.2,0.98-0.3,1.49-0.3c0.56,0,1.11,0.05,1.64,0.17c0.52,0.12,0.9,0.23,1.13,0.35l0.39,0.17L55.4,13.06z"
		/>
	<path class="st2" d="M62.39,16.79h6.18v-1.37c0-0.89-0.3-1.6-0.87-2.15c-0.58-0.54-1.32-0.82-2.19-0.82
		c-0.82,0-1.54,0.28-2.18,0.83c-0.62,0.56-0.94,1.26-0.94,2.12C62.39,15.41,62.39,16.79,62.39,16.79z M73.45,23.66
		c-0.23,2.03-1.09,3.67-2.59,4.89c-1.5,1.24-3.3,1.84-5.41,1.84c-2.32,0-4.23-0.7-5.71-2.11c-1.48-1.4-2.22-3.14-2.22-5.24v-7.63
		c0-2.05,0.74-3.8,2.23-5.21c1.49-1.41,3.4-2.12,5.72-2.12c2.32,0,4.22,0.7,5.68,2.08s2.19,3.12,2.19,5.17v5.53H62.36v2.09
		c0,0.91,0.3,1.65,0.87,2.23s1.32,0.86,2.19,0.86c0.79,0,1.45-0.2,1.96-0.6s0.82-0.81,0.94-1.2l0.17-0.6h4.96V23.66z"/>
	<path class="st2" d="M89.38,15.98c0-1.03-0.28-1.84-0.83-2.44s-1.3-0.9-2.23-0.9c-0.91,0-1.68,0.31-2.3,0.93s-0.94,1.44-0.94,2.47
		v13.94h-4.9V8.52h4.59l0.3,2.05c0.11-0.17,0.28-0.39,0.48-0.67c0.21-0.27,0.71-0.63,1.52-1.07c0.79-0.44,1.68-0.67,2.65-0.67
		c1.96,0,3.55,0.7,4.74,2.08c1.21,1.38,1.81,3.26,1.81,5.64v14.06h-4.9V15.98H89.38z"/>
	<path class="st2" d="M103.76,22.93c0,0.94,0.3,1.71,0.9,2.27c0.59,0.58,1.32,0.86,2.18,0.86c0.91,0,1.67-0.28,2.26-0.86
		c0.59-0.58,0.9-1.33,0.9-2.27v-7.21c0-1.09-0.3-1.92-0.87-2.48c-0.58-0.58-1.33-0.86-2.23-0.86c-0.87,0-1.61,0.28-2.22,0.86
		c-0.59,0.58-0.9,1.33-0.9,2.27v7.43h-0.02V22.93z M114.87,29.96h-4.34l-0.17-1.84c-0.11,0.17-0.3,0.38-0.54,0.62
		s-0.78,0.56-1.61,0.97c-0.83,0.4-1.72,0.6-2.66,0.6c-1.84,0-3.44-0.68-4.77-2.04c-1.33-1.36-2-3.12-2-5.25v-7.59
		c0-2.03,0.7-3.75,2.11-5.17c1.41-1.41,3.03-2.12,4.87-2.12c0.97,0,1.8,0.16,2.48,0.5c0.7,0.32,1.15,0.64,1.38,0.97l0.34,0.47V-0.06
		h4.9C114.87-0.06,114.87,29.96,114.87,29.96z"/>
</g>
<path class="st2" d="M120.2,8.52h5.02v21.45h-5.02V8.52z M120.02-0.06h5.41v5.49h-5.41C120.02,5.43,120.02-0.06,120.02-0.06z"/>
<polygon class="st2" points="135.52,25.46 144.51,25.46 144.51,29.96 129.69,29.96 129.69,25.71 138.5,13.02 130.2,13.02 
	130.2,8.52 144.33,8.52 144.33,12.85 "/>
<path class="st2" d="M157.28,25.16c0.74-0.66,1.1-1.36,1.1-2.09v-2.48l-3.41,0.3c-0.97,0.08-1.72,0.38-2.26,0.86
	c-0.54,0.48-0.81,1.14-0.81,1.97c0,0.63,0.23,1.2,0.68,1.69c0.46,0.5,1.11,0.75,2,0.75C155.64,26.14,156.54,25.82,157.28,25.16
	 M158.77,27.69c-0.15,0.2-0.34,0.44-0.59,0.73c-0.26,0.28-0.86,0.67-1.81,1.15s-1.99,0.73-3.13,0.73c-1.93,0-3.46-0.6-4.59-1.83
	c-1.14-1.21-1.71-2.75-1.71-4.61c0-2,0.71-3.59,2.14-4.74c1.42-1.15,3.28-1.83,5.57-2l3.75-0.3v-1.46c0-0.86-0.24-1.56-0.73-2.08
	c-0.48-0.52-1.11-0.79-1.92-0.79c-0.77,0-1.41,0.23-1.93,0.67c-0.52,0.44-0.83,1.02-0.91,1.73h-4.81c0-1.92,0.71-3.53,2.12-4.85
	c1.42-1.32,3.2-1.97,5.32-1.97c2.42,0,4.31,0.7,5.68,2.08s2.07,3.14,2.07,5.25v14.54h-4.3L158.77,27.69z"/>
<path class="st2" d="M177.03,14.69c0-0.63-0.23-1.17-0.7-1.61s-1.03-0.66-1.68-0.66c-0.71,0-1.3,0.21-1.77,0.66s-0.7,0.98-0.7,1.61
	v3.22c0,0.63,0.23,1.17,0.7,1.61s1.06,0.67,1.77,0.67c0.66,0,1.21-0.23,1.68-0.67c0.47-0.44,0.7-0.98,0.7-1.61V14.69z M172.21,25.42
	v-1.5c-1.42-0.48-2.59-1.3-3.52-2.44c-0.93-1.14-1.38-2.42-1.38-3.81v-2.58c0-1.92,0.71-3.56,2.12-4.93
	c1.42-1.37,3.1-2.05,5.06-2.05c1.3,0,2.36,0.26,3.2,0.77c0.4-0.58,0.74-1.01,1.05-1.29c0.3-0.28,0.81-0.56,1.52-0.82
	s1.57-0.39,2.59-0.39v4.03c-0.91,0-1.61,0.35-2.12,1.03c0.74,0.91,1.1,2.14,1.1,3.64v2.58c0,1.49-0.46,2.81-1.36,3.95
	c-0.91,1.14-2.09,1.95-3.57,2.4c0,0.78,0.19,1.28,0.55,1.5l3.45,2.15c1.91,1.17,2.85,2.69,2.85,4.55c0,1.34-0.47,2.48-1.42,3.41
	s-2.05,1.57-3.32,1.93c-1.26,0.36-2.61,0.54-4.03,0.54c-2.35,0-4.36-0.48-6.03-1.46c-1.67-0.97-2.48-2.46-2.48-4.46v-0.64h4.85v0.51
	c0,0.54,0.32,1.02,0.98,1.41c0.66,0.4,1.54,0.6,2.69,0.6c1.17,0,2.08-0.17,2.77-0.54s1.02-0.77,1.02-1.22
	c0-0.43-0.26-0.81-0.77-1.11l-3.87-2.4C172.85,27.93,172.21,26.81,172.21,25.42"/>
<path class="st2" d="M190.51,16.79h6.18v-1.37c0-0.89-0.3-1.6-0.87-2.15c-0.58-0.54-1.32-0.82-2.19-0.82
	c-0.82,0-1.54,0.28-2.18,0.83c-0.62,0.56-0.94,1.26-0.94,2.12V16.79L190.51,16.79z M201.59,23.66c-0.23,2.03-1.09,3.67-2.59,4.89
	c-1.5,1.24-3.3,1.84-5.41,1.84c-2.32,0-4.23-0.7-5.71-2.11c-1.48-1.4-2.22-3.14-2.22-5.24v-7.63c0-2.05,0.74-3.8,2.23-5.21
	c1.49-1.41,3.4-2.12,5.72-2.12s4.22,0.7,5.68,2.08c1.46,1.38,2.19,3.12,2.19,5.17v5.53H190.5v2.09c0,0.91,0.3,1.65,0.87,2.23
	c0.58,0.58,1.32,0.86,2.19,0.86c0.79,0,1.45-0.2,1.96-0.6c0.51-0.4,0.82-0.81,0.94-1.2l0.17-0.6h4.96L201.59,23.66L201.59,23.66z"/>
<path class="st2" d="M226.92,15.64c0-0.83-0.23-1.52-0.68-2.08s-1.02-0.83-1.71-0.83c-0.85,0-1.57,0.3-2.15,0.9
	c-0.58,0.6-0.87,1.34-0.87,2.23v14.11h-4.9V15.64c0-0.83-0.23-1.53-0.68-2.09c-0.46-0.58-1.03-0.86-1.75-0.86
	c-0.79,0-1.49,0.31-2.08,0.94s-0.9,1.38-0.9,2.27v14.06h-4.9V8.52h4.59l0.21,2.09c0.11-0.17,0.28-0.39,0.51-0.66
	c0.23-0.27,0.73-0.63,1.52-1.09c0.78-0.46,1.61-0.68,2.48-0.68c0.79,0,1.53,0.17,2.22,0.54c0.68,0.36,1.15,0.73,1.41,1.09l0.43,0.51
	c0.17-0.17,0.4-0.38,0.68-0.6c0.28-0.23,0.87-0.54,1.77-0.94c0.9-0.4,1.8-0.6,2.7-0.6c2.01,0,3.68,0.68,5,2.05s1.97,3.14,1.97,5.32
	v14.41h-4.9V15.64H226.92z"/>
<g>
	<path class="st2" d="M19.78,58.77c0,2.35-0.86,4.35-2.59,6c-1.73,1.65-3.83,2.48-6.3,2.48s-4.57-0.83-6.3-2.48
		C2.85,63.13,2,61.14,2,58.81V44.79c0-2.28,0.87-4.26,2.62-5.92c1.75-1.65,3.83-2.48,6.23-2.48c1.53,0,2.9,0.28,4.08,0.83
		c1.2,0.56,2.11,1.29,2.74,2.19c0.64,0.9,1.11,1.83,1.42,2.79c0.31,0.95,0.47,1.93,0.47,2.94h-5.2c0-1.03-0.31-1.93-0.94-2.7
		c-0.62-0.78-1.48-1.15-2.55-1.15c-1.02,0-1.87,0.32-2.55,0.98s-1.02,1.46-1.02,2.4v14.28c0,1.06,0.35,1.89,1.05,2.51
		s1.54,0.93,2.54,0.93s1.87-0.31,2.65-0.94c0.77-0.63,1.15-1.52,1.15-2.66V57.5h5.1L19.78,58.77L19.78,58.77L19.78,58.77z"/>
	<path class="st2" d="M35.92,49.94c-0.56-0.31-1.32-0.47-2.26-0.47c-0.99,0-1.81,0.42-2.44,1.26c-0.64,0.85-0.95,2.08-0.95,3.71
		v12.4h-4.94V45.4h4.65l0.08,2.4c0.03-0.08,0.08-0.19,0.17-0.3c0.08-0.12,0.26-0.32,0.51-0.64c0.26-0.31,0.54-0.59,0.83-0.83
		c0.3-0.24,0.68-0.47,1.17-0.66c0.48-0.2,0.98-0.3,1.49-0.3c0.56,0,1.11,0.05,1.64,0.17c0.52,0.12,0.9,0.23,1.13,0.35l0.39,0.17
		L35.92,49.94z"/>
	<path class="st2" d="M40.72,45.4h5.02v21.45h-5.02V45.4z M40.55,36.82h5.41v5.49h-5.41V36.82z"/>
	<path class="st2" d="M61.37,62.04c0.74-0.66,1.1-1.36,1.1-2.09v-2.48l-3.41,0.3c-0.97,0.08-1.72,0.38-2.26,0.86
		c-0.54,0.48-0.81,1.14-0.81,1.97c0,0.63,0.23,1.2,0.68,1.69c0.46,0.5,1.11,0.75,2,0.75C59.74,63.03,60.63,62.7,61.37,62.04
		 M62.86,64.58c-0.15,0.2-0.34,0.44-0.59,0.73c-0.26,0.28-0.86,0.67-1.81,1.15s-1.99,0.73-3.13,0.73c-1.93,0-3.46-0.6-4.59-1.83
		c-1.14-1.21-1.71-2.75-1.71-4.61c0-2,0.71-3.59,2.12-4.74c1.42-1.15,3.28-1.83,5.57-2l3.75-0.3v-1.46c0-0.86-0.24-1.56-0.73-2.08
		c-0.48-0.52-1.11-0.79-1.92-0.79c-0.77,0-1.41,0.21-1.93,0.67c-0.52,0.44-0.83,1.02-0.91,1.73h-4.81c0-1.92,0.71-3.53,2.12-4.85
		c1.42-1.32,3.2-1.97,5.32-1.97c2.42,0,4.31,0.7,5.68,2.08c1.37,1.38,2.07,3.14,2.07,5.25v14.54h-4.3L62.86,64.58z"/>
	<path class="st2" d="M71.37,45.4h2.81v-5.57h4.98v5.57h6.65v4.5h-6.65v10.93c0,0.6,0.19,1.07,0.55,1.41
		c0.36,0.35,0.82,0.51,1.36,0.51s0.97-0.16,1.3-0.5c0.32-0.32,0.48-0.81,0.48-1.44v-0.56h4.51v0.35c0,1.97-0.63,3.57-1.89,4.81
		s-2.81,1.84-4.62,1.84c-2.04,0-3.67-0.63-4.87-1.89c-1.21-1.26-1.81-3.06-1.81-5.4V49.88h-2.81L71.37,45.4L71.37,45.4z"/>
	<path class="st2" d="M91.85,45.4h5.02v21.45h-5.02V45.4z M91.67,36.82h5.41v5.49h-5.41V36.82z"/>
	<polygon class="st2" points="107.56,53.63 110.27,62.51 110.7,62.51 113.47,53.63 113.47,45.4 118.45,45.4 118.45,53.81 
		114.12,66.85 106.92,66.85 102.58,53.81 102.58,45.4 107.56,45.4 	"/>
	<path class="st2" d="M132.2,62.04c0.74-0.66,1.1-1.36,1.1-2.09v-2.48l-3.41,0.3c-0.97,0.08-1.72,0.38-2.26,0.86
		s-0.81,1.14-0.81,1.97c0,0.63,0.23,1.2,0.68,1.69c0.46,0.5,1.11,0.75,2,0.75C130.57,63.03,131.47,62.7,132.2,62.04 M133.69,64.58
		c-0.15,0.2-0.34,0.44-0.59,0.73s-0.86,0.67-1.81,1.15s-1.99,0.73-3.13,0.73c-1.93,0-3.46-0.6-4.59-1.83
		c-1.14-1.21-1.71-2.75-1.71-4.61c0-2,0.71-3.59,2.14-4.74s3.28-1.83,5.57-2l3.75-0.3v-1.46c0-0.86-0.24-1.56-0.73-2.08
		c-0.48-0.52-1.11-0.79-1.92-0.79c-0.77,0-1.41,0.21-1.93,0.67c-0.52,0.44-0.83,1.02-0.91,1.73h-4.81c0-1.92,0.71-3.53,2.12-4.85
		c1.42-1.32,3.2-1.97,5.32-1.97c2.42,0,4.31,0.7,5.68,2.08c1.37,1.38,2.07,3.14,2.07,5.25v14.54h-4.3L133.69,64.58z"/>
</g>
</svg>
