<?xml version="1.0" encoding="utf-8"?>
<!-- Generator: Adobe Illustrator 24.1.0, SVG Export Plug-In . SVG Version: 6.00 Build 0)  -->
<svg version="1.1" id="Layer_1" xmlns="http://www.w3.org/2000/svg" xmlns:xlink="http://www.w3.org/1999/xlink" x="0px" y="0px"
	 viewBox="0 0 270 120" style="enable-background:new 0 0 270 120;" xml:space="preserve">
<style type="text/css">
	.st0{fill:#FFCC07;}
	.st1{fill:#EB0C8B;}
</style>
<rect x="132.8" y="49.4" transform="matrix(0.9874 -0.1581 0.1581 0.9874 -7.9577 32.1977)" class="st0" width="131.3" height="33.5"/>
<g>
	<path class="st1" d="M155.6,81.7c0.3-0.1,0.6,0,0.9,0.2c0.3,0.2,0.5,0.5,0.5,0.8c0.1,0.3,0,0.6-0.2,0.9c-0.2,0.3-0.5,0.4-0.8,0.5
		l-11.7,1.7c-0.4,0.1-0.7,0-0.9-0.2c-0.3-0.2-0.4-0.5-0.5-0.8L140,65.6c-0.1-0.3,0-0.6,0.2-0.9c0.2-0.3,0.5-0.4,0.8-0.5l11.7-1.7
		c0.3,0,0.6,0,0.9,0.2c0.3,0.2,0.4,0.5,0.5,0.8c0.1,0.3,0,0.7-0.2,0.9s-0.5,0.4-0.8,0.5l-10.5,1.5l2.4,16.7L155.6,81.7z M146.2,75.7
		c-0.4,0.1-0.7,0-0.9-0.2c-0.3-0.2-0.4-0.5-0.5-0.8c-0.1-0.3,0-0.7,0.2-0.9c0.2-0.3,0.5-0.4,0.8-0.5l6.6-1c0.3-0.1,0.6,0,0.9,0.2
		s0.4,0.5,0.5,0.8c0.1,0.3,0,0.6-0.2,0.9c-0.2,0.3-0.5,0.4-0.8,0.5L146.2,75.7z"/>
	<path class="st1" d="M156.9,63.1c0-0.3,0-0.5,0.1-0.8s0.3-0.4,0.6-0.5c0.3-0.1,0.5-0.1,0.8-0.1c0.3,0.1,0.5,0.2,0.6,0.4l8.1,10.1
		l5.1-12c0.1-0.3,0.3-0.5,0.5-0.6c0.2-0.1,0.5-0.2,0.8-0.1s0.5,0.2,0.7,0.4s0.3,0.4,0.4,0.7l2.8,19.2c0.1,0.3,0,0.7-0.2,0.9
		s-0.5,0.4-0.8,0.5c-0.3,0.1-0.6,0-0.9-0.2s-0.4-0.5-0.5-0.8l-2.2-14.8l-4.2,9.9c-0.1,0.2-0.2,0.4-0.4,0.5s-0.4,0.2-0.6,0.2
		c-0.5,0.1-0.9-0.1-1.2-0.4l-6.5-8.1l2.1,14.6c0.1,0.3,0,0.7-0.2,0.9c-0.2,0.3-0.5,0.4-0.8,0.5c-0.4,0.1-0.7,0-0.9-0.2
		c-0.3-0.2-0.4-0.5-0.5-0.8L156.9,63.1z"/>
	<path class="st1" d="M196.7,78.2c-1,0.2-2,0.1-3-0.2c-1-0.3-1.8-0.7-2.6-1.2s-1.4-1.3-1.9-2.1c-0.5-0.8-0.9-1.8-1-2.8l-1-6.8
		c-0.1-1-0.1-2,0.2-3c0.3-1,0.7-1.8,1.2-2.6c0.6-0.8,1.3-1.4,2.1-1.9c0.8-0.5,1.8-0.8,2.8-1c1-0.2,2-0.1,3,0.2
		c1,0.3,1.8,0.7,2.6,1.2c0.8,0.6,1.4,1.3,1.9,2.1c0.5,0.8,0.9,1.8,1,2.8c0.1,0.3,0,0.6-0.2,0.9c-0.2,0.3-0.5,0.4-0.8,0.5
		c-0.4,0.1-0.7,0-0.9-0.2s-0.4-0.5-0.5-0.8c-0.1-0.7-0.3-1.3-0.7-1.9c-0.4-0.6-0.8-1-1.3-1.4s-1.1-0.7-1.7-0.8
		c-0.6-0.2-1.3-0.2-2-0.1c-0.7,0.1-1.3,0.3-1.9,0.7s-1,0.8-1.4,1.3c-0.4,0.5-0.7,1.1-0.8,1.7s-0.2,1.3-0.1,2l1,6.8
		c0.1,0.7,0.3,1.3,0.7,1.9c0.4,0.6,0.8,1,1.3,1.4c0.5,0.4,1.1,0.7,1.7,0.8s1.3,0.2,2,0.1s1.3-0.3,1.9-0.7s1-0.8,1.4-1.3
		s0.7-1.1,0.8-1.7s0.2-1.3,0.1-2c-0.1-0.3,0-0.7,0.2-0.9c0.2-0.3,0.5-0.4,0.8-0.5c0.3-0.1,0.6,0,0.9,0.2s0.4,0.5,0.5,0.8
		c0.1,1,0.1,2-0.2,3c-0.3,1-0.7,1.8-1.2,2.6s-1.3,1.4-2.1,1.9C198.6,77.7,197.7,78,196.7,78.2z"/>
	<path class="st1" d="M207.3,76.6c-0.3-0.1-0.6-0.2-0.8-0.5s-0.3-0.6-0.2-0.9l3.4-20.1c0-0.3,0.2-0.5,0.4-0.7
		c0.2-0.2,0.4-0.3,0.7-0.3s0.5,0,0.8,0.1c0.2,0.1,0.4,0.3,0.6,0.5l6.6,13.4l2.4,4.9c0.2,0.3,0.2,0.6,0.1,0.9s-0.3,0.6-0.6,0.7
		c-0.1,0.1-0.1,0.1-0.2,0.1c-0.1,0-0.1,0-0.2,0c-0.3,0-0.5,0-0.8-0.1c-0.2-0.1-0.4-0.3-0.6-0.6l-2-4.1l-4.2,0.6
		c-0.4,0.1-0.7,0-0.9-0.2c-0.3-0.2-0.4-0.5-0.5-0.8c-0.1-0.3,0-0.7,0.2-0.9c0.2-0.3,0.5-0.4,0.8-0.5l3.4-0.5l-4.1-8.4l-2.7,16.3
		c-0.1,0.3-0.2,0.6-0.5,0.8C207.9,76.6,207.6,76.6,207.3,76.6z"/>
	<path class="st1" d="M233.8,70c0.4-0.3,0.8-0.6,1-0.9c0.3-0.4,0.5-0.8,0.6-1.2s0.1-0.9,0.1-1.4c-0.1-0.5-0.2-0.9-0.5-1.3
		s-0.6-0.8-0.9-1c-0.4-0.3-0.8-0.5-1.2-0.6s-0.9-0.2-1.4-0.1l-1.4,0.2l-1.4,0.2c-0.8,0.1-1.6,0.1-2.4-0.1c-0.8-0.2-1.5-0.5-2.1-1
		c-0.6-0.5-1.1-1-1.6-1.7c-0.4-0.7-0.7-1.5-0.8-2.3c-0.1-0.8-0.1-1.6,0.1-2.4c0.2-0.8,0.6-1.5,1-2.1c0.5-0.6,1-1.1,1.7-1.6
		s1.4-0.7,2.3-0.8l1.4-0.2l1.4-0.2c0.8-0.1,1.6-0.1,2.4,0.1c0.8,0.2,1.5,0.5,2.1,1s1.1,1,1.6,1.7c0.4,0.7,0.7,1.5,0.8,2.3
		c0.1,0.3,0,0.7-0.2,0.9c-0.2,0.3-0.5,0.4-0.8,0.5c-0.4,0-0.7,0-0.9-0.2c-0.3-0.2-0.4-0.5-0.5-0.8c-0.1-0.5-0.2-0.9-0.5-1.3
		s-0.6-0.8-0.9-1c-0.4-0.3-0.8-0.5-1.2-0.6s-0.9-0.2-1.4-0.1l-1.4,0.2l-1.4,0.2c-0.5,0.1-0.9,0.2-1.4,0.5c-0.4,0.2-0.7,0.6-1,0.9
		c-0.3,0.4-0.5,0.8-0.6,1.3c-0.1,0.5-0.1,0.9-0.1,1.4c0.1,0.5,0.2,1,0.5,1.3c0.2,0.4,0.6,0.7,0.9,1c0.4,0.3,0.8,0.5,1.2,0.6
		c0.4,0.1,0.9,0.2,1.4,0.1l1.4-0.2l1.4-0.2c0.8-0.1,1.6-0.1,2.4,0.1c0.8,0.2,1.5,0.5,2.1,1s1.1,1,1.6,1.7c0.4,0.7,0.7,1.5,0.8,2.3
		c0.1,0.8,0.1,1.6-0.1,2.4s-0.6,1.5-1,2.1c-0.5,0.6-1,1.2-1.7,1.6c-0.7,0.4-1.4,0.7-2.3,0.8l-1.4,0.2l-1.4,0.2
		c-0.8,0.1-1.6,0.1-2.4-0.1c-0.8-0.2-1.5-0.6-2.1-1c-0.6-0.5-1.1-1.1-1.6-1.7c-0.4-0.7-0.7-1.4-0.8-2.3c-0.1-0.3,0-0.7,0.2-0.9
		c0.2-0.3,0.5-0.4,0.8-0.5c0.4-0.1,0.7,0,0.9,0.2c0.3,0.2,0.4,0.5,0.5,0.8c0.1,0.5,0.2,0.9,0.5,1.3c0.2,0.4,0.6,0.8,0.9,1
		s0.8,0.5,1.2,0.6c0.4,0.1,0.9,0.2,1.4,0.1l1.4-0.2l1.4-0.2C233,70.4,233.4,70.3,233.8,70z"/>
	<path class="st1" d="M241.6,71.6c-0.3-0.1-0.6-0.2-0.8-0.5s-0.3-0.6-0.2-0.9L244,50c0-0.3,0.2-0.5,0.4-0.7c0.2-0.2,0.4-0.3,0.7-0.3
		s0.5,0,0.8,0.1c0.2,0.1,0.4,0.3,0.6,0.5l6.6,13.4l2.4,4.9c0.2,0.3,0.2,0.6,0.1,0.9s-0.3,0.6-0.6,0.7c-0.1,0.1-0.1,0.1-0.2,0.1
		c-0.1,0-0.1,0-0.2,0c-0.3,0-0.5,0-0.8-0.1c-0.2-0.1-0.4-0.3-0.6-0.6l-2-4.1l-4.2,0.6c-0.4,0.1-0.7,0-0.9-0.2
		c-0.3-0.2-0.4-0.5-0.5-0.8c-0.1-0.3,0-0.7,0.2-0.9c0.2-0.3,0.5-0.4,0.8-0.5l3.4-0.5l-4.1-8.4l-2.7,16.3c-0.1,0.3-0.2,0.6-0.5,0.8
		C242.3,71.5,242,71.6,241.6,71.6z"/>
</g>
<g>
	<path d="M14.9,8.5h-0.8l-2.9,10.7h6.6L14.9,8.5z M18.4,3.7L23.1,20v12.7h-4.9v-8.6h-7.5v8.6H5.8V20l4.7-16.4
		C10.5,3.7,18.4,3.7,18.4,3.7z"/>
	<g>
		<path d="M38.8,18.8c0-0.9-0.3-1.6-0.9-2.2c-0.6-0.5-1.3-0.8-2.1-0.8c-0.9,0-1.6,0.3-2.2,0.8c-0.6,0.5-0.9,1.3-0.9,2.2v7.1
			c0,0.9,0.3,1.6,0.9,2.2c0.6,0.5,1.3,0.8,2.1,0.8s1.6-0.3,2.1-0.8c0.6-0.5,0.9-1.3,0.9-2.2V18.8z M28.1,12h4.2l0.2,1.9
			c0.1-0.2,0.3-0.4,0.5-0.6c0.2-0.2,0.7-0.6,1.5-1s1.6-0.6,2.6-0.6c1.8,0,3.3,0.7,4.7,2s2,3,2,5.1v7.4c0,2-0.7,3.6-2,5
			c-1.3,1.4-2.9,2.1-4.7,2.1c-0.9,0-1.7-0.1-2.4-0.4s-1.1-0.5-1.4-0.8l-0.4-0.4v8.6h-4.7C28.1,40.2,28.1,12,28.1,12z"/>
		<path d="M58.5,16.4c-0.5-0.3-1.3-0.5-2.2-0.5c-1,0-1.8,0.4-2.4,1.2c-0.6,0.8-0.9,2-0.9,3.6v12h-4.8V12h4.5l0.1,2.3
			c0-0.1,0.1-0.2,0.2-0.3c0.1-0.1,0.2-0.3,0.5-0.6c0.2-0.3,0.5-0.6,0.8-0.8c0.3-0.2,0.7-0.4,1.1-0.6c0.5-0.2,1-0.3,1.4-0.3
			c0.5,0,1.1,0.1,1.6,0.2s0.9,0.2,1.1,0.3l0.4,0.2L58.5,16.4z"/>
		<path d="M65.2,20h6v-1.3c0-0.9-0.3-1.5-0.8-2.1c-0.6-0.5-1.3-0.8-2.1-0.8c-0.8,0-1.5,0.3-2.1,0.8s-0.9,1.2-0.9,2.1V20z M76,26.6
			c-0.2,2-1.1,3.5-2.5,4.7c-1.5,1.2-3.2,1.8-5.2,1.8c-2.2,0-4.1-0.7-5.5-2c-1.4-1.4-2.1-3-2.1-5.1v-7.4c0-2,0.7-3.7,2.2-5
			c1.4-1.4,3.3-2.1,5.5-2.1s4.1,0.7,5.5,2c1.4,1.3,2.1,3,2.1,5v5.4H65.2v2c0,0.9,0.3,1.6,0.8,2.2c0.6,0.5,1.3,0.8,2.1,0.8
			c0.8,0,1.4-0.2,1.9-0.6c0.5-0.4,0.8-0.8,0.9-1.2l0.2-0.6L76,26.6L76,26.6z"/>
		<path d="M91.4,19.2c0-1-0.3-1.8-0.8-2.4C90,16.3,89.3,16,88.4,16c-0.9,0-1.6,0.3-2.2,0.9c-0.6,0.6-0.9,1.4-0.9,2.4v13.5h-4.7V12
			H85l0.3,2c0.1-0.2,0.3-0.4,0.5-0.6c0.2-0.3,0.7-0.6,1.5-1s1.6-0.6,2.6-0.6c1.9,0,3.4,0.7,4.6,2s1.8,3.2,1.8,5.5v13.6h-4.7
			L91.4,19.2L91.4,19.2z"/>
		<path d="M105.3,25.9c0,0.9,0.3,1.6,0.9,2.2c0.6,0.5,1.3,0.8,2.1,0.8c0.9,0,1.6-0.3,2.2-0.8c0.6-0.5,0.9-1.3,0.9-2.2v-7
			c0-1-0.3-1.9-0.8-2.4c-0.6-0.5-1.3-0.8-2.2-0.8c-0.8,0-1.6,0.3-2.1,0.8c-0.6,0.5-0.9,1.3-0.9,2.2V25.9z M116.1,32.7h-4.2l-0.2-1.8
			c-0.1,0.2-0.3,0.4-0.5,0.6c-0.2,0.2-0.8,0.6-1.6,0.9c-0.8,0.4-1.7,0.6-2.6,0.6c-1.8,0-3.3-0.7-4.6-2c-1.3-1.3-1.9-3-1.9-5.1v-7.4
			c0-2,0.7-3.6,2-5s2.9-2.1,4.7-2.1c0.9,0,1.7,0.2,2.4,0.5c0.7,0.3,1.1,0.6,1.3,0.9l0.3,0.5V3.7h4.7L116.1,32.7L116.1,32.7z"/>
	</g>
	<path d="M121.2,12h4.9v20.8h-4.9V12z M121.1,3.7h5.2V9h-5.2V3.7z"/>
	<polygon points="136.1,28.4 144.8,28.4 144.8,32.7 130.4,32.7 130.4,28.6 138.9,16.3 130.9,16.3 130.9,12 144.6,12 144.6,16.2 	"/>
	<path d="M157.1,28.1c0.7-0.6,1.1-1.3,1.1-2v-2.4l-3.3,0.3c-0.9,0.1-1.7,0.4-2.2,0.8c-0.5,0.5-0.8,1.1-0.8,1.9
		c0,0.6,0.2,1.2,0.7,1.6s1.1,0.7,1.9,0.7C155.5,29,156.4,28.7,157.1,28.1 M158.6,30.5c-0.1,0.2-0.3,0.4-0.6,0.7
		c-0.2,0.3-0.8,0.6-1.8,1.1c-0.9,0.5-1.9,0.7-3,0.7c-1.9,0-3.4-0.6-4.4-1.8c-1.1-1.2-1.6-2.7-1.6-4.5c0-1.9,0.7-3.5,2.1-4.6
		s3.2-1.8,5.4-1.9l3.6-0.3v-1.4c0-0.8-0.2-1.5-0.7-2s-1.1-0.8-1.9-0.8c-0.7,0-1.4,0.2-1.9,0.6c-0.5,0.4-0.8,1-0.9,1.7h-4.7
		c0-1.9,0.7-3.4,2.1-4.7s3.1-1.9,5.1-1.9c2.3,0,4.2,0.7,5.5,2s2,3,2,5.1v14.1h-4.2L158.6,30.5z"/>
	<path d="M176.2,18c0-0.6-0.2-1.1-0.7-1.6c-0.4-0.4-1-0.6-1.6-0.6c-0.7,0-1.3,0.2-1.7,0.6c-0.4,0.4-0.7,1-0.7,1.6v3.1
		c0,0.6,0.2,1.1,0.7,1.6s1,0.6,1.7,0.6c0.6,0,1.2-0.2,1.6-0.6c0.4-0.4,0.7-1,0.7-1.6V18z M171.6,28.3v-1.5c-1.4-0.5-2.5-1.3-3.4-2.4
		c-0.9-1.1-1.3-2.3-1.3-3.7v-2.5c0-1.9,0.7-3.4,2.1-4.8s3-2,4.9-2c1.3,0,2.3,0.2,3.1,0.8c0.4-0.6,0.7-1,1-1.2s0.8-0.5,1.5-0.8
		c0.7-0.2,1.5-0.4,2.5-0.4v3.9c-0.9,0-1.6,0.3-2.1,1c0.7,0.9,1.1,2.1,1.1,3.5v2.5c0,1.4-0.4,2.7-1.3,3.8s-2,1.9-3.5,2.3
		c0,0.8,0.2,1.2,0.5,1.5l3.3,2.1c1.8,1.1,2.8,2.6,2.8,4.4c0,1.3-0.5,2.4-1.4,3.3c-0.9,0.9-2,1.5-3.2,1.9s-2.5,0.5-3.9,0.5
		c-2.3,0-4.2-0.5-5.8-1.4c-1.6-0.9-2.4-2.4-2.4-4.3v-0.6h4.7v0.5c0,0.5,0.3,1,0.9,1.4c0.6,0.4,1.5,0.6,2.6,0.6c1.1,0,2-0.2,2.7-0.5
		c0.7-0.3,1-0.7,1-1.2c0-0.4-0.2-0.8-0.7-1.1l-3.8-2.3C172.2,30.8,171.6,29.7,171.6,28.3"/>
	<path d="M189.3,20h6v-1.3c0-0.9-0.3-1.5-0.9-2.1c-0.6-0.5-1.3-0.8-2.1-0.8c-0.8,0-1.5,0.3-2.1,0.8s-0.9,1.2-0.9,2.1L189.3,20
		L189.3,20z M200,26.6c-0.2,2-1.1,3.5-2.5,4.7c-1.5,1.2-3.2,1.8-5.2,1.8c-2.2,0-4.1-0.7-5.5-2c-1.4-1.4-2.1-3-2.1-5.1v-7.4
		c0-2,0.7-3.7,2.2-5c1.4-1.4,3.3-2.1,5.5-2.1s4.1,0.7,5.5,2c1.4,1.3,2.1,3,2.1,5v5.4h-10.6v2c0,0.9,0.3,1.6,0.9,2.2
		c0.6,0.5,1.3,0.8,2.1,0.8c0.8,0,1.4-0.2,1.9-0.6c0.5-0.4,0.8-0.8,0.9-1.2l0.2-0.6L200,26.6L200,26.6z"/>
	<path d="M224.6,18.9c0-0.8-0.2-1.5-0.7-2s-1-0.8-1.6-0.8c-0.8,0-1.5,0.3-2.1,0.9s-0.8,1.3-0.8,2.2v13.7h-4.7V18.9
		c0-0.8-0.2-1.5-0.7-2c-0.4-0.5-1-0.8-1.7-0.8c-0.8,0-1.4,0.3-2,0.9s-0.9,1.3-0.9,2.2v13.6h-4.7V12h4.4l0.2,2
		c0.1-0.2,0.3-0.4,0.5-0.6c0.2-0.3,0.7-0.6,1.5-1.1c0.8-0.4,1.6-0.7,2.4-0.7c0.8,0,1.5,0.2,2.1,0.5s1.1,0.7,1.4,1.1l0.4,0.5
		c0.2-0.2,0.4-0.4,0.7-0.6c0.3-0.2,0.8-0.5,1.7-0.9c0.9-0.4,1.7-0.6,2.6-0.6c1.9,0,3.6,0.7,4.8,2c1.3,1.3,1.9,3,1.9,5.1v14h-4.7
		L224.6,18.9L224.6,18.9z"/>
	<g>
		<path d="M24,60.6c0,2.3-0.8,4.2-2.5,5.8c-1.7,1.6-3.7,2.4-6.1,2.4s-4.4-0.8-6.1-2.4s-2.5-3.5-2.5-5.8V47.1c0-2.2,0.8-4.1,2.5-5.7
			s3.7-2.4,6-2.4c1.5,0,2.8,0.3,4,0.8c1.1,0.5,2,1.2,2.7,2.1c0.6,0.9,1.1,1.8,1.4,2.7s0.5,1.9,0.5,2.8h-5c0-1-0.3-1.9-0.9-2.6
			c-0.6-0.8-1.4-1.1-2.5-1.1c-1,0-1.8,0.3-2.5,1s-1,1.4-1,2.3v13.8c0,1,0.3,1.8,1,2.4s1.5,0.9,2.4,0.9s1.8-0.3,2.6-0.9
			c0.7-0.6,1.1-1.5,1.1-2.6v-1.3h5L24,60.6L24,60.6z"/>
		<path d="M39.6,52.1c-0.5-0.3-1.3-0.5-2.2-0.5c-1,0-1.8,0.4-2.4,1.2c-0.6,0.8-0.9,2-0.9,3.6v12h-4.8V47.7h4.5l0.1,2.3
			c0-0.1,0.1-0.2,0.2-0.3c0.1-0.1,0.2-0.3,0.5-0.6c0.2-0.3,0.5-0.6,0.8-0.8c0.3-0.2,0.7-0.5,1.1-0.6c0.5-0.2,1-0.3,1.4-0.3
			c0.5,0,1.1,0.1,1.6,0.2c0.5,0.1,0.9,0.2,1.1,0.3L41,48L39.6,52.1z"/>
		<path d="M44.3,47.7h4.9v20.8h-4.9V47.7z M44.1,39.4h5.2v5.3h-5.2V39.4z"/>
		<path d="M64.3,63.8c0.7-0.6,1.1-1.3,1.1-2v-2.4L62,59.6c-0.9,0.1-1.7,0.4-2.2,0.8s-0.8,1.1-0.8,1.9c0,0.6,0.2,1.2,0.7,1.6
			s1.1,0.7,1.9,0.7C62.7,64.8,63.5,64.4,64.3,63.8 M65.7,66.2c-0.1,0.2-0.3,0.4-0.6,0.7s-0.8,0.7-1.8,1.1s-1.9,0.7-3,0.7
			c-1.9,0-3.3-0.6-4.5-1.8c-1.1-1.2-1.7-2.7-1.7-4.5c0-1.9,0.7-3.5,2.1-4.6c1.4-1.1,3.2-1.8,5.4-1.9l3.6-0.3v-1.4
			c0-0.8-0.2-1.5-0.7-2c-0.5-0.5-1.1-0.8-1.8-0.8c-0.7,0-1.4,0.2-1.9,0.6c-0.5,0.4-0.8,1-0.9,1.7h-4.7c0-1.8,0.7-3.4,2.1-4.7
			c1.4-1.3,3.1-1.9,5.2-1.9c2.3,0,4.2,0.7,5.5,2c1.3,1.3,2,3,2,5.1v14.1h-4.2L65.7,66.2z"/>
		<path d="M73.9,47.7h2.7v-5.4h4.8v5.4h6.4V52h-6.4v10.6c0,0.6,0.2,1,0.5,1.4s0.8,0.5,1.3,0.5s0.9-0.2,1.3-0.5s0.5-0.8,0.5-1.4v-0.5
			h4.4v0.3c0,1.9-0.6,3.5-1.8,4.7s-2.7,1.8-4.5,1.8c-2,0-3.6-0.6-4.7-1.8s-1.8-3-1.8-5.2V52H74L73.9,47.7L73.9,47.7z"/>
		<path d="M93.8,47.7h4.9v20.8h-4.9V47.7z M93.6,39.4h5.2v5.3h-5.2V39.4z"/>
		<polygon points="109,55.7 111.6,64.3 112,64.3 114.7,55.7 114.7,47.7 119.5,47.7 119.5,55.8 115.3,68.4 108.4,68.4 104.2,55.8 
			104.2,47.7 109,47.7 		"/>
		<path d="M132.8,63.8c0.7-0.6,1.1-1.3,1.1-2v-2.4l-3.3,0.3c-0.9,0.1-1.7,0.4-2.2,0.8c-0.5,0.5-0.8,1.1-0.8,1.9
			c0,0.6,0.2,1.2,0.7,1.6s1.1,0.7,1.9,0.7C131.3,64.8,132.1,64.4,132.8,63.8 M134.3,66.2c-0.1,0.2-0.3,0.4-0.6,0.7s-0.8,0.7-1.8,1.1
			s-1.9,0.7-3,0.7c-1.9,0-3.3-0.6-4.4-1.8c-1.1-1.2-1.7-2.7-1.7-4.5c0-1.9,0.7-3.5,2.1-4.6c1.4-1.1,3.2-1.8,5.4-1.9l3.6-0.3v-1.4
			c0-0.8-0.2-1.5-0.7-2s-1.1-0.8-1.9-0.8c-0.7,0-1.4,0.2-1.9,0.6c-0.5,0.4-0.8,1-0.9,1.7h-4.7c0-1.8,0.7-3.4,2.1-4.7
			c1.4-1.3,3.1-1.9,5.1-1.9c2.3,0,4.2,0.7,5.5,2s2,3,2,5.1v14.1h-4.2L134.3,66.2z"/>
	</g>
</g>
</svg>
