<?xml version="1.0" encoding="utf-8"?>
<!-- Generator: Adobe Illustrator 24.1.0, SVG Export Plug-In . SVG Version: 6.00 Build 0)  -->
<svg version="1.1" id="Layer_1" xmlns="http://www.w3.org/2000/svg" xmlns:xlink="http://www.w3.org/1999/xlink" x="0px" y="0px"
	 viewBox="0 0 270 120" style="enable-background:new 0 0 270 120;" xml:space="preserve">
<style type="text/css">
	.st0{fill:#FFFFFF;}
	.st1{fill:#FFCC07;}
	.st2{fill:#EB0C8B;}
</style>
<path class="st0" d="M14.6,107.4c1.7,0.7,2.6,2.1,2.6,4c0,2.9-2.1,4.5-5,4.5H6.5c-0.2,0-0.3-0.1-0.3-0.3v-16c0-0.2,0.1-0.3,0.3-0.3
	H12c3,0,4.9,1.6,4.9,4.3c0,1.8-0.9,3-2.4,3.6C14.5,107.3,14.5,107.3,14.6,107.4z M7.9,100.8v5.7c0,0.1,0.1,0.1,0.1,0.1h4
	c2,0,3.3-1.1,3.3-2.9c0-1.8-1.3-3-3.3-3H8C7.9,100.7,7.9,100.8,7.9,100.8z M15.5,111.2c0-1.9-1.3-3.2-3.4-3.2H8
	c-0.1,0-0.1,0.1-0.1,0.1v6.1c0,0.1,0.1,0.1,0.1,0.1h4.2C14.2,114.4,15.5,113.2,15.5,111.2z"/>
<path class="st0" d="M26.9,104c0.2,0.1,0.2,0.2,0.2,0.4l-0.2,1.1c0,0.2-0.2,0.3-0.4,0.2c-0.3-0.1-0.7-0.1-1.2-0.1
	c-1.6,0.1-2.9,1.3-2.9,3.1v6.9c0,0.2-0.1,0.3-0.3,0.3h-1.1c-0.2,0-0.3-0.1-0.3-0.3v-11.4c0-0.2,0.1-0.3,0.3-0.3h1.1
	c0.2,0,0.3,0.1,0.3,0.3v1.3c0,0.1,0.1,0.1,0.1,0.1c0.6-1.1,1.7-1.8,3-1.8C26.2,103.7,26.6,103.9,26.9,104z"/>
<path class="st0" d="M29.2,100.5c0-0.7,0.5-1.2,1.3-1.2s1.3,0.5,1.3,1.2c0,0.7-0.5,1.2-1.3,1.2S29.2,101.2,29.2,100.5z M29.6,115.6
	v-11.4c0-0.2,0.1-0.3,0.3-0.3H31c0.2,0,0.3,0.1,0.3,0.3v11.4c0,0.2-0.1,0.3-0.3,0.3h-1.1C29.7,115.9,29.6,115.8,29.6,115.6z"/>
<path class="st0" d="M44.4,107.8v7.8c0,0.2-0.1,0.3-0.3,0.3H43c-0.2,0-0.3-0.1-0.3-0.3v-7.4c0-1.8-1.1-3-2.8-3c-1.6,0-2.8,1-2.9,2.5
	v7.9c0,0.2-0.1,0.3-0.3,0.3h-1.1c-0.2,0-0.3-0.1-0.3-0.3v-11.4c0-0.2,0.1-0.3,0.3-0.3h1.1c0.2,0,0.3,0.1,0.3,0.3v0.9
	c0,0.1,0.1,0.2,0.1,0.1c0.7-0.9,1.8-1.4,3.2-1.4C42.8,103.7,44.4,105.3,44.4,107.8z"/>
<path class="st0" d="M48,112.8c-0.2-0.8-0.3-1.7-0.3-2.9c0-1.3,0.1-2.2,0.3-2.9c0.6-1.9,2.3-3.3,4.6-3.3c2.4,0,4.2,1.4,4.7,3.1
	c0.1,0.2,0.1,0.5,0.1,0.6c0,0.2-0.1,0.3-0.3,0.4l-1,0.1c-0.2,0-0.3-0.1-0.4-0.3c0-0.1,0-0.2,0-0.3c-0.3-1.2-1.4-2.2-3.1-2.2
	c-1.6,0-2.7,0.9-3,2.3c-0.1,0.5-0.2,1.3-0.2,2.4c0,1.2,0.1,1.9,0.2,2.4c0.3,1.4,1.4,2.3,3,2.3c1.6,0,2.8-0.9,3-2.1
	c0-0.1,0-0.1,0-0.1l0,0c0-0.2,0.2-0.3,0.4-0.3l1,0.2c0.2,0,0.3,0.1,0.3,0.4c0,0.1,0,0.2-0.1,0.4c-0.5,1.8-2.3,3.1-4.7,3.1
	C50.3,116.1,48.6,114.8,48,112.8z"/>
<path class="st0" d="M69.1,107.7v7.9c0,0.2-0.1,0.3-0.3,0.3h-1.1c-0.2,0-0.3-0.1-0.3-0.3v-0.9c0-0.1-0.1-0.1-0.1-0.1
	c-0.9,0.9-2.2,1.4-3.7,1.4c-2,0-3.9-1-3.9-3.5c0-2.4,1.8-3.8,4.9-3.8h2.8c0.1,0,0.1-0.1,0.1-0.1v-0.9c0-1.6-0.8-2.6-2.8-2.6
	c-1.5,0-2.5,0.6-2.7,1.6c0,0.2-0.2,0.3-0.4,0.2l-1.2-0.1c-0.2,0-0.3-0.1-0.3-0.3c0.3-1.7,2.1-2.9,4.5-2.9
	C67.5,103.7,69.1,105.3,69.1,107.7z M67.4,112v-1.8c0-0.1-0.1-0.1-0.1-0.1h-2.5c-2.1,0-3.5,0.9-3.5,2.4c0,1.4,1.2,2.1,2.6,2.1
	C65.7,114.6,67.4,113.7,67.4,112z"/>
<path class="st0" d="M78.8,104c0.2,0.1,0.2,0.2,0.2,0.4l-0.2,1.1c-0.1,0.2-0.2,0.3-0.4,0.2c-0.3-0.1-0.7-0.1-1.2-0.1
	c-1.6,0.1-2.8,1.3-2.8,3.1v6.9c0,0.2-0.1,0.3-0.3,0.3h-1.1c-0.2,0-0.3-0.1-0.3-0.3v-11.4c0-0.2,0.1-0.3,0.3-0.3H74
	c0.2,0,0.3,0.1,0.3,0.3v1.3c0,0.1,0.1,0.1,0.1,0.1c0.6-1.1,1.7-1.8,3-1.8C78.1,103.7,78.5,103.9,78.8,104z"/>
<path class="st0" d="M85.9,112.8c-0.2-0.8-0.3-1.7-0.3-2.9c0-1.3,0.1-2.2,0.3-2.9c0.6-1.9,2.3-3.3,4.6-3.3c2.4,0,4.2,1.4,4.7,3.1
	c0.1,0.2,0.1,0.5,0.1,0.6c0,0.2-0.1,0.3-0.3,0.4l-1.1,0.1c-0.2,0-0.3-0.1-0.4-0.3c0-0.1,0-0.2-0.1-0.3c-0.3-1.2-1.4-2.2-3.1-2.2
	c-1.6,0-2.7,0.9-3,2.3c-0.1,0.5-0.2,1.3-0.2,2.4c0,1.2,0.1,1.9,0.2,2.4c0.3,1.4,1.4,2.3,3,2.3c1.6,0,2.8-0.9,3-2.1
	c0-0.1,0-0.1,0-0.1l0,0c0-0.2,0.2-0.3,0.4-0.3l1,0.2c0.2,0,0.3,0.1,0.3,0.4c0,0.1-0.1,0.2-0.1,0.4c-0.5,1.8-2.3,3.1-4.7,3.1
	C88.2,116.1,86.6,114.8,85.9,112.8z"/>
<path class="st0" d="M98.3,112.8c-0.2-0.8-0.3-1.8-0.3-2.9c0-1.2,0.1-2.1,0.3-2.9c0.6-2,2.3-3.3,4.7-3.3c2.3,0,4,1.3,4.6,3.3
	c0.2,0.8,0.3,1.8,0.3,2.9c0,1.1-0.1,2.1-0.3,2.9c-0.6,2.1-2.3,3.3-4.6,3.3C100.6,116.1,98.9,114.8,98.3,112.8z M106,112.3
	c0.1-0.6,0.2-1.4,0.2-2.4c0-1.1-0.1-1.9-0.2-2.4c-0.4-1.4-1.5-2.3-3.1-2.3c-1.6,0-2.7,0.9-3,2.3c-0.1,0.5-0.2,1.4-0.2,2.4
	c0,1,0.1,1.9,0.2,2.4c0.4,1.4,1.5,2.3,3.1,2.3C104.5,114.6,105.6,113.7,106,112.3z"/>
<path class="st0" d="M120.4,107.8v7.8c0,0.2-0.1,0.3-0.3,0.3h-1.1c-0.2,0-0.3-0.1-0.3-0.3v-7.4c0-1.8-1.1-3-2.8-3
	c-1.6,0-2.8,1-2.9,2.5v7.9c0,0.2-0.1,0.3-0.3,0.3h-1.1c-0.2,0-0.3-0.1-0.3-0.3v-11.4c0-0.2,0.1-0.3,0.3-0.3h1.1
	c0.2,0,0.3,0.1,0.3,0.3v0.9c0,0.1,0.1,0.2,0.1,0.1c0.7-0.9,1.8-1.4,3.2-1.4C118.8,103.7,120.4,105.3,120.4,107.8z"/>
<path class="st0" d="M131.9,112.9c0.1-0.2,0.2-0.2,0.4-0.1l0.7,0.4c0.2,0.1,0.2,0.2,0.1,0.4c-0.7,1.6-2.3,2.6-4.4,2.6
	c-2.3,0-3.8-1.1-4.4-3c-0.3-0.9-0.4-1.9-0.4-3.3c0-1.2,0-2,0.2-2.8c0.5-2.1,2.2-3.4,4.6-3.4c2.8,0,4.3,1.6,4.8,4.1
	c0.1,0.6,0.1,1.3,0.1,2.4c0,0.2-0.1,0.3-0.3,0.3h-7.6c-0.1,0-0.1,0.1-0.1,0.1c0,0.8,0.1,1.4,0.1,1.7c0.3,1.4,1.5,2.3,3.2,2.3
	C130.3,114.6,131.3,113.9,131.9,112.9z M125.6,107.4c-0.1,0.4-0.2,0.9-0.2,1.6c0,0.1,0.1,0.1,0.1,0.1h6.1c0.1,0,0.1-0.1,0.1-0.1
	c0-0.6-0.1-1.2-0.1-1.5c-0.3-1.4-1.4-2.3-3.1-2.3C127,105.1,125.9,106.1,125.6,107.4z"/>
<path class="st0" d="M136.8,112.8c-0.2-0.8-0.3-1.7-0.3-2.9c0-1.3,0.1-2.2,0.3-2.9c0.6-1.9,2.3-3.3,4.6-3.3c2.4,0,4.2,1.4,4.7,3.1
	c0.1,0.2,0.1,0.5,0.1,0.6c0,0.2-0.1,0.3-0.3,0.4l-1.1,0.1c-0.2,0-0.3-0.1-0.4-0.3c0-0.1,0-0.2-0.1-0.3c-0.3-1.2-1.4-2.2-3.1-2.2
	c-1.6,0-2.7,0.9-3,2.3c-0.1,0.5-0.2,1.3-0.2,2.4c0,1.2,0.1,1.9,0.2,2.4c0.3,1.4,1.4,2.3,3,2.3c1.6,0,2.8-0.9,3-2.1
	c0-0.1,0-0.1,0-0.1l0,0c0-0.2,0.2-0.3,0.4-0.3l1,0.2c0.2,0,0.3,0.1,0.3,0.4c0,0.1-0.1,0.2-0.1,0.4c-0.5,1.8-2.3,3.1-4.7,3.1
	C139.1,116.1,137.4,114.8,136.8,112.8z"/>
<path class="st0" d="M154.3,105.3h-2.6c-0.1,0-0.1,0.1-0.1,0.1v6.9c0,1.6,0.7,2.1,2.1,2.1h0.5c0.2,0,0.3,0.1,0.3,0.3v0.8
	c0,0.2-0.1,0.3-0.3,0.3h-0.8c-2.1,0-3.5-0.6-3.5-3v-7.5c0-0.1-0.1-0.1-0.1-0.1h-1.4c-0.2,0-0.3-0.1-0.3-0.3v-0.8
	c0-0.2,0.1-0.3,0.3-0.3h1.4c0.1,0,0.1-0.1,0.1-0.1v-2.7c0-0.2,0.1-0.3,0.3-0.3h1c0.2,0,0.3,0.1,0.3,0.3v2.7c0,0.1,0.1,0.1,0.1,0.1
	h2.6c0.2,0,0.3,0.1,0.3,0.3v0.8C154.6,105.1,154.5,105.3,154.3,105.3z"/>
<path class="st0" d="M166.5,107.7v7.9c0,0.2-0.1,0.3-0.3,0.3h-1.1c-0.2,0-0.3-0.1-0.3-0.3v-0.9c0-0.1-0.1-0.1-0.1-0.1
	c-0.9,0.9-2.2,1.4-3.7,1.4c-2,0-3.9-1-3.9-3.5c0-2.4,1.8-3.8,4.9-3.8h2.8c0.1,0,0.1-0.1,0.1-0.1v-0.9c0-1.6-0.8-2.6-2.8-2.6
	c-1.5,0-2.5,0.6-2.7,1.6c-0.1,0.2-0.2,0.3-0.4,0.2l-1.2-0.1c-0.2,0-0.3-0.1-0.3-0.3c0.3-1.7,2.1-2.9,4.5-2.9
	C164.9,103.7,166.5,105.3,166.5,107.7z M164.8,112v-1.8c0-0.1-0.1-0.1-0.1-0.1h-2.5c-2.1,0-3.5,0.9-3.5,2.4c0,1.4,1.2,2.1,2.6,2.1
	C163.1,114.6,164.8,113.7,164.8,112z"/>
<rect x="131.9" y="48.6" transform="matrix(0.9874 -0.1581 0.1581 0.9874 -7.8529 32.0543)" class="st1" width="131.3" height="33.5"/>
<path class="st2" d="M154.7,80.9c0.3-0.1,0.6,0,0.9,0.2c0.3,0.2,0.5,0.5,0.5,0.8c0.1,0.3,0,0.6-0.2,0.9c-0.2,0.3-0.5,0.4-0.8,0.5
	l-11.7,1.7c-0.4,0.1-0.7,0-0.9-0.2c-0.3-0.2-0.4-0.5-0.5-0.8l-2.8-19.2c-0.1-0.3,0-0.6,0.2-0.9c0.2-0.3,0.5-0.4,0.8-0.5l11.7-1.7
	c0.3,0,0.6,0,0.9,0.2c0.3,0.2,0.4,0.5,0.5,0.8c0.1,0.3,0,0.7-0.2,0.9c-0.2,0.3-0.5,0.4-0.8,0.5l-10.5,1.5l2.4,16.7L154.7,80.9z
	 M145.3,75c-0.4,0.1-0.7,0-0.9-0.2c-0.3-0.2-0.4-0.5-0.5-0.8c-0.1-0.3,0-0.7,0.2-0.9c0.2-0.3,0.5-0.4,0.8-0.5l6.6-1
	c0.3-0.1,0.6,0,0.9,0.2s0.4,0.5,0.5,0.8c0.1,0.3,0,0.6-0.2,0.9c-0.2,0.3-0.5,0.4-0.8,0.5L145.3,75z"/>
<path class="st2" d="M156.1,62.4c0-0.3,0-0.5,0.1-0.8s0.3-0.4,0.6-0.5c0.3-0.1,0.5-0.1,0.8-0.1c0.3,0.1,0.5,0.2,0.6,0.4l8.1,10.1
	l5.1-12c0.1-0.3,0.3-0.5,0.5-0.6c0.2-0.1,0.5-0.2,0.8-0.1s0.5,0.2,0.7,0.4s0.3,0.4,0.4,0.7l2.8,19.2c0.1,0.3,0,0.7-0.2,0.9
	s-0.5,0.4-0.8,0.5c-0.3,0.1-0.6,0-0.9-0.2s-0.4-0.5-0.5-0.8L172,64.6l-4.2,9.9c-0.1,0.2-0.2,0.4-0.4,0.5s-0.4,0.2-0.6,0.2
	c-0.5,0.1-0.9-0.1-1.2-0.4l-6.5-8.1l2.1,14.6c0.1,0.3,0,0.7-0.2,0.9c-0.2,0.3-0.5,0.4-0.8,0.5c-0.4,0.1-0.7,0-0.9-0.2
	c-0.3-0.2-0.4-0.5-0.5-0.8L156.1,62.4z"/>
<path class="st2" d="M195.8,77.4c-1,0.2-2,0.1-3-0.2c-1-0.3-1.8-0.7-2.6-1.2s-1.4-1.3-1.9-2.1c-0.5-0.8-0.9-1.8-1-2.8l-1-6.8
	c-0.1-1-0.1-2,0.2-3c0.3-1,0.7-1.8,1.2-2.6c0.6-0.8,1.3-1.4,2.1-1.9c0.8-0.5,1.8-0.8,2.8-1c1-0.2,2-0.1,3,0.2c1,0.3,1.8,0.7,2.6,1.2
	c0.8,0.6,1.4,1.3,1.9,2.1c0.5,0.8,0.9,1.8,1,2.8c0.1,0.3,0,0.6-0.2,0.9c-0.2,0.3-0.5,0.5-0.8,0.5c-0.4,0-0.7,0-0.9-0.2
	s-0.4-0.5-0.5-0.8c-0.1-0.7-0.3-1.3-0.7-1.9c-0.4-0.6-0.8-1-1.3-1.4s-1.1-0.7-1.7-0.8c-0.6-0.2-1.3-0.2-2-0.1
	c-0.7,0.1-1.3,0.3-1.9,0.7s-1,0.8-1.4,1.3c-0.4,0.5-0.7,1.1-0.8,1.7s-0.2,1.3-0.1,2l1,6.9c0.1,0.7,0.3,1.3,0.7,1.9
	c0.4,0.6,0.8,1,1.3,1.4c0.5,0.4,1.1,0.7,1.7,0.8s1.3,0.2,2,0.1s1.3-0.3,1.9-0.7s1-0.8,1.4-1.3s0.7-1.1,0.8-1.7s0.2-1.3,0.1-2
	c-0.1-0.3,0-0.7,0.2-0.9c0.2-0.3,0.5-0.4,0.8-0.5c0.3-0.1,0.6,0,0.9,0.2s0.4,0.5,0.5,0.8c0.1,1,0.1,2-0.2,3c-0.3,1-0.7,1.8-1.2,2.6
	s-1.3,1.4-2.1,1.9C197.8,77,196.9,77.3,195.8,77.4z"/>
<path class="st2" d="M206.4,75.8c-0.3-0.1-0.6-0.2-0.8-0.5s-0.3-0.6-0.2-0.9l3.4-20.1c0-0.3,0.2-0.5,0.4-0.7
	c0.2-0.2,0.4-0.3,0.7-0.3s0.5,0,0.8,0.1c0.2,0.1,0.4,0.3,0.6,0.5l6.6,13.4l2.4,4.9c0.2,0.3,0.2,0.6,0.1,0.9s-0.3,0.6-0.6,0.7
	c-0.1,0.1-0.1,0.1-0.2,0.1c-0.1,0-0.1,0-0.2,0c-0.3,0-0.5,0-0.8-0.1c-0.2-0.1-0.4-0.3-0.6-0.6l-2-4.1l-4.2,0.6
	c-0.4,0.1-0.7,0-0.9-0.2c-0.3-0.2-0.4-0.5-0.5-0.8c-0.1-0.3,0-0.7,0.2-0.9c0.2-0.3,0.5-0.4,0.8-0.5l3.4-0.5l-4.1-8.4l-2.7,16.3
	c-0.1,0.3-0.2,0.6-0.5,0.8C207.1,75.8,206.8,75.9,206.4,75.8z"/>
<path class="st2" d="M233,69.3c0.4-0.3,0.8-0.6,1-0.9c0.3-0.4,0.5-0.8,0.6-1.2s0.1-0.9,0.1-1.4c-0.1-0.5-0.2-0.9-0.5-1.3
	s-0.6-0.8-0.9-1c-0.4-0.3-0.8-0.5-1.2-0.6s-0.9-0.2-1.4-0.1l-1.4,0.2l-1.4,0.2c-0.8,0.1-1.6,0.1-2.4-0.1c-0.8-0.2-1.5-0.5-2.1-1
	c-0.6-0.5-1.1-1-1.6-1.7c-0.4-0.7-0.7-1.5-0.8-2.3c-0.1-0.8-0.1-1.6,0.1-2.4c0.2-0.8,0.6-1.5,1-2.1c0.5-0.6,1-1.1,1.7-1.6
	s1.4-0.7,2.3-0.8l1.4-0.2l1.4-0.2c0.8-0.1,1.6-0.1,2.4,0.1c0.8,0.2,1.5,0.5,2.1,1s1.1,1,1.6,1.7c0.4,0.7,0.7,1.5,0.8,2.3
	c0.1,0.3,0,0.7-0.2,0.9c-0.2,0.3-0.5,0.4-0.8,0.5c-0.4,0-0.7,0-0.9-0.2c-0.3-0.2-0.4-0.5-0.5-0.8c-0.1-0.5-0.2-0.9-0.5-1.3
	s-0.6-0.8-0.9-1c-0.4-0.3-0.8-0.5-1.2-0.6s-0.9-0.2-1.4-0.1l-1.4,0.2l-1.4,0.2c-0.5,0.1-0.9,0.2-1.4,0.5c-0.4,0.2-0.7,0.6-1,0.9
	c-0.3,0.4-0.5,0.8-0.6,1.3s-0.1,0.9-0.1,1.4c0.1,0.5,0.2,1,0.5,1.3c0.2,0.4,0.6,0.7,0.9,1c0.4,0.3,0.8,0.5,1.2,0.6
	c0.4,0.1,0.9,0.2,1.4,0.1l1.4-0.2l1.4-0.2c0.8-0.1,1.6-0.1,2.4,0.1c0.8,0.2,1.5,0.5,2.1,1s1.1,1,1.6,1.7c0.4,0.7,0.7,1.5,0.8,2.3
	c0.1,0.8,0.1,1.6-0.1,2.4s-0.6,1.5-1,2.1c-0.5,0.6-1,1.2-1.7,1.6c-0.7,0.4-1.4,0.7-2.3,0.8l-1.4,0.2l-1.4,0.2
	c-0.8,0.1-1.6,0.1-2.4-0.1c-0.8-0.2-1.5-0.6-2.1-1c-0.6-0.5-1.1-1.1-1.6-1.7c-0.4-0.7-0.7-1.4-0.8-2.3c-0.1-0.3,0-0.7,0.2-0.9
	c0.2-0.3,0.5-0.4,0.8-0.5c0.4-0.1,0.7,0,0.9,0.2c0.3,0.2,0.4,0.5,0.5,0.8c0.1,0.5,0.2,0.9,0.5,1.3c0.2,0.4,0.6,0.8,0.9,1
	s0.8,0.5,1.2,0.6c0.4,0.1,0.9,0.2,1.4,0.1l1.4-0.2l1.4-0.2C232.1,69.7,232.6,69.5,233,69.3z"/>
<path class="st2" d="M240.8,70.8c-0.3-0.1-0.6-0.2-0.8-0.5s-0.3-0.6-0.2-0.9l3.4-20.1c0-0.3,0.2-0.5,0.4-0.7
	c0.2-0.2,0.4-0.3,0.7-0.3s0.5,0,0.8,0.1c0.2,0.1,0.4,0.3,0.6,0.5l6.6,13.4l2.4,4.9c0.2,0.3,0.2,0.6,0.1,0.9s-0.3,0.6-0.6,0.7
	c-0.1,0.1-0.1,0.1-0.2,0.1c-0.1,0-0.1,0-0.2,0c-0.3,0-0.5,0-0.8-0.1c-0.2-0.1-0.4-0.3-0.6-0.6l-2-4.1l-4.2,0.6
	c-0.4,0.1-0.7,0-0.9-0.2c-0.3-0.2-0.4-0.5-0.5-0.8c-0.1-0.3,0-0.7,0.2-0.9c0.2-0.3,0.5-0.4,0.8-0.5l3.4-0.5l-4.1-8.4l-2.7,16.3
	c-0.1,0.3-0.2,0.6-0.5,0.8C241.4,70.8,241.1,70.9,240.8,70.8z"/>
<path class="st0" d="M14,7.8h-0.8l-2.9,10.7h6.6L14,7.8z M17.5,2.9l4.7,16.4V32h-4.9v-8.6H9.9V32H5V19.3L9.7,2.9H17.5z"/>
<g>
	<path class="st0" d="M38,18.1c0-0.9-0.3-1.6-0.9-2.2c-0.6-0.6-1.3-0.8-2.1-0.8c-0.9,0-1.6,0.3-2.2,0.8c-0.6,0.5-0.9,1.3-0.9,2.2
		v7.1c0,0.9,0.3,1.6,0.9,2.2c0.6,0.5,1.3,0.8,2.1,0.8s1.6-0.3,2.1-0.8c0.6-0.5,0.9-1.3,0.9-2.2V18.1z M27.2,11.2h4.2l0.2,1.9
		c0.1-0.2,0.3-0.4,0.4-0.6s0.7-0.6,1.5-1s1.6-0.6,2.6-0.6c1.8,0,3.3,0.7,4.7,2s2,3,2,5.1v7.4c0,2-0.7,3.6-2,5
		c-1.3,1.4-2.9,2.1-4.7,2.1c-0.9,0-1.7-0.1-2.4-0.4c-0.7-0.3-1.1-0.5-1.4-0.8L32,30.8v8.6h-4.7C27.2,39.5,27.2,11.2,27.2,11.2z"/>
	<path class="st0" d="M57.6,15.6c-0.5-0.3-1.3-0.5-2.2-0.5c-1,0-1.8,0.4-2.4,1.2s-0.9,2-0.9,3.6v12h-4.8V11.2h4.5l0.1,2.3
		c0-0.1,0.1-0.2,0.2-0.3c0.1-0.1,0.2-0.3,0.5-0.6c0.2-0.3,0.5-0.6,0.8-0.8c0.3-0.2,0.7-0.4,1.1-0.6c0.5-0.2,1-0.3,1.4-0.3
		c0.5,0,1.1,0.1,1.6,0.2s0.9,0.2,1.1,0.3l0.4,0.2L57.6,15.6z"/>
	<path class="st0" d="M64.4,19.3h6v-1.3c0-0.9-0.3-1.5-0.8-2.1c-0.6-0.5-1.3-0.8-2.1-0.8c-0.8,0-1.5,0.3-2.1,0.8s-0.9,1.2-0.9,2.1
		V19.3z M75.1,25.9c-0.2,2-1.1,3.5-2.5,4.7c-1.5,1.2-3.2,1.8-5.2,1.8c-2.2,0-4.1-0.7-5.5-2s-2.1-3-2.1-5.1v-7.4c0-2,0.7-3.7,2.2-5
		c1.4-1.4,3.3-2.1,5.5-2.1s4.1,0.7,5.5,2c1.4,1.3,2.1,3,2.1,5v5.4H64.4v2c0,0.9,0.3,1.6,0.8,2.2c0.6,0.5,1.3,0.8,2.1,0.8
		c0.8,0,1.4-0.2,1.9-0.6c0.5-0.4,0.8-0.8,0.9-1.2l0.2-0.6L75.1,25.9L75.1,25.9z"/>
	<path class="st0" d="M90.5,18.5c0-1-0.3-1.8-0.8-2.4c-0.5-0.6-1.3-0.9-2.2-0.9c-0.9,0-1.6,0.3-2.2,0.9c-0.6,0.6-0.9,1.4-0.9,2.4V32
		h-4.7V11.2h4.4l0.3,2c0.1-0.2,0.3-0.4,0.5-0.6c0.2-0.3,0.7-0.6,1.5-1s1.6-0.6,2.6-0.6c1.9,0,3.4,0.7,4.6,2s1.8,3.2,1.8,5.5V32h-4.7
		L90.5,18.5L90.5,18.5z"/>
	<path class="st0" d="M104.4,25.2c0,0.9,0.3,1.6,0.9,2.2c0.6,0.5,1.3,0.8,2.1,0.8c0.9,0,1.6-0.3,2.2-0.8c0.6-0.5,0.9-1.3,0.9-2.2v-7
		c0-1-0.3-1.9-0.8-2.4c-0.6-0.6-1.3-0.8-2.2-0.8c-0.8,0-1.6,0.3-2.1,0.8c-0.6,0.5-0.9,1.3-0.9,2.2V25.2z M115.2,32H111l-0.2-1.8
		c-0.1,0.2-0.3,0.4-0.5,0.6c-0.2,0.2-0.8,0.5-1.6,0.9c-0.8,0.4-1.7,0.6-2.6,0.6c-1.8,0-3.3-0.7-4.6-2c-1.3-1.3-1.9-3-1.9-5.1v-7.4
		c0-2,0.7-3.6,2-5s2.9-2.1,4.7-2.1c0.9,0,1.7,0.2,2.4,0.5c0.7,0.3,1.1,0.6,1.3,0.9l0.3,0.5V2.9h4.7L115.2,32L115.2,32z"/>
</g>
<path class="st0" d="M120.4,11.2h4.9V32h-4.9V11.2z M120.2,2.9h5.2v5.3h-5.2V2.9z"/>
<polygon class="st0" points="135.2,27.6 143.9,27.6 143.9,32 129.6,32 129.6,27.9 138.1,15.6 130.1,15.6 130.1,11.2 143.7,11.2 
	143.7,15.4 "/>
<path class="st0" d="M156.3,27.4c0.7-0.6,1.1-1.3,1.1-2v-2.4l-3.3,0.3c-0.9,0.1-1.7,0.4-2.2,0.8c-0.5,0.5-0.8,1.1-0.8,1.9
	c0,0.6,0.2,1.2,0.7,1.6s1.1,0.7,1.9,0.7C154.7,28.3,155.6,28,156.3,27.4 M157.7,29.8c-0.1,0.2-0.3,0.4-0.6,0.7
	c-0.2,0.3-0.8,0.6-1.8,1.1s-1.9,0.7-3,0.7c-1.9,0-3.4-0.6-4.4-1.8c-1.1-1.2-1.6-2.7-1.6-4.5c0-1.9,0.7-3.5,2.1-4.6s3.2-1.8,5.4-1.9
	l3.6-0.3v-1.4c0-0.8-0.2-1.5-0.7-2c-0.5-0.5-1.1-0.8-1.9-0.8c-0.7,0-1.4,0.2-1.9,0.6c-0.5,0.4-0.8,1-0.9,1.7h-4.7
	c0-1.8,0.7-3.4,2.1-4.7s3.1-1.9,5.1-1.9c2.3,0,4.2,0.7,5.5,2s2,3,2,5.1V32h-4.2L157.7,29.8z"/>
<path class="st0" d="M175.4,17.2c0-0.6-0.2-1.1-0.7-1.6c-0.4-0.4-1-0.6-1.6-0.6c-0.7,0-1.3,0.2-1.7,0.6c-0.4,0.4-0.7,0.9-0.7,1.6
	v3.1c0,0.6,0.2,1.1,0.7,1.6s1,0.6,1.7,0.6c0.6,0,1.2-0.2,1.6-0.6c0.4-0.4,0.7-1,0.7-1.6V17.2z M170.7,27.6v-1.5
	c-1.4-0.5-2.5-1.3-3.4-2.4c-0.9-1.1-1.3-2.3-1.3-3.7v-2.5c0-1.8,0.7-3.4,2.1-4.8s3-2,4.9-2c1.3,0,2.3,0.2,3.1,0.8
	c0.4-0.6,0.7-1,1-1.2s0.8-0.5,1.5-0.8c0.7-0.2,1.5-0.4,2.5-0.4v3.9c-0.9,0-1.6,0.3-2.1,1c0.7,0.9,1.1,2.1,1.1,3.5v2.5
	c0,1.4-0.4,2.7-1.3,3.8s-2,1.9-3.5,2.3c0,0.8,0.2,1.2,0.5,1.5l3.3,2.1c1.8,1.1,2.8,2.6,2.8,4.4c0,1.3-0.5,2.4-1.4,3.3
	c-0.9,0.9-2,1.5-3.2,1.9s-2.5,0.5-3.9,0.5c-2.3,0-4.2-0.5-5.8-1.4c-1.6-0.9-2.4-2.4-2.4-4.3v-0.6h4.7V34c0,0.5,0.3,1,0.9,1.4
	c0.6,0.4,1.5,0.6,2.6,0.6c1.1,0,2-0.2,2.7-0.5c0.7-0.3,1-0.7,1-1.2c0-0.4-0.2-0.8-0.7-1.1l-3.8-2.3C171.4,30,170.7,29,170.7,27.6"/>
<path class="st0" d="M188.4,19.3h6v-1.3c0-0.9-0.3-1.5-0.9-2.1c-0.6-0.5-1.3-0.8-2.1-0.8c-0.8,0-1.5,0.3-2.1,0.8s-0.9,1.2-0.9,2.1
	L188.4,19.3L188.4,19.3z M199.2,25.9c-0.2,2-1.1,3.5-2.5,4.7c-1.5,1.2-3.2,1.8-5.2,1.8c-2.2,0-4.1-0.7-5.5-2c-1.4-1.4-2.1-3-2.1-5.1
	v-7.4c0-2,0.7-3.7,2.2-5c1.4-1.4,3.3-2.1,5.5-2.1s4.1,0.7,5.5,2c1.4,1.3,2.1,3,2.1,5v5.4h-10.6v2c0,0.9,0.3,1.6,0.9,2.2
	c0.6,0.5,1.3,0.8,2.1,0.8c0.8,0,1.4-0.2,1.9-0.6c0.5-0.4,0.8-0.8,0.9-1.2l0.2-0.6L199.2,25.9L199.2,25.9z"/>
<path class="st0" d="M223.7,18.1c0-0.8-0.2-1.5-0.7-2c-0.4-0.5-1-0.8-1.6-0.8c-0.8,0-1.5,0.3-2.1,0.9c-0.6,0.6-0.8,1.3-0.8,2.2V32
	h-4.7V18.1c0-0.8-0.2-1.5-0.7-2c-0.4-0.5-1-0.8-1.7-0.8c-0.8,0-1.4,0.3-2,0.9c-0.6,0.6-0.9,1.3-0.9,2.2V32h-4.7V11.2h4.4l0.2,2
	c0.1-0.2,0.3-0.4,0.5-0.6c0.2-0.3,0.7-0.6,1.5-1.1c0.8-0.4,1.6-0.7,2.4-0.7c0.8,0,1.5,0.2,2.1,0.5s1.1,0.7,1.4,1.1l0.4,0.5
	c0.2-0.2,0.4-0.4,0.7-0.6c0.3-0.2,0.8-0.5,1.7-0.9c0.9-0.4,1.7-0.6,2.6-0.6c1.9,0,3.6,0.7,4.8,2c1.3,1.3,1.9,3,1.9,5.1V32h-4.7
	L223.7,18.1L223.7,18.1z"/>
<g>
	<path class="st0" d="M23.1,59.9c0,2.3-0.8,4.2-2.5,5.8c-1.7,1.6-3.7,2.4-6.1,2.4s-4.4-0.8-6.1-2.4s-2.5-3.5-2.5-5.8V46.4
		c0-2.2,0.8-4.1,2.5-5.7s3.7-2.4,6-2.4c1.5,0,2.8,0.3,4,0.8c1.1,0.5,2,1.2,2.7,2.1c0.6,0.9,1.1,1.8,1.4,2.7s0.5,1.9,0.5,2.8h-5
		c0-1-0.3-1.9-0.9-2.6c-0.6-0.8-1.4-1.1-2.5-1.1c-1,0-1.8,0.3-2.5,1s-1,1.4-1,2.3v13.8c0,1,0.3,1.8,1,2.4s1.5,0.9,2.4,0.9
		s1.8-0.3,2.6-0.9c0.7-0.6,1.1-1.5,1.1-2.6v-1.2h5L23.1,59.9L23.1,59.9z"/>
	<path class="st0" d="M38.8,51.4c-0.5-0.3-1.3-0.5-2.2-0.5c-1,0-1.8,0.4-2.4,1.2c-0.6,0.8-0.9,2-0.9,3.6v12h-4.8V46.9H33l0.1,2.3
		c0-0.1,0.1-0.2,0.2-0.3c0.1-0.1,0.2-0.3,0.5-0.6c0.2-0.3,0.5-0.6,0.8-0.8c0.3-0.2,0.7-0.5,1.1-0.6c0.5-0.2,1-0.3,1.4-0.3
		c0.5,0,1.1,0.1,1.6,0.2c0.5,0.1,0.9,0.2,1.1,0.3l0.4,0.2L38.8,51.4z"/>
	<path class="st0" d="M43.4,47h4.9v20.8h-4.9V47z M43.2,38.6h5.2V44h-5.2V38.6z"/>
	<path class="st0" d="M63.4,63.1c0.7-0.6,1.1-1.3,1.1-2v-2.4l-3.3,0.3c-0.9,0.1-1.7,0.3-2.2,0.8s-0.8,1.1-0.8,1.9
		c0,0.6,0.2,1.2,0.7,1.6S60,64,60.8,64C61.8,64,62.7,63.7,63.4,63.1 M64.8,65.5c-0.1,0.2-0.3,0.4-0.6,0.7s-0.8,0.7-1.8,1.1
		s-1.9,0.7-3,0.7c-1.9,0-3.3-0.6-4.5-1.8c-1.1-1.2-1.7-2.7-1.7-4.5c0-1.9,0.7-3.5,2.1-4.6c1.4-1.1,3.2-1.8,5.4-1.9l3.6-0.3v-1.4
		c0-0.8-0.2-1.5-0.7-2c-0.5-0.5-1.1-0.8-1.8-0.8c-0.7,0-1.4,0.2-1.9,0.6c-0.5,0.4-0.8,1-0.9,1.7h-4.7c0-1.8,0.7-3.4,2.1-4.7
		c1.4-1.3,3.1-1.9,5.2-1.9c2.3,0,4.2,0.7,5.5,2s2,3,2,5.1v14.1h-4.2L64.8,65.5z"/>
	<path class="st0" d="M73.1,47h2.7v-5.4h4.8V47h6.4v4.4h-6.4v10.6c0,0.6,0.2,1,0.5,1.4c0.4,0.3,0.8,0.5,1.3,0.5s0.9-0.2,1.3-0.5
		s0.5-0.8,0.5-1.4v-0.5h4.4v0.3c0,1.9-0.6,3.5-1.8,4.7s-2.7,1.8-4.5,1.8c-2,0-3.6-0.6-4.7-1.8s-1.8-3-1.8-5.2v-9.8h-2.7L73.1,47
		L73.1,47z"/>
	<path class="st0" d="M92.9,47h4.9v20.8h-4.9V47z M92.8,38.6H98V44h-5.2V38.6z"/>
	<polygon class="st0" points="108.1,54.9 110.8,63.5 111.2,63.5 113.9,54.9 113.9,47 118.7,47 118.7,55.1 114.5,67.7 107.5,67.7 
		103.3,55.1 103.3,47 108.1,47 	"/>
	<path class="st0" d="M132,63.1c0.7-0.6,1.1-1.3,1.1-2v-2.4l-3.3,0.3c-0.9,0.1-1.7,0.4-2.2,0.8s-0.8,1.1-0.8,1.9
		c0,0.6,0.2,1.2,0.7,1.6s1.1,0.7,1.9,0.7C130.4,64,131.3,63.7,132,63.1 M133.4,65.5c-0.1,0.2-0.3,0.4-0.6,0.7s-0.8,0.7-1.8,1.1
		s-1.9,0.7-3,0.7c-1.9,0-3.3-0.6-4.4-1.8c-1.1-1.2-1.7-2.7-1.7-4.5c0-1.9,0.7-3.5,2.1-4.6c1.4-1.1,3.2-1.8,5.4-1.9l3.6-0.3v-1.4
		c0-0.8-0.2-1.5-0.7-2s-1.1-0.8-1.9-0.8c-0.7,0-1.4,0.2-1.9,0.6c-0.5,0.4-0.8,1-0.9,1.7h-4.7c0-1.8,0.7-3.4,2.1-4.7
		c1.4-1.3,3.1-1.9,5.1-1.9c2.3,0,4.2,0.7,5.5,2s2,3,2,5.1v14.1h-4.2L133.4,65.5z"/>
</g>
</svg>
