<?xml version="1.0" encoding="utf-8"?>
<!-- Generator: Adobe Illustrator 24.1.0, SVG Export Plug-In . SVG Version: 6.00 Build 0)  -->
<svg version="1.1" id="Layer_1" xmlns="http://www.w3.org/2000/svg" xmlns:xlink="http://www.w3.org/1999/xlink" x="0px" y="0px"
	 viewBox="0 0 600 170" style="enable-background:new 0 0 600 170;" xml:space="preserve">
<style type="text/css">
	.st0{fill:#FFFFFF;}
</style>
<g>
	<path class="st0" d="M191.66,7.47c0-0.81-0.3-1.5-0.89-2.08c-0.59-0.58-1.3-0.88-2.13-0.88h-4.02v11.22h4.02
		c0.83,0,1.53-0.29,2.13-0.86c0.59-0.57,0.89-1.26,0.89-2.06V7.47z M195.92,28.71h-3.6l-4.1-9.94h-3.6v9.94h-3.25V1.43h7.39
		c1.73,0,3.19,0.59,4.39,1.77c1.2,1.18,1.8,2.62,1.8,4.31v5.18c0,1.25-0.31,2.36-0.93,3.33c-0.62,0.97-1.48,1.71-2.59,2.2
		L195.92,28.71z"/>
	<path class="st0" d="M208.8,17.13v-1.6c0-1.12-0.35-2.05-1.06-2.8c-0.71-0.75-1.62-1.13-2.73-1.13s-2.02,0.38-2.73,1.13
		c-0.71,0.75-1.06,1.69-1.06,2.8v1.6H208.8z M211.77,22.71c-0.05,1.92-0.69,3.47-1.91,4.64c-1.22,1.17-2.83,1.75-4.81,1.75
		c-2.04,0-3.68-0.63-4.93-1.89c-1.25-1.26-1.87-2.84-1.87-4.73v-6.94c0-1.92,0.62-3.52,1.87-4.79c1.25-1.27,2.89-1.91,4.93-1.91
		c1.99,0,3.6,0.64,4.85,1.93s1.88,2.88,1.88,4.77v4.4h-10.56v2.53c0,1.12,0.35,2.04,1.06,2.77c0.71,0.73,1.62,1.09,2.73,1.09
		c1.13,0,2.04-0.32,2.73-0.95c0.68-0.64,1.05-1.53,1.1-2.67H211.77z"/>
	<path class="st0" d="M218.7,22.24c0,1.06,0.35,2,1.06,2.8c0.71,0.81,1.62,1.21,2.73,1.21c1.19,0,2.13-0.41,2.84-1.23
		c0.71-0.82,1.06-1.75,1.06-2.79v-6.55c0-1.04-0.36-1.97-1.08-2.79c-0.72-0.82-1.66-1.23-2.82-1.23c-1.06,0-1.95,0.39-2.69,1.17
		c-0.74,0.78-1.1,1.73-1.1,2.84V22.24z M229.41,28.71h-2.78l-0.12-1.91c-0.1,0.16-0.26,0.36-0.46,0.6c-0.21,0.25-0.7,0.58-1.49,0.99
		c-0.79,0.42-1.64,0.62-2.57,0.62c-1.78,0-3.27-0.6-4.49-1.79c-1.21-1.19-1.82-2.68-1.82-4.44v-7.64c0-1.74,0.61-3.21,1.84-4.42
		c1.23-1.21,2.74-1.81,4.54-1.81c0.93,0,1.75,0.19,2.48,0.58c0.72,0.39,1.21,0.78,1.47,1.17l0.39,0.58V1.43h3.02V28.71z"/>
	<path class="st0" d="M244.26,17.13v-1.6c0-1.12-0.35-2.05-1.06-2.8c-0.71-0.75-1.62-1.13-2.73-1.13s-2.02,0.38-2.73,1.13
		c-0.71,0.75-1.06,1.69-1.06,2.8v1.6H244.26z M247.24,22.71c-0.05,1.92-0.69,3.47-1.91,4.64c-1.22,1.17-2.83,1.75-4.81,1.75
		c-2.04,0-3.68-0.63-4.93-1.89c-1.25-1.26-1.87-2.84-1.87-4.73v-6.94c0-1.92,0.62-3.52,1.87-4.79c1.25-1.27,2.89-1.91,4.93-1.91
		c1.99,0,3.6,0.64,4.85,1.93s1.88,2.88,1.88,4.77v4.4h-10.56v2.53c0,1.12,0.35,2.04,1.06,2.77c0.71,0.73,1.62,1.09,2.73,1.09
		c1.13,0,2.04-0.32,2.73-0.95c0.68-0.64,1.05-1.53,1.1-2.67H247.24z"/>
	<path class="st0" d="M262.94,25.63h3.52c1.16,0,2.07-0.32,2.73-0.97c0.66-0.65,0.99-1.48,0.99-2.49v-2.81
		c0-0.88-0.29-1.69-0.87-2.42c-0.58-0.73-1.46-1.09-2.65-1.09h-3.71V25.63z M262.94,4.51v8.38h3.91c0.98,0,1.75-0.27,2.32-0.82
		c0.57-0.54,0.85-1.3,0.85-2.26V7.55c0-0.86-0.3-1.58-0.91-2.16c-0.61-0.58-1.42-0.88-2.46-0.88H262.94z M266.46,1.43
		c2.04,0,3.66,0.58,4.87,1.75c1.21,1.17,1.82,2.61,1.82,4.33v2.14c0,1.74-0.73,3.29-2.2,4.64c1.65,1.35,2.48,3.04,2.48,5.07v2.81
		c0,1.95-0.68,3.53-2.05,4.73c-1.37,1.21-3.09,1.81-5.18,1.81h-6.5V1.43H266.46z"/>
	<path class="st0" d="M286.42,11.91c-0.46-0.18-1.02-0.27-1.66-0.27c-1.06,0-1.96,0.42-2.71,1.27c-0.75,0.84-1.12,2.06-1.12,3.64
		v12.16h-3.02V9.23h2.82l0.12,2.34c0.39-0.78,0.97-1.43,1.74-1.95c0.77-0.52,1.62-0.78,2.55-0.78c0.39,0,0.77,0.04,1.14,0.12
		c0.37,0.08,0.65,0.17,0.83,0.27l0.31,0.12L286.42,11.91z"/>
	<path class="st0" d="M296.61,25.08c0.81-0.81,1.22-1.66,1.22-2.57v-3.35l-4.33,0.31c-0.98,0.08-1.8,0.45-2.48,1.11
		c-0.67,0.66-1.01,1.46-1.01,2.4c0,0.94,0.33,1.72,0.99,2.36c0.66,0.64,1.51,0.95,2.57,0.95C294.78,26.29,295.79,25.89,296.61,25.08
		 M297.79,26.49c-0.03,0.08-0.08,0.17-0.15,0.27c-0.08,0.1-0.25,0.3-0.5,0.58c-0.26,0.29-0.55,0.54-0.89,0.76
		c-0.33,0.22-0.8,0.42-1.39,0.6c-0.59,0.18-1.22,0.27-1.9,0.27c-1.68,0-3.09-0.55-4.23-1.64c-1.15-1.09-1.72-2.53-1.72-4.32
		c0-1.69,0.59-3.11,1.78-4.27c1.19-1.16,2.71-1.8,4.56-1.93l4.49-0.31v-1.29c0-1.04-0.31-1.89-0.93-2.55
		c-0.62-0.66-1.46-0.99-2.51-0.99c-0.93,0-1.69,0.25-2.28,0.74c-0.59,0.49-0.95,1.2-1.08,2.1h-3.06c0.18-1.69,0.85-3.06,2.01-4.11
		c1.16-1.05,2.63-1.58,4.41-1.58c2.04,0,3.62,0.6,4.76,1.79c1.13,1.19,1.7,2.7,1.7,4.52v13.56h-2.9L297.79,26.49z"/>
	<path class="st0" d="M314.45,14.8c0-0.86-0.31-1.6-0.93-2.24c-0.62-0.64-1.39-0.95-2.32-0.95c-0.83,0-1.52,0.23-2.09,0.7
		c-0.57,0.47-0.85,1.04-0.85,1.71c0,0.6,0.23,1.12,0.7,1.58c0.46,0.45,1.04,0.81,1.74,1.05c0.7,0.25,1.46,0.56,2.28,0.94
		c0.83,0.38,1.59,0.77,2.28,1.19c0.7,0.42,1.28,1.03,1.74,1.85c0.46,0.82,0.7,1.77,0.7,2.86c0,1.56-0.62,2.88-1.86,3.97
		c-1.24,1.09-2.76,1.64-4.56,1.64c-2.04,0-3.67-0.6-4.89-1.79c-1.22-1.19-1.84-2.62-1.84-4.29v-0.47h2.98v0.35
		c0,0.99,0.34,1.81,1.02,2.45c0.68,0.65,1.58,0.97,2.69,0.97c0.95,0,1.75-0.28,2.4-0.84c0.64-0.56,0.97-1.25,0.97-2.08
		c0-0.75-0.32-1.39-0.97-1.91c-0.64-0.52-1.43-0.95-2.36-1.31s-1.86-0.73-2.78-1.15c-0.93-0.42-1.71-1.03-2.36-1.83
		c-0.65-0.8-0.97-1.79-0.97-2.96c0-1.61,0.6-2.92,1.8-3.92c1.2-1,2.66-1.5,4.39-1.5c1.91,0,3.42,0.62,4.52,1.87
		c1.11,1.25,1.66,2.61,1.66,4.09H314.45z"/>
	<path class="st0" d="M321.84,9.23h3.02v19.48h-3.02V9.23z M321.61,2.56h3.48v3.47h-3.48V2.56z"/>
	<rect x="329.77" y="1.43" class="st0" width="3.02" height="27.27"/>
	<path class="st0" d="M347.64,17.13v-1.6c0-1.12-0.35-2.05-1.06-2.8c-0.71-0.75-1.62-1.13-2.73-1.13c-1.11,0-2.02,0.38-2.73,1.13
		c-0.71,0.75-1.06,1.69-1.06,2.8v1.6H347.64z M350.61,22.71c-0.05,1.92-0.69,3.47-1.91,4.64c-1.22,1.17-2.83,1.75-4.81,1.75
		c-2.04,0-3.68-0.63-4.93-1.89c-1.25-1.26-1.88-2.84-1.88-4.73v-6.94c0-1.92,0.62-3.52,1.88-4.79c1.25-1.27,2.89-1.91,4.93-1.91
		c1.99,0,3.6,0.64,4.85,1.93c1.25,1.29,1.88,2.88,1.88,4.77v4.4h-10.56v2.53c0,1.12,0.35,2.04,1.06,2.77
		c0.71,0.73,1.62,1.09,2.73,1.09c1.13,0,2.04-0.32,2.73-0.95c0.68-0.64,1.05-1.53,1.1-2.67H350.61z"/>
	<path class="st0" d="M355.14,9.23h3.02v19.48h-3.02V9.23z M354.91,2.56h3.48v3.47h-3.48V2.56z"/>
	<path class="st0" d="M371.54,11.91c-0.46-0.18-1.02-0.27-1.66-0.27c-1.06,0-1.96,0.42-2.71,1.27c-0.75,0.84-1.12,2.06-1.12,3.64
		v12.16h-3.02V9.23h2.82l0.12,2.34c0.39-0.78,0.97-1.43,1.74-1.95c0.77-0.52,1.62-0.78,2.55-0.78c0.39,0,0.77,0.04,1.14,0.12
		c0.37,0.08,0.65,0.17,0.83,0.27l0.31,0.12L371.54,11.91z"/>
	<path class="st0" d="M381.73,25.08c0.81-0.81,1.22-1.66,1.22-2.57v-3.35l-4.33,0.31c-0.98,0.08-1.8,0.45-2.48,1.11
		c-0.67,0.66-1.01,1.46-1.01,2.4c0,0.94,0.33,1.72,0.99,2.36c0.66,0.64,1.51,0.95,2.57,0.95C379.9,26.29,380.91,25.89,381.73,25.08
		 M382.91,26.49c-0.03,0.08-0.08,0.17-0.15,0.27c-0.08,0.1-0.25,0.3-0.5,0.58c-0.26,0.29-0.55,0.54-0.89,0.76
		c-0.33,0.22-0.8,0.42-1.39,0.6c-0.59,0.18-1.22,0.27-1.9,0.27c-1.68,0-3.09-0.55-4.23-1.64c-1.15-1.09-1.72-2.53-1.72-4.32
		c0-1.69,0.59-3.11,1.78-4.27c1.19-1.16,2.71-1.8,4.56-1.93l4.49-0.31v-1.29c0-1.04-0.31-1.89-0.93-2.55
		c-0.62-0.66-1.46-0.99-2.51-0.99c-0.93,0-1.69,0.25-2.28,0.74c-0.59,0.49-0.95,1.2-1.08,2.1h-3.06c0.18-1.69,0.85-3.06,2.01-4.11
		c1.16-1.05,2.63-1.58,4.41-1.58c2.04,0,3.62,0.6,4.76,1.79c1.13,1.19,1.7,2.7,1.7,4.52v13.56h-2.9L382.91,26.49z"/>
	<path class="st0" d="M400.85,22.24c0,1.06,0.35,2,1.06,2.8c0.71,0.81,1.62,1.21,2.73,1.21c1.19,0,2.13-0.41,2.84-1.23
		c0.71-0.82,1.06-1.75,1.06-2.79v-6.55c0-1.04-0.36-1.97-1.08-2.79c-0.72-0.82-1.66-1.23-2.82-1.23c-1.06,0-1.95,0.39-2.69,1.17
		c-0.74,0.78-1.1,1.73-1.1,2.84V22.24z M411.56,28.71h-2.78l-0.12-1.91c-0.1,0.16-0.26,0.36-0.46,0.6c-0.21,0.25-0.7,0.58-1.49,0.99
		c-0.79,0.42-1.64,0.62-2.57,0.62c-1.78,0-3.27-0.6-4.49-1.79c-1.21-1.19-1.82-2.68-1.82-4.44v-7.64c0-1.74,0.61-3.21,1.84-4.42
		c1.22-1.21,2.74-1.81,4.54-1.81c0.93,0,1.75,0.19,2.48,0.58c0.72,0.39,1.21,0.78,1.47,1.17l0.39,0.58V1.43h3.02V28.71z"/>
	<path class="st0" d="M426.41,17.13v-1.6c0-1.12-0.35-2.05-1.06-2.8c-0.71-0.75-1.62-1.13-2.73-1.13c-1.11,0-2.02,0.38-2.73,1.13
		c-0.71,0.75-1.06,1.69-1.06,2.8v1.6H426.41z M429.39,22.71c-0.05,1.92-0.69,3.47-1.91,4.64c-1.22,1.17-2.83,1.75-4.82,1.75
		c-2.04,0-3.68-0.63-4.93-1.89c-1.25-1.26-1.87-2.84-1.87-4.73v-6.94c0-1.92,0.62-3.52,1.87-4.79c1.25-1.27,2.89-1.91,4.93-1.91
		c1.99,0,3.6,0.64,4.85,1.93c1.25,1.29,1.88,2.88,1.88,4.77v4.4h-10.56v2.53c0,1.12,0.35,2.04,1.06,2.77
		c0.71,0.73,1.62,1.09,2.73,1.09c1.13,0,2.04-0.32,2.73-0.95c0.68-0.64,1.05-1.53,1.1-2.67H429.39z"/>
	<path class="st0" d="M17.34,50.93h-1.58l-5.54,20.58h12.67L17.34,50.93z M24.07,41.6l9.03,31.43v24.41h-9.34V80.84H9.34v16.59H0
		V73.03L9.03,41.6H24.07z"/>
	<path class="st0" d="M63.34,70.71c0-1.75-0.55-3.16-1.66-4.23c-1.11-1.06-2.45-1.59-4.04-1.59c-1.69,0-3.09,0.53-4.2,1.59
		c-1.11,1.06-1.66,2.47-1.66,4.23v13.64c0,1.76,0.55,3.16,1.66,4.23c1.11,1.06,2.48,1.6,4.12,1.6c1.64,0,3.01-0.53,4.12-1.6
		c1.11-1.06,1.66-2.47,1.66-4.23V70.71z M42.68,57.55h8.16l0.32,3.67c0.21-0.32,0.5-0.72,0.87-1.2c0.37-0.48,1.31-1.12,2.81-1.91
		c1.5-0.8,3.15-1.2,4.95-1.2c3.43,0,6.43,1.26,8.99,3.79c2.56,2.53,3.84,5.78,3.84,9.77v14.12c0,3.78-1.29,6.98-3.88,9.61
		c-2.59,2.63-5.6,3.95-9.03,3.95c-1.74,0-3.27-0.25-4.59-0.76c-1.32-0.51-2.19-1-2.61-1.48l-0.71-0.72v16.59h-9.1V57.55z"/>
	<path class="st0" d="M101.11,66.01c-1.06-0.59-2.45-0.88-4.2-0.88c-1.85,0-3.36,0.78-4.55,2.35c-1.19,1.57-1.78,3.87-1.78,6.9
		v23.05h-9.18V57.55h8.63l0.16,4.47c0.05-0.16,0.16-0.35,0.32-0.56c0.16-0.21,0.48-0.61,0.95-1.2c0.48-0.58,0.99-1.1,1.54-1.55
		c0.55-0.45,1.28-0.86,2.18-1.24c0.9-0.37,1.82-0.56,2.77-0.56c1.06,0,2.07,0.11,3.05,0.32c0.98,0.21,1.68,0.43,2.1,0.64l0.71,0.32
		L101.11,66.01z"/>
	<path class="st0" d="M114.09,72.95h11.48V70.4c0-1.65-0.54-2.98-1.62-3.99c-1.08-1.01-2.44-1.52-4.08-1.52
		c-1.53,0-2.88,0.52-4.04,1.55c-1.16,1.04-1.74,2.35-1.74,3.95V72.95z M134.68,85.71c-0.42,3.78-2.03,6.81-4.83,9.09
		c-2.8,2.29-6.15,3.43-10.06,3.43c-4.33,0-7.87-1.3-10.61-3.91c-2.74-2.61-4.12-5.85-4.12-9.73V70.4c0-3.83,1.39-7.06,4.16-9.69
		c2.77-2.63,6.32-3.95,10.65-3.95c4.33,0,7.85,1.29,10.57,3.87c2.72,2.58,4.08,5.78,4.08,9.61v10.29h-20.43v3.91
		c0,1.7,0.54,3.08,1.62,4.15c1.08,1.06,2.44,1.6,4.08,1.6c1.48,0,2.69-0.37,3.64-1.12c0.95-0.74,1.53-1.49,1.74-2.23l0.32-1.12
		H134.68z"/>
	<path class="st0" d="M164.29,71.43c0-1.91-0.51-3.43-1.54-4.55c-1.03-1.12-2.42-1.68-4.16-1.68c-1.69,0-3.11,0.57-4.28,1.72
		c-1.16,1.14-1.74,2.67-1.74,4.59v25.92h-9.1V57.55h8.55l0.55,3.83c0.21-0.32,0.51-0.73,0.91-1.24c0.4-0.51,1.33-1.17,2.81-1.99
		c1.48-0.82,3.11-1.24,4.91-1.24c3.64,0,6.58,1.29,8.83,3.87c2.24,2.58,3.36,6.08,3.36,10.49v26.16h-9.1V71.43z"/>
	<path class="st0" d="M191.05,84.35c0,1.76,0.55,3.16,1.66,4.23c1.11,1.06,2.45,1.6,4.04,1.6c1.69,0,3.09-0.53,4.2-1.6
		c1.11-1.06,1.66-2.47,1.66-4.23v-13.4c0-2.02-0.54-3.56-1.62-4.63c-1.08-1.06-2.47-1.6-4.16-1.6c-1.64,0-3.01,0.53-4.12,1.6
		c-1.11,1.06-1.66,2.47-1.66,4.23V84.35z M211.72,97.44h-8.08l-0.32-3.43c-0.21,0.32-0.54,0.7-0.99,1.16
		c-0.45,0.45-1.45,1.05-3.01,1.79c-1.56,0.74-3.21,1.12-4.95,1.12c-3.43,0-6.39-1.26-8.87-3.79c-2.48-2.53-3.72-5.78-3.72-9.77V70.4
		c0-3.78,1.31-6.98,3.92-9.61c2.61-2.63,5.63-3.95,9.07-3.95c1.79,0,3.34,0.31,4.63,0.92c1.29,0.61,2.15,1.21,2.57,1.79l0.63,0.88
		V41.6h9.11V97.44z"/>
	<path class="st0" d="M221.61,57.55h9.34v39.88h-9.34V57.55z M221.3,41.6h10.06v10.21H221.3V41.6z"/>
	<polygon class="st0" points="250.12,89.06 266.82,89.06 266.82,97.44 239.27,97.44 239.27,89.54 255.66,65.93 240.22,65.93 
		240.22,57.55 266.51,57.55 266.51,65.61 	"/>
	<path class="st0" d="M290.57,88.5c1.37-1.22,2.06-2.53,2.06-3.91v-4.63l-6.33,0.56c-1.79,0.16-3.19,0.69-4.2,1.6
		c-1,0.9-1.5,2.13-1.5,3.67c0,1.17,0.42,2.22,1.27,3.15c0.84,0.93,2.08,1.4,3.72,1.4C287.54,90.34,289.2,89.72,290.57,88.5
		 M293.35,93.21c-0.26,0.37-0.63,0.82-1.11,1.36c-0.48,0.53-1.6,1.25-3.36,2.15c-1.77,0.9-3.71,1.36-5.82,1.36
		c-3.59,0-6.44-1.13-8.55-3.39c-2.11-2.26-3.17-5.12-3.17-8.58c0-3.72,1.32-6.66,3.96-8.81c2.64-2.15,6.1-3.39,10.37-3.71l6.97-0.56
		v-2.71c0-1.6-0.45-2.88-1.35-3.87c-0.9-0.98-2.08-1.48-3.56-1.48c-1.43,0-2.63,0.41-3.6,1.24c-0.98,0.82-1.54,1.9-1.7,3.23h-8.95
		c0-3.56,1.32-6.57,3.96-9.01c2.64-2.45,5.94-3.67,9.9-3.67c4.49,0,8.01,1.29,10.57,3.87c2.56,2.58,3.84,5.84,3.84,9.77v27.04h-8
		L293.35,93.21z"/>
	<path class="st0" d="M327.31,69.04c0-1.17-0.44-2.17-1.31-2.99c-0.87-0.82-1.91-1.24-3.13-1.24c-1.32,0-2.41,0.41-3.29,1.24
		c-0.87,0.82-1.31,1.82-1.31,2.99v5.98c0,1.17,0.44,2.17,1.31,2.99c0.87,0.82,1.97,1.24,3.29,1.24c1.21,0,2.26-0.41,3.13-1.24
		c0.87-0.82,1.31-1.82,1.31-2.99V69.04z M318.37,88.98v-2.79c-2.64-0.9-4.82-2.42-6.53-4.55c-1.72-2.13-2.57-4.49-2.57-7.1v-4.79
		c0-3.56,1.32-6.62,3.96-9.17c2.64-2.55,5.78-3.83,9.42-3.83c2.43,0,4.41,0.48,5.94,1.44c0.74-1.06,1.39-1.86,1.94-2.39
		c0.55-0.53,1.49-1.04,2.81-1.52c1.32-0.48,2.93-0.72,4.83-0.72v7.5c-1.69,0-3.01,0.64-3.96,1.91c1.37,1.7,2.06,3.96,2.06,6.78v4.79
		c0,2.77-0.84,5.21-2.53,7.34c-1.69,2.13-3.91,3.62-6.65,4.47c0,1.44,0.34,2.37,1.03,2.79l6.41,3.99c3.54,2.18,5.3,5,5.3,8.46
		c0,2.5-0.88,4.61-2.65,6.34c-1.77,1.73-3.83,2.92-6.18,3.59c-2.35,0.66-4.84,1-7.48,1c-4.38,0-8.12-0.9-11.2-2.71
		c-3.09-1.81-4.63-4.57-4.63-8.3v-1.2h9.03v0.96c0,1.01,0.61,1.89,1.82,2.63c1.21,0.74,2.88,1.12,4.99,1.12c2.16,0,3.88-0.33,5.15-1
		c1.27-0.67,1.9-1.42,1.9-2.27c0-0.8-0.48-1.49-1.43-2.07l-7.21-4.47C319.55,93.66,318.37,91.59,318.37,88.98"/>
	<path class="st0" d="M352.41,72.95h11.48V70.4c0-1.65-0.54-2.98-1.62-3.99c-1.08-1.01-2.44-1.52-4.08-1.52
		c-1.53,0-2.88,0.52-4.04,1.55s-1.74,2.35-1.74,3.95V72.95z M373,85.71c-0.42,3.78-2.03,6.81-4.83,9.09
		c-2.8,2.29-6.15,3.43-10.06,3.43c-4.33,0-7.87-1.3-10.61-3.91c-2.74-2.61-4.12-5.85-4.12-9.73V70.4c0-3.83,1.39-7.06,4.16-9.69
		c2.77-2.63,6.32-3.95,10.65-3.95c4.33,0,7.85,1.29,10.57,3.87c2.72,2.58,4.08,5.78,4.08,9.61v10.29h-20.43v3.91
		c0,1.7,0.54,3.08,1.62,4.15c1.08,1.06,2.44,1.6,4.08,1.6c1.48,0,2.69-0.37,3.64-1.12c0.95-0.74,1.53-1.49,1.74-2.23l0.32-1.12H373z
		"/>
	<path class="st0" d="M420.11,70.79c0-1.54-0.42-2.83-1.27-3.87s-1.9-1.56-3.17-1.56c-1.58,0-2.92,0.56-4,1.67
		c-1.08,1.12-1.62,2.5-1.62,4.15v26.24h-9.11V70.79c0-1.54-0.42-2.84-1.27-3.91c-0.84-1.06-1.93-1.6-3.25-1.6
		c-1.48,0-2.77,0.58-3.88,1.75c-1.11,1.17-1.66,2.58-1.66,4.23v26.16h-9.11V57.55h8.55l0.4,3.91c0.21-0.32,0.53-0.73,0.95-1.24
		c0.42-0.51,1.36-1.18,2.81-2.03c1.45-0.85,3-1.28,4.63-1.28c1.48,0,2.85,0.33,4.12,1c1.27,0.66,2.14,1.34,2.61,2.03l0.79,0.96
		c0.32-0.32,0.74-0.69,1.27-1.12c0.53-0.42,1.62-1.01,3.29-1.75c1.66-0.74,3.34-1.12,5.03-1.12c3.75,0,6.85,1.28,9.3,3.83
		c2.45,2.55,3.68,5.85,3.68,9.89v26.8h-9.11V70.79z"/>
	<path class="st0" d="M208.16,151.04c0,4.36-1.61,8.08-4.83,11.17c-3.22,3.08-7.13,4.63-11.72,4.63c-4.59,0-8.5-1.54-11.72-4.63
		c-3.22-3.08-4.83-6.78-4.83-11.09v-26.08c0-4.25,1.62-7.92,4.87-11.01c3.25-3.08,7.11-4.63,11.6-4.63c2.85,0,5.38,0.52,7.6,1.56
		c2.22,1.04,3.92,2.39,5.11,4.07c1.19,1.68,2.07,3.4,2.65,5.18c0.58,1.78,0.87,3.6,0.87,5.46h-9.66c0-1.91-0.58-3.59-1.74-5.03
		c-1.16-1.44-2.74-2.15-4.75-2.15c-1.9,0-3.48,0.61-4.75,1.83c-1.27,1.22-1.9,2.71-1.9,4.47v26.56c0,1.97,0.65,3.52,1.94,4.67
		c1.29,1.14,2.86,1.72,4.71,1.72c1.85,0,3.48-0.59,4.91-1.75c1.42-1.17,2.14-2.82,2.14-4.95v-2.39h9.5V151.04z"/>
	<path class="st0" d="M238.16,134.61c-1.06-0.58-2.45-0.88-4.2-0.88c-1.85,0-3.37,0.78-4.55,2.35c-1.19,1.57-1.78,3.87-1.78,6.9
		v23.05h-9.18v-39.88h8.63l0.16,4.47c0.05-0.16,0.16-0.35,0.32-0.56c0.16-0.21,0.48-0.61,0.95-1.2c0.48-0.59,0.99-1.1,1.54-1.56
		c0.55-0.45,1.28-0.86,2.18-1.24c0.9-0.37,1.82-0.56,2.77-0.56c1.06,0,2.07,0.11,3.05,0.32c0.98,0.21,1.68,0.43,2.1,0.64l0.71,0.32
		L238.16,134.61z"/>
	<path class="st0" d="M247.11,126.15h9.34v39.88h-9.34V126.15z M246.79,110.2h10.06v10.21h-10.06V110.2z"/>
	<path class="st0" d="M285.51,157.1c1.37-1.22,2.06-2.53,2.06-3.91v-4.63l-6.33,0.56c-1.79,0.16-3.19,0.69-4.2,1.6
		c-1,0.9-1.5,2.13-1.5,3.67c0,1.17,0.42,2.22,1.27,3.15c0.84,0.93,2.08,1.4,3.72,1.4C282.48,158.94,284.14,158.32,285.51,157.1
		 M288.28,161.81c-0.26,0.37-0.63,0.82-1.11,1.36c-0.48,0.53-1.6,1.25-3.36,2.15c-1.77,0.9-3.71,1.36-5.82,1.36
		c-3.59,0-6.44-1.13-8.55-3.39c-2.11-2.26-3.17-5.12-3.17-8.58c0-3.72,1.32-6.66,3.96-8.81c2.64-2.15,6.1-3.39,10.37-3.71l6.97-0.56
		v-2.71c0-1.6-0.45-2.89-1.35-3.87c-0.9-0.98-2.08-1.48-3.56-1.48c-1.43,0-2.63,0.41-3.6,1.24c-0.98,0.82-1.54,1.9-1.7,3.23h-8.95
		c0-3.56,1.32-6.57,3.96-9.01c2.64-2.45,5.94-3.67,9.9-3.67c4.49,0,8.01,1.29,10.57,3.87c2.56,2.58,3.84,5.84,3.84,9.77v27.04h-8
		L288.28,161.81z"/>
	<path class="st0" d="M304.12,126.15h5.23v-10.37h9.26v10.37h12.35v8.38h-12.35v20.34c0,1.12,0.34,1.99,1.03,2.63
		c0.69,0.64,1.53,0.96,2.53,0.96c1,0,1.81-0.31,2.42-0.92c0.61-0.61,0.91-1.5,0.91-2.67v-1.04h8.39v0.64c0,3.67-1.17,6.65-3.52,8.93
		c-2.35,2.29-5.21,3.43-8.59,3.43c-3.8,0-6.82-1.17-9.07-3.51c-2.24-2.34-3.37-5.69-3.37-10.05v-18.74h-5.23V126.15z"/>
	<path class="st0" d="M342.2,126.15h9.34v39.88h-9.34V126.15z M341.88,110.2h10.06v10.21h-10.06V110.2z"/>
	<polygon class="st0" points="371.42,141.47 376.48,157.98 377.28,157.98 382.42,141.47 382.42,126.15 391.69,126.15 391.69,141.79 
		383.61,166.03 370.23,166.03 362.15,141.79 362.15,126.15 371.42,126.15 	"/>
	<path class="st0" d="M417.26,157.1c1.37-1.22,2.06-2.53,2.06-3.91v-4.63l-6.33,0.56c-1.79,0.16-3.19,0.69-4.2,1.6
		c-1,0.9-1.5,2.13-1.5,3.67c0,1.17,0.42,2.22,1.27,3.15c0.84,0.93,2.08,1.4,3.72,1.4C414.22,158.94,415.89,158.32,417.26,157.1
		 M420.03,161.81c-0.26,0.37-0.63,0.82-1.11,1.36c-0.48,0.53-1.6,1.25-3.36,2.15c-1.77,0.9-3.71,1.36-5.82,1.36
		c-3.59,0-6.44-1.13-8.55-3.39c-2.11-2.26-3.17-5.12-3.17-8.58c0-3.72,1.32-6.66,3.96-8.81c2.64-2.15,6.1-3.39,10.37-3.71l6.97-0.56
		v-2.71c0-1.6-0.45-2.89-1.35-3.87c-0.9-0.98-2.08-1.48-3.56-1.48c-1.43,0-2.63,0.41-3.6,1.24c-0.98,0.82-1.54,1.9-1.7,3.23h-8.95
		c0-3.56,1.32-6.57,3.96-9.01c2.64-2.45,5.94-3.67,9.9-3.67c4.49,0,8.01,1.29,10.57,3.87c2.56,2.58,3.84,5.84,3.84,9.77v27.04h-8
		L420.03,161.81z"/>
	<path class="st0" d="M600,82.46c0-24.32-10.16-47.16-28.6-64.31c-2.68-2.49-5.5-4.79-8.4-6.93L560.07,14l-7.53,7.16
		c3.21,2.22,6.29,4.67,9.2,7.38c15.53,14.43,24.08,33.58,24.08,53.91c0,20.34-8.55,39.48-24.07,53.91
		c-21.77,20.23-57.18,20.23-78.95,0c-10.63-9.88-16.42-22.94-16.3-36.77c0.12-13.35,5.84-25.79,16.12-35.05
		c12.57-10.66,31.3-10.74,42.67-0.17c5.51,5.12,8.54,11.88,8.54,19.04c0,12.04-8.7,19.21-8.7,19.21l10.28,9.78
		c8.13-7.78,12.6-18.05,12.6-28.99c0-11.15-4.73-21.5-13.06-29.43C517.1,37,488.4,40.08,473.15,53.97
		c-13.46,12.27-20.69,28.12-20.85,45.5c-0.16,17.6,7.43,34.84,20.82,47.29c13.55,12.6,31.34,18.89,49.14,18.89
		c17.79,0,35.58-6.3,49.13-18.88c0,0,0,0,0,0c0,0,0,0,0.01,0h0C589.84,129.61,600,106.78,600,82.46"/>
	<path class="st0" d="M543.89,47.68c10.52,9.63,16.31,22.38,16.31,35.91c0,13.53-5.79,26.28-16.31,35.91
		c-11.9,10.9-31.27,10.9-43.17,0c-5.56-5.09-8.62-11.81-8.62-18.91c0-13.4,10.64-20.52,10.64-20.52l-10.37-9.86
		c0,0-14.46,10.65-14.46,30.39c0,11.13,4.7,21.57,13.23,29.38c8.59,7.86,19.88,11.8,31.17,11.8c11.28,0,22.57-3.93,31.16-11.8
		c13.49-12.35,20.92-28.82,20.92-46.37s-7.43-34.02-20.92-46.37c-26.64-24.38-69.49-25.08-97.06-2.09l10.37,9.86
		C489.07,27.47,522.78,28.36,543.89,47.68"/>
</g>
</svg>
