<?xml version="1.0" encoding="utf-8"?>
<!-- Generator: Adobe Illustrator 24.1.0, SVG Export Plug-In . SVG Version: 6.00 Build 0)  -->
<svg version="1.1" id="Layer_1" xmlns="http://www.w3.org/2000/svg" xmlns:xlink="http://www.w3.org/1999/xlink" x="0px" y="0px"
	 viewBox="0 0 270 120" style="enable-background:new 0 0 270 120;" xml:space="preserve">
<style type="text/css">
	.st0{fill:#EB0C8B;}
	.st1{fill:#FFCC07;}
</style>
<g>
	<path class="st0" d="M15.43,108.1c1.69,0.71,2.57,2.09,2.57,4.02c0,2.9-2.07,4.52-4.97,4.52H7.34c-0.19,0-0.31-0.12-0.31-0.31
		V100.3c0-0.19,0.12-0.31,0.31-0.31h5.52c3.02,0,4.95,1.55,4.95,4.35c0,1.76-0.86,2.97-2.38,3.62
		C15.34,108,15.34,108.05,15.43,108.1z M8.72,101.58v5.66c0,0.07,0.05,0.12,0.12,0.12h4.02c2,0,3.28-1.12,3.28-2.88
		c0-1.83-1.28-3.02-3.28-3.02H8.84C8.77,101.46,8.72,101.51,8.72,101.58z M16.31,111.98c0-1.93-1.31-3.19-3.38-3.19H8.84
		c-0.07,0-0.12,0.05-0.12,0.12v6.11c0,0.07,0.05,0.12,0.12,0.12h4.19C15.03,115.14,16.31,113.9,16.31,111.98z"/>
	<path class="st0" d="M27.78,104.77c0.17,0.07,0.21,0.21,0.17,0.38l-0.24,1.05c-0.05,0.19-0.17,0.26-0.38,0.19
		c-0.29-0.09-0.67-0.14-1.17-0.12c-1.64,0.05-2.85,1.33-2.85,3.12v6.95c0,0.19-0.12,0.31-0.31,0.31h-1.07
		c-0.19,0-0.31-0.12-0.31-0.31v-11.42c0-0.19,0.12-0.31,0.31-0.31H23c0.19,0,0.31,0.12,0.31,0.31v1.33c0,0.12,0.07,0.14,0.12,0.05
		c0.64-1.09,1.67-1.81,3.04-1.81C27.07,104.48,27.47,104.6,27.78,104.77z"/>
	<path class="st0" d="M30.02,101.2c0-0.71,0.52-1.21,1.28-1.21c0.76,0,1.28,0.5,1.28,1.21c0,0.74-0.52,1.24-1.28,1.24
		C30.54,102.44,30.02,101.94,30.02,101.2z M30.47,116.33v-11.42c0-0.19,0.12-0.31,0.31-0.31h1.07c0.19,0,0.31,0.12,0.31,0.31v11.42
		c0,0.19-0.12,0.31-0.31,0.31h-1.07C30.59,116.64,30.47,116.52,30.47,116.33z"/>
	<path class="st0" d="M45.24,108.55v7.78c0,0.19-0.12,0.31-0.31,0.31h-1.07c-0.19,0-0.31-0.12-0.31-0.31v-7.45
		c0-1.76-1.14-2.97-2.83-2.97c-1.62,0-2.76,1-2.93,2.5v7.92c0,0.19-0.12,0.31-0.31,0.31h-1.07c-0.19,0-0.31-0.12-0.31-0.31v-11.42
		c0-0.19,0.12-0.31,0.31-0.31h1.07c0.19,0,0.31,0.12,0.31,0.31v0.88c0,0.1,0.07,0.17,0.12,0.07c0.69-0.95,1.81-1.43,3.19-1.43
		C43.6,104.44,45.24,106.05,45.24,108.55z"/>
	<path class="st0" d="M48.86,113.52c-0.24-0.81-0.31-1.74-0.31-2.95c0-1.31,0.12-2.16,0.31-2.9c0.57-1.95,2.31-3.26,4.62-3.26
		c2.4,0,4.19,1.38,4.66,3.07c0.07,0.24,0.12,0.48,0.14,0.64c0.02,0.21-0.1,0.33-0.29,0.36l-1.05,0.12
		c-0.19,0.02-0.31-0.05-0.36-0.26c0-0.1-0.02-0.19-0.05-0.29c-0.26-1.17-1.43-2.16-3.07-2.16c-1.62,0-2.71,0.95-3.02,2.31
		c-0.12,0.5-0.21,1.33-0.21,2.4c0,1.17,0.1,1.95,0.21,2.43c0.31,1.38,1.4,2.33,3.02,2.33c1.59,0,2.78-0.93,3.04-2.14
		c0.02-0.05,0.02-0.09,0.02-0.12l0.02-0.02c0.02-0.21,0.17-0.29,0.36-0.26l1.02,0.17c0.19,0.02,0.31,0.14,0.29,0.36
		c-0.02,0.09-0.05,0.24-0.1,0.4c-0.48,1.83-2.33,3.09-4.66,3.09C51.14,116.83,49.45,115.52,48.86,113.52z"/>
	<path class="st0" d="M69.96,108.41v7.92c0,0.19-0.12,0.31-0.31,0.31h-1.07c-0.19,0-0.31-0.12-0.31-0.31v-0.86
		c0-0.09-0.07-0.14-0.14-0.05c-0.88,0.93-2.21,1.4-3.71,1.4c-2.02,0-3.93-0.98-3.93-3.47c0-2.38,1.81-3.85,4.9-3.85h2.76
		c0.07,0,0.12-0.05,0.12-0.12v-0.88c0-1.55-0.81-2.62-2.78-2.62c-1.5,0-2.47,0.62-2.74,1.62c-0.05,0.19-0.17,0.26-0.36,0.24
		l-1.17-0.14c-0.19-0.02-0.31-0.09-0.29-0.26c0.31-1.74,2.07-2.93,4.52-2.93C68.37,104.41,69.96,106.05,69.96,108.41z M68.27,112.79
		v-1.83c0-0.07-0.05-0.12-0.12-0.12h-2.5c-2.07,0-3.47,0.88-3.47,2.43c0,1.45,1.17,2.12,2.62,2.12
		C66.56,115.38,68.27,114.45,68.27,112.79z"/>
	<path class="st0" d="M79.62,104.77c0.17,0.07,0.21,0.21,0.17,0.38l-0.24,1.05c-0.05,0.19-0.17,0.26-0.38,0.19
		c-0.29-0.09-0.67-0.14-1.17-0.12c-1.64,0.05-2.85,1.33-2.85,3.12v6.95c0,0.19-0.12,0.31-0.31,0.31h-1.07
		c-0.19,0-0.31-0.12-0.31-0.31v-11.42c0-0.19,0.12-0.31,0.31-0.31h1.07c0.19,0,0.31,0.12,0.31,0.31v1.33c0,0.12,0.07,0.14,0.12,0.05
		c0.64-1.09,1.67-1.81,3.04-1.81C78.91,104.48,79.31,104.6,79.62,104.77z"/>
	<path class="st0" d="M86.81,113.52c-0.24-0.81-0.31-1.74-0.31-2.95c0-1.31,0.12-2.16,0.31-2.9c0.57-1.95,2.31-3.26,4.62-3.26
		c2.4,0,4.19,1.38,4.66,3.07c0.07,0.24,0.12,0.48,0.14,0.64c0.02,0.21-0.1,0.33-0.29,0.36l-1.05,0.12
		c-0.19,0.02-0.31-0.05-0.36-0.26c0-0.1-0.02-0.19-0.05-0.29c-0.26-1.17-1.43-2.16-3.07-2.16c-1.62,0-2.71,0.95-3.02,2.31
		c-0.12,0.5-0.21,1.33-0.21,2.4c0,1.17,0.1,1.95,0.21,2.43c0.31,1.38,1.4,2.33,3.02,2.33c1.59,0,2.78-0.93,3.04-2.14
		c0.02-0.05,0.02-0.09,0.02-0.12l0.02-0.02c0.02-0.21,0.17-0.29,0.36-0.26l1.02,0.17c0.19,0.02,0.31,0.14,0.29,0.36
		c-0.02,0.09-0.05,0.24-0.1,0.4c-0.48,1.83-2.33,3.09-4.66,3.09C89.09,116.83,87.4,115.52,86.81,113.52z"/>
	<path class="st0" d="M99.13,113.52c-0.24-0.79-0.33-1.78-0.33-2.93c0-1.17,0.1-2.14,0.31-2.9c0.62-2.02,2.33-3.28,4.69-3.28
		c2.28,0,4.02,1.26,4.61,3.26c0.24,0.81,0.33,1.81,0.33,2.93c0,1.14-0.09,2.14-0.33,2.93c-0.62,2.05-2.35,3.31-4.61,3.31
		C101.46,116.83,99.75,115.57,99.13,113.52z M106.84,113.02c0.14-0.57,0.19-1.45,0.19-2.4c0-1.05-0.05-1.88-0.19-2.4
		c-0.36-1.4-1.5-2.33-3.09-2.33c-1.55,0-2.66,0.93-3.04,2.33c-0.14,0.52-0.19,1.4-0.19,2.4c0,1.02,0.05,1.88,0.19,2.4
		c0.36,1.43,1.5,2.33,3.09,2.33C105.32,115.36,106.46,114.45,106.84,113.02z"/>
	<path class="st0" d="M121.3,108.55v7.78c0,0.19-0.12,0.31-0.31,0.31h-1.07c-0.19,0-0.31-0.12-0.31-0.31v-7.45
		c0-1.76-1.14-2.97-2.83-2.97c-1.62,0-2.76,1-2.93,2.5v7.92c0,0.19-0.12,0.31-0.31,0.31h-1.07c-0.19,0-0.31-0.12-0.31-0.31v-11.42
		c0-0.19,0.12-0.31,0.31-0.31h1.07c0.19,0,0.31,0.12,0.31,0.31v0.88c0,0.1,0.07,0.17,0.12,0.07c0.69-0.95,1.81-1.43,3.19-1.43
		C119.66,104.44,121.3,106.05,121.3,108.55z"/>
	<path class="st0" d="M132.72,113.59c0.07-0.17,0.24-0.24,0.4-0.14l0.69,0.38c0.17,0.09,0.24,0.24,0.14,0.4
		c-0.74,1.55-2.28,2.59-4.42,2.59c-2.26,0-3.81-1.14-4.45-2.97c-0.33-0.88-0.45-1.95-0.45-3.28c0-1.21,0.02-2.02,0.21-2.76
		c0.52-2.05,2.24-3.4,4.59-3.4c2.83,0,4.33,1.59,4.76,4.09c0.12,0.64,0.14,1.26,0.14,2.38c0,0.19-0.12,0.31-0.31,0.31h-7.61
		c-0.07,0-0.12,0.05-0.12,0.12c0,0.79,0.05,1.38,0.14,1.74c0.33,1.38,1.5,2.33,3.24,2.33C131.15,115.36,132.18,114.67,132.72,113.59
		z M126.49,108.12c-0.12,0.38-0.17,0.93-0.19,1.62c0,0.07,0.05,0.12,0.12,0.12h6.11c0.07,0,0.12-0.05,0.12-0.12
		c-0.02-0.64-0.07-1.19-0.14-1.52c-0.33-1.38-1.43-2.33-3.07-2.33C127.82,105.89,126.8,106.82,126.49,108.12z"/>
	<path class="st0" d="M137.62,113.52c-0.24-0.81-0.31-1.74-0.31-2.95c0-1.31,0.12-2.16,0.31-2.9c0.57-1.95,2.31-3.26,4.61-3.26
		c2.4,0,4.19,1.38,4.66,3.07c0.07,0.24,0.12,0.48,0.14,0.64c0.02,0.21-0.09,0.33-0.29,0.36l-1.05,0.12
		c-0.19,0.02-0.31-0.05-0.36-0.26c0-0.1-0.02-0.19-0.05-0.29c-0.26-1.17-1.43-2.16-3.07-2.16c-1.62,0-2.71,0.95-3.02,2.31
		c-0.12,0.5-0.21,1.33-0.21,2.4c0,1.17,0.09,1.95,0.21,2.43c0.31,1.38,1.4,2.33,3.02,2.33c1.59,0,2.78-0.93,3.04-2.14
		c0.02-0.05,0.02-0.09,0.02-0.12l0.02-0.02c0.02-0.21,0.17-0.29,0.36-0.26l1.02,0.17c0.19,0.02,0.31,0.14,0.29,0.36
		c-0.02,0.09-0.05,0.24-0.09,0.4c-0.48,1.83-2.33,3.09-4.66,3.09C139.91,116.83,138.22,115.52,137.62,113.52z"/>
	<path class="st0" d="M155.16,106.01h-2.59c-0.07,0-0.12,0.05-0.12,0.12v6.95c0,1.55,0.69,2.07,2.12,2.07h0.52
		c0.19,0,0.31,0.12,0.31,0.31v0.83c0,0.19-0.09,0.31-0.31,0.33h-0.81c-2.07,0-3.47-0.55-3.47-3.02v-7.47c0-0.07-0.05-0.12-0.12-0.12
		h-1.36c-0.19,0-0.31-0.12-0.31-0.31v-0.79c0-0.19,0.12-0.31,0.31-0.31h1.36c0.07,0,0.12-0.05,0.12-0.12v-2.66
		c0-0.19,0.12-0.31,0.31-0.31h1.02c0.19,0,0.31,0.12,0.31,0.31v2.66c0,0.07,0.05,0.12,0.12,0.12h2.59c0.19,0,0.31,0.12,0.31,0.31
		v0.79C155.47,105.89,155.35,106.01,155.16,106.01z"/>
	<path class="st0" d="M167.39,108.41v7.92c0,0.19-0.12,0.31-0.31,0.31h-1.07c-0.19,0-0.31-0.12-0.31-0.31v-0.86
		c0-0.09-0.07-0.14-0.14-0.05c-0.88,0.93-2.21,1.4-3.71,1.4c-2.02,0-3.92-0.98-3.92-3.47c0-2.38,1.81-3.85,4.9-3.85h2.76
		c0.07,0,0.12-0.05,0.12-0.12v-0.88c0-1.55-0.81-2.62-2.78-2.62c-1.5,0-2.47,0.62-2.74,1.62c-0.05,0.19-0.17,0.26-0.36,0.24
		l-1.17-0.14c-0.19-0.02-0.31-0.09-0.29-0.26c0.31-1.74,2.07-2.93,4.52-2.93C165.79,104.41,167.39,106.05,167.39,108.41z
		 M165.7,112.79v-1.83c0-0.07-0.05-0.12-0.12-0.12h-2.5c-2.07,0-3.47,0.88-3.47,2.43c0,1.45,1.17,2.12,2.62,2.12
		C163.98,115.38,165.7,114.45,165.7,112.79z"/>
</g>
<rect x="132.76" y="49.36" transform="matrix(0.9874 -0.1581 0.1581 0.9874 -7.9581 32.1991)" class="st1" width="131.27" height="33.51"/>
<g>
	<path class="st0" d="M155.55,81.66c0.33-0.05,0.64,0.03,0.92,0.24c0.29,0.21,0.46,0.48,0.51,0.83c0.05,0.33-0.04,0.63-0.25,0.91
		c-0.22,0.28-0.49,0.44-0.82,0.49l-11.72,1.71c-0.35,0.05-0.66-0.03-0.94-0.23c-0.28-0.21-0.44-0.47-0.49-0.8l-2.8-19.2
		c-0.05-0.33,0.03-0.63,0.24-0.91c0.21-0.28,0.48-0.44,0.83-0.49l11.72-1.71c0.33-0.05,0.64,0.03,0.92,0.24
		c0.29,0.21,0.45,0.47,0.5,0.8c0.05,0.35-0.03,0.66-0.25,0.94c-0.22,0.28-0.49,0.44-0.82,0.49l-10.5,1.53l2.44,16.71L155.55,81.66z
		 M146.18,75.74c-0.35,0.05-0.66-0.03-0.94-0.23c-0.28-0.21-0.44-0.47-0.49-0.8c-0.05-0.35,0.03-0.66,0.23-0.94
		c0.21-0.28,0.48-0.44,0.83-0.49l6.64-0.97c0.33-0.05,0.63,0.03,0.91,0.24c0.28,0.21,0.44,0.48,0.49,0.83
		c0.05,0.33-0.03,0.63-0.24,0.91c-0.21,0.28-0.47,0.44-0.8,0.49L146.18,75.74z"/>
	<path class="st0" d="M156.91,63.15c-0.04-0.27,0.01-0.53,0.15-0.78c0.14-0.25,0.34-0.43,0.6-0.55c0.26-0.12,0.52-0.14,0.79-0.07
		c0.27,0.07,0.48,0.21,0.65,0.42l8.08,10.08l5.15-12.01c0.12-0.27,0.29-0.48,0.53-0.61c0.23-0.13,0.49-0.18,0.77-0.14
		c0.28,0.04,0.52,0.16,0.71,0.36c0.19,0.2,0.31,0.43,0.35,0.7l2.8,19.17c0.05,0.35-0.03,0.66-0.23,0.94
		c-0.2,0.28-0.48,0.44-0.82,0.49c-0.33,0.05-0.63-0.03-0.91-0.24c-0.28-0.21-0.45-0.48-0.5-0.83l-2.16-14.79l-4.22,9.86
		c-0.09,0.21-0.22,0.38-0.39,0.5c-0.17,0.12-0.36,0.2-0.57,0.23c-0.46,0.07-0.85-0.08-1.16-0.45l-6.48-8.09l2.13,14.62
		c0.05,0.35-0.03,0.66-0.23,0.94c-0.21,0.28-0.47,0.44-0.8,0.49c-0.35,0.05-0.66-0.03-0.94-0.23c-0.28-0.21-0.44-0.48-0.49-0.83
		L156.91,63.15z"/>
	<path class="st0" d="M196.69,78.18c-1.03,0.15-2.02,0.1-2.97-0.16c-0.96-0.26-1.82-0.67-2.58-1.24c-0.76-0.57-1.41-1.28-1.92-2.12
		c-0.52-0.84-0.85-1.78-1-2.8l-1-6.85c-0.15-1.03-0.1-2.02,0.16-2.97c0.26-0.96,0.67-1.82,1.24-2.58c0.57-0.76,1.28-1.41,2.12-1.92
		c0.84-0.52,1.78-0.85,2.8-1c1.03-0.15,2.02-0.1,2.97,0.16c0.96,0.26,1.82,0.67,2.58,1.24c0.76,0.57,1.41,1.28,1.92,2.12
		c0.52,0.84,0.85,1.78,1,2.8c0.05,0.33-0.03,0.64-0.24,0.92c-0.2,0.29-0.47,0.45-0.8,0.5c-0.35,0.05-0.66-0.03-0.94-0.25
		c-0.28-0.22-0.44-0.49-0.49-0.82c-0.1-0.68-0.32-1.3-0.67-1.86c-0.35-0.56-0.78-1.03-1.29-1.41c-0.51-0.38-1.08-0.66-1.72-0.83
		c-0.64-0.17-1.29-0.21-1.97-0.11c-0.68,0.1-1.3,0.32-1.86,0.67c-0.56,0.35-1.03,0.78-1.41,1.29c-0.38,0.51-0.66,1.08-0.83,1.72
		c-0.17,0.64-0.21,1.29-0.11,1.97l1,6.85c0.1,0.68,0.32,1.3,0.67,1.86c0.35,0.56,0.78,1.03,1.29,1.41c0.51,0.38,1.08,0.66,1.72,0.83
		c0.64,0.17,1.29,0.21,1.97,0.11s1.3-0.32,1.86-0.67c0.56-0.35,1.03-0.78,1.41-1.29s0.66-1.08,0.83-1.72
		c0.17-0.64,0.21-1.29,0.11-1.97c-0.05-0.35,0.03-0.66,0.23-0.94c0.21-0.28,0.48-0.44,0.83-0.49c0.33-0.05,0.63,0.03,0.91,0.24
		c0.28,0.21,0.44,0.48,0.49,0.83c0.15,1.03,0.1,2.02-0.16,2.97c-0.26,0.96-0.67,1.82-1.24,2.58c-0.57,0.76-1.28,1.41-2.12,1.92
		C198.65,77.7,197.72,78.03,196.69,78.18z"/>
	<path class="st0" d="M207.27,76.58c-0.34-0.05-0.61-0.21-0.8-0.49c-0.19-0.28-0.26-0.59-0.21-0.93l3.38-20.1
		c0.04-0.26,0.16-0.49,0.35-0.67c0.19-0.19,0.42-0.3,0.69-0.34c0.27-0.04,0.52,0,0.76,0.13c0.23,0.12,0.42,0.3,0.55,0.54l6.58,13.44
		l2.37,4.87c0.16,0.31,0.19,0.63,0.08,0.95c-0.11,0.32-0.32,0.56-0.64,0.7c-0.05,0.05-0.11,0.08-0.18,0.09
		c-0.07,0.01-0.13,0.02-0.19,0.03c-0.27,0.04-0.52,0-0.76-0.11c-0.23-0.11-0.42-0.3-0.56-0.56l-1.98-4.07l-4.24,0.62
		c-0.35,0.05-0.66-0.03-0.94-0.23c-0.28-0.21-0.44-0.47-0.49-0.8c-0.05-0.35,0.03-0.66,0.23-0.94c0.21-0.28,0.48-0.44,0.83-0.49
		l3.45-0.5l-4.13-8.4l-2.72,16.28c-0.05,0.34-0.22,0.61-0.51,0.8C207.93,76.56,207.61,76.63,207.27,76.58z"/>
	<path class="st0" d="M233.82,70.01c0.41-0.26,0.75-0.57,1.02-0.93c0.27-0.37,0.47-0.78,0.59-1.24c0.12-0.46,0.15-0.93,0.07-1.42
		c-0.07-0.48-0.23-0.93-0.48-1.34s-0.55-0.75-0.92-1.04c-0.37-0.28-0.78-0.48-1.24-0.6c-0.46-0.12-0.93-0.15-1.42-0.07l-1.39,0.2
		l-1.36,0.2c-0.83,0.12-1.64,0.08-2.42-0.14c-0.78-0.21-1.48-0.55-2.1-1.01c-0.62-0.46-1.14-1.04-1.57-1.73
		c-0.43-0.69-0.7-1.45-0.82-2.28c-0.12-0.83-0.08-1.64,0.14-2.42c0.21-0.78,0.55-1.48,1.01-2.1c0.46-0.62,1.04-1.14,1.73-1.57
		c0.69-0.43,1.45-0.7,2.28-0.82l1.36-0.2l1.39-0.2c0.83-0.12,1.63-0.08,2.4,0.14c0.77,0.21,1.47,0.55,2.09,1.01
		c0.62,0.46,1.14,1.04,1.57,1.73c0.43,0.69,0.7,1.45,0.82,2.28c0.05,0.35-0.03,0.66-0.23,0.94c-0.21,0.28-0.47,0.44-0.8,0.49
		c-0.35,0.05-0.66-0.03-0.94-0.23c-0.28-0.21-0.44-0.48-0.49-0.83c-0.07-0.48-0.23-0.93-0.48-1.34c-0.25-0.41-0.55-0.75-0.92-1.04
		c-0.37-0.28-0.78-0.48-1.24-0.6c-0.46-0.12-0.93-0.15-1.42-0.07l-1.39,0.2l-1.36,0.2c-0.5,0.07-0.95,0.23-1.35,0.48
		c-0.4,0.25-0.74,0.56-1.02,0.93c-0.28,0.38-0.48,0.8-0.6,1.26c-0.12,0.46-0.15,0.93-0.07,1.42c0.07,0.5,0.23,0.95,0.48,1.35
		c0.25,0.4,0.56,0.74,0.93,1.02c0.38,0.28,0.79,0.48,1.24,0.6c0.45,0.12,0.93,0.15,1.43,0.07l1.36-0.2l1.39-0.2
		c0.83-0.12,1.63-0.08,2.4,0.14c0.77,0.21,1.47,0.55,2.09,1.01c0.62,0.46,1.14,1.04,1.57,1.73c0.43,0.69,0.7,1.45,0.82,2.28
		c0.12,0.83,0.07,1.63-0.14,2.4s-0.55,1.47-1.01,2.1c-0.46,0.63-1.03,1.16-1.71,1.58c-0.68,0.42-1.43,0.7-2.27,0.82l-1.39,0.2
		l-1.36,0.2c-0.83,0.12-1.64,0.08-2.42-0.14c-0.78-0.21-1.48-0.55-2.1-1.03c-0.62-0.47-1.14-1.05-1.57-1.73
		c-0.42-0.68-0.7-1.43-0.82-2.27c-0.05-0.35,0.03-0.66,0.23-0.94c0.21-0.28,0.47-0.44,0.8-0.49c0.35-0.05,0.66,0.03,0.94,0.23
		c0.28,0.21,0.44,0.48,0.49,0.83c0.07,0.48,0.23,0.93,0.48,1.34c0.25,0.41,0.56,0.75,0.93,1.02c0.37,0.27,0.79,0.47,1.24,0.6
		c0.45,0.13,0.93,0.16,1.43,0.09l1.36-0.2l1.39-0.2C232.97,70.43,233.41,70.27,233.82,70.01z"/>
	<path class="st0" d="M241.65,71.57c-0.34-0.05-0.61-0.21-0.8-0.49c-0.19-0.28-0.26-0.59-0.21-0.93l3.38-20.1
		c0.04-0.26,0.16-0.49,0.35-0.67c0.19-0.19,0.42-0.3,0.69-0.34c0.27-0.04,0.52,0,0.76,0.13c0.23,0.12,0.42,0.3,0.55,0.54l6.58,13.44
		l2.37,4.87c0.16,0.31,0.19,0.63,0.08,0.95c-0.11,0.32-0.32,0.56-0.64,0.7c-0.05,0.05-0.11,0.08-0.18,0.09
		c-0.07,0.01-0.13,0.02-0.19,0.03c-0.27,0.04-0.52,0-0.76-0.11c-0.23-0.11-0.42-0.3-0.56-0.56l-1.98-4.07l-4.24,0.62
		c-0.35,0.05-0.66-0.03-0.94-0.23c-0.28-0.21-0.44-0.47-0.49-0.8c-0.05-0.35,0.03-0.66,0.23-0.94c0.21-0.28,0.48-0.44,0.83-0.49
		l3.45-0.5l-4.13-8.4l-2.72,16.28c-0.05,0.34-0.22,0.61-0.51,0.8C242.3,71.54,241.99,71.61,241.65,71.57z"/>
</g>
<g>
	<path d="M14.88,8.53h-0.82l-2.89,10.71h6.59L14.88,8.53z M18.38,3.68l4.7,16.36v12.71h-4.86v-8.64h-7.5v8.64H5.85V20.04l4.7-16.36
		H18.38z"/>
	<g>
		<path d="M38.83,18.83c0-0.91-0.29-1.65-0.87-2.2c-0.58-0.55-1.28-0.83-2.1-0.83c-0.88,0-1.61,0.28-2.18,0.83
			c-0.58,0.55-0.87,1.29-0.87,2.2v7.1c0,0.91,0.29,1.65,0.87,2.2c0.58,0.55,1.29,0.83,2.14,0.83c0.85,0,1.57-0.28,2.14-0.83
			c0.58-0.55,0.87-1.29,0.87-2.2V18.83z M28.07,11.98h4.25l0.16,1.91c0.11-0.17,0.26-0.37,0.45-0.62c0.19-0.25,0.68-0.58,1.46-1
			c0.78-0.42,1.64-0.62,2.58-0.62c1.79,0,3.35,0.66,4.68,1.97c1.33,1.31,2,3.01,2,5.09v7.35c0,1.97-0.67,3.63-2.02,5
			c-1.35,1.37-2.91,2.06-4.7,2.06c-0.91,0-1.7-0.13-2.39-0.39c-0.69-0.26-1.14-0.52-1.36-0.77l-0.37-0.37v8.64h-4.74V11.98z"/>
		<path d="M58.49,16.38c-0.55-0.3-1.28-0.46-2.18-0.46c-0.96,0-1.75,0.41-2.37,1.23C53.31,17.97,53,19.16,53,20.74v12h-4.78V11.98
			h4.49l0.08,2.33c0.03-0.08,0.08-0.18,0.16-0.29c0.08-0.11,0.25-0.32,0.49-0.62c0.25-0.3,0.52-0.57,0.8-0.81
			c0.29-0.24,0.67-0.45,1.13-0.64c0.47-0.19,0.95-0.29,1.44-0.29c0.55,0,1.08,0.06,1.59,0.17c0.51,0.11,0.87,0.22,1.09,0.33
			l0.37,0.17L58.49,16.38z"/>
		<path d="M65.24,20h5.98v-1.33c0-0.86-0.28-1.55-0.85-2.08c-0.56-0.53-1.27-0.79-2.12-0.79c-0.8,0-1.5,0.27-2.1,0.81
			c-0.6,0.54-0.91,1.23-0.91,2.06V20z M75.96,26.64c-0.22,1.97-1.06,3.54-2.51,4.73c-1.46,1.19-3.2,1.79-5.23,1.79
			c-2.25,0-4.09-0.68-5.52-2.04c-1.43-1.36-2.14-3.04-2.14-5.07v-7.39c0-1.99,0.72-3.67,2.16-5.05c1.44-1.37,3.29-2.06,5.54-2.06
			c2.25,0,4.09,0.67,5.5,2.01c1.42,1.34,2.12,3.01,2.12,5v5.36H65.24v2.03c0,0.89,0.28,1.61,0.85,2.16
			c0.56,0.55,1.27,0.83,2.12,0.83c0.77,0,1.4-0.19,1.9-0.58c0.49-0.39,0.8-0.78,0.91-1.16l0.17-0.58H75.96z"/>
		<path d="M91.38,19.21c0-1-0.27-1.79-0.8-2.37c-0.54-0.58-1.26-0.87-2.16-0.87c-0.88,0-1.62,0.3-2.23,0.89
			c-0.6,0.6-0.91,1.39-0.91,2.39v13.5h-4.74V11.98h4.45l0.29,1.99c0.11-0.17,0.27-0.38,0.47-0.64c0.21-0.26,0.69-0.61,1.46-1.04
			c0.77-0.43,1.62-0.64,2.56-0.64c1.9,0,3.43,0.67,4.6,2.01c1.17,1.34,1.75,3.16,1.75,5.46v13.62h-4.74V19.21z"/>
		<path d="M105.31,25.93c0,0.91,0.29,1.65,0.87,2.2c0.58,0.55,1.28,0.83,2.1,0.83c0.88,0,1.61-0.28,2.18-0.83
			c0.58-0.55,0.87-1.29,0.87-2.2v-6.98c0-1.05-0.28-1.85-0.85-2.41c-0.56-0.55-1.28-0.83-2.16-0.83c-0.85,0-1.57,0.28-2.14,0.83
			c-0.58,0.55-0.87,1.29-0.87,2.2V25.93z M116.06,32.74h-4.2l-0.17-1.79c-0.11,0.17-0.28,0.37-0.52,0.6
			c-0.23,0.24-0.76,0.55-1.57,0.93c-0.81,0.39-1.67,0.58-2.58,0.58c-1.79,0-3.32-0.66-4.62-1.97c-1.29-1.32-1.94-3.01-1.94-5.09
			v-7.35c0-1.97,0.68-3.63,2.04-5c1.36-1.37,2.93-2.06,4.72-2.06c0.93,0,1.74,0.16,2.41,0.48c0.67,0.32,1.12,0.63,1.34,0.93
			l0.33,0.46v-9.8h4.74V32.74z"/>
	</g>
	<path d="M121.22,11.98h4.86v20.76h-4.86V11.98z M121.05,3.68h5.23v5.31h-5.23V3.68z"/>
	<polygon points="136.05,28.38 144.75,28.38 144.75,32.74 130.41,32.74 130.41,28.63 138.94,16.34 130.9,16.34 130.9,11.98 
		144.59,11.98 144.59,16.18 	"/>
	<path d="M157.12,28.09c0.71-0.64,1.07-1.31,1.07-2.03v-2.41l-3.3,0.29c-0.93,0.08-1.66,0.36-2.18,0.83
		c-0.52,0.47-0.78,1.11-0.78,1.91c0,0.61,0.22,1.16,0.66,1.64c0.44,0.48,1.09,0.73,1.94,0.73C155.54,29.05,156.4,28.73,157.12,28.09
		 M158.56,30.54c-0.14,0.19-0.33,0.43-0.58,0.71c-0.25,0.28-0.83,0.65-1.75,1.12c-0.92,0.47-1.93,0.71-3.03,0.71
		c-1.87,0-3.35-0.59-4.45-1.76c-1.1-1.18-1.65-2.66-1.65-4.46c0-1.94,0.69-3.47,2.06-4.59c1.37-1.12,3.17-1.76,5.4-1.93l3.63-0.29
		v-1.41c0-0.83-0.23-1.5-0.7-2.01c-0.47-0.51-1.09-0.77-1.85-0.77c-0.74,0-1.37,0.21-1.88,0.64c-0.51,0.43-0.8,0.99-0.89,1.68h-4.66
		c0-1.85,0.69-3.42,2.06-4.69c1.37-1.27,3.09-1.91,5.15-1.91c2.34,0,4.17,0.67,5.5,2.01c1.33,1.34,2,3.04,2,5.09v14.08h-4.16
		L158.56,30.54z"/>
	<path d="M176.24,17.96c0-0.61-0.23-1.13-0.68-1.56c-0.45-0.43-1-0.64-1.63-0.64c-0.69,0-1.26,0.21-1.71,0.64
		c-0.45,0.43-0.68,0.95-0.68,1.56v3.11c0,0.61,0.23,1.13,0.68,1.56c0.45,0.43,1.02,0.64,1.71,0.64c0.63,0,1.17-0.21,1.63-0.64
		c0.45-0.43,0.68-0.95,0.68-1.56V17.96z M171.58,28.34v-1.45c-1.37-0.47-2.51-1.26-3.4-2.37c-0.89-1.11-1.34-2.34-1.34-3.7v-2.49
		c0-1.85,0.69-3.45,2.06-4.78c1.37-1.33,3.01-1.99,4.9-1.99c1.26,0,2.29,0.25,3.09,0.75c0.38-0.55,0.72-0.97,1.01-1.25
		c0.29-0.28,0.78-0.54,1.46-0.79c0.69-0.25,1.52-0.37,2.51-0.37v3.9c-0.88,0-1.57,0.33-2.06,1c0.71,0.89,1.07,2.06,1.07,3.53v2.49
		c0,1.44-0.44,2.71-1.32,3.82c-0.88,1.11-2.03,1.88-3.46,2.33c0,0.75,0.18,1.23,0.54,1.45l3.34,2.08c1.84,1.13,2.76,2.6,2.76,4.4
		c0,1.3-0.46,2.4-1.38,3.3c-0.92,0.9-1.99,1.52-3.21,1.87c-1.22,0.35-2.52,0.52-3.9,0.52c-2.28,0-4.23-0.47-5.83-1.41
		c-1.61-0.94-2.41-2.38-2.41-4.32v-0.62h4.7v0.5c0,0.53,0.32,0.98,0.95,1.37c0.63,0.39,1.5,0.58,2.6,0.58
		c1.13,0,2.02-0.17,2.68-0.52c0.66-0.35,0.99-0.74,0.99-1.18c0-0.42-0.25-0.78-0.74-1.08l-3.75-2.33
		C172.2,30.78,171.58,29.7,171.58,28.34"/>
	<path d="M189.31,20h5.98v-1.33c0-0.86-0.28-1.55-0.85-2.08c-0.56-0.53-1.27-0.79-2.12-0.79c-0.8,0-1.5,0.27-2.1,0.81
		c-0.6,0.54-0.91,1.23-0.91,2.06V20z M200.02,26.64c-0.22,1.97-1.06,3.54-2.51,4.73c-1.46,1.19-3.2,1.79-5.23,1.79
		c-2.25,0-4.09-0.68-5.52-2.04c-1.43-1.36-2.14-3.04-2.14-5.07v-7.39c0-1.99,0.72-3.67,2.16-5.05c1.44-1.37,3.29-2.06,5.54-2.06
		c2.25,0,4.09,0.67,5.5,2.01c1.42,1.34,2.12,3.01,2.12,5v5.36h-10.63v2.03c0,0.89,0.28,1.61,0.85,2.16
		c0.56,0.55,1.27,0.83,2.12,0.83c0.77,0,1.4-0.19,1.9-0.58c0.49-0.39,0.8-0.78,0.91-1.16l0.17-0.58H200.02z"/>
	<path d="M224.55,18.87c0-0.8-0.22-1.47-0.66-2.01s-0.99-0.81-1.65-0.81c-0.82,0-1.52,0.29-2.08,0.87c-0.56,0.58-0.84,1.3-0.84,2.16
		v13.66h-4.74V18.87c0-0.8-0.22-1.48-0.66-2.03c-0.44-0.55-1-0.83-1.69-0.83c-0.77,0-1.44,0.3-2.02,0.91
		c-0.58,0.61-0.87,1.34-0.87,2.2v13.62h-4.74V11.98h4.45l0.21,2.03c0.11-0.17,0.28-0.38,0.49-0.64c0.22-0.26,0.71-0.62,1.46-1.06
		c0.76-0.44,1.56-0.66,2.41-0.66c0.77,0,1.48,0.17,2.14,0.52c0.66,0.35,1.11,0.7,1.36,1.06l0.41,0.5c0.16-0.17,0.38-0.36,0.66-0.58
		c0.27-0.22,0.84-0.53,1.71-0.91c0.87-0.39,1.74-0.58,2.62-0.58c1.95,0,3.57,0.66,4.84,1.99c1.28,1.33,1.92,3.04,1.92,5.15v13.95
		h-4.74V18.87z"/>
	<g>
		<path d="M23.99,60.65c0,2.27-0.84,4.21-2.51,5.81c-1.68,1.61-3.71,2.41-6.1,2.41s-4.42-0.8-6.1-2.41
			c-1.68-1.61-2.51-3.53-2.51-5.77V47.11c0-2.21,0.84-4.12,2.53-5.73c1.69-1.61,3.7-2.41,6.04-2.41c1.48,0,2.8,0.27,3.96,0.81
			c1.15,0.54,2.04,1.25,2.66,2.12c0.62,0.87,1.08,1.77,1.38,2.7c0.3,0.93,0.45,1.88,0.45,2.84h-5.03c0-1-0.3-1.87-0.91-2.62
			c-0.6-0.75-1.43-1.12-2.47-1.12c-0.99,0-1.81,0.32-2.47,0.96c-0.66,0.64-0.99,1.41-0.99,2.33v13.83c0,1.02,0.34,1.83,1.01,2.43
			c0.67,0.6,1.49,0.89,2.45,0.89c0.96,0,1.81-0.3,2.56-0.91c0.74-0.61,1.11-1.47,1.11-2.57V59.4h4.95V60.65z"/>
		<path d="M39.61,52.09c-0.55-0.3-1.28-0.46-2.18-0.46c-0.96,0-1.75,0.41-2.37,1.22c-0.62,0.82-0.93,2.01-0.93,3.59v12h-4.78V47.69
			h4.49l0.08,2.33c0.03-0.08,0.08-0.18,0.16-0.29c0.08-0.11,0.25-0.32,0.49-0.62c0.25-0.3,0.52-0.57,0.8-0.81
			c0.29-0.24,0.67-0.45,1.13-0.64c0.47-0.19,0.95-0.29,1.44-0.29c0.55,0,1.08,0.06,1.59,0.17c0.51,0.11,0.87,0.22,1.09,0.33
			l0.37,0.17L39.61,52.09z"/>
		<path d="M44.27,47.69h4.86v20.76h-4.86V47.69z M44.1,39.39h5.23v5.31H44.1V39.39z"/>
		<path d="M64.26,63.8c0.71-0.64,1.07-1.32,1.07-2.03v-2.41l-3.3,0.29c-0.93,0.08-1.66,0.36-2.18,0.83
			c-0.52,0.47-0.78,1.11-0.78,1.91c0,0.61,0.22,1.16,0.66,1.64c0.44,0.48,1.08,0.73,1.94,0.73C62.68,64.76,63.55,64.44,64.26,63.8
			 M65.7,66.25c-0.14,0.19-0.33,0.43-0.58,0.71c-0.25,0.28-0.83,0.65-1.75,1.12c-0.92,0.47-1.93,0.71-3.03,0.71
			c-1.87,0-3.35-0.59-4.45-1.76c-1.1-1.18-1.65-2.66-1.65-4.46c0-1.94,0.69-3.47,2.06-4.59c1.37-1.12,3.17-1.76,5.4-1.93l3.63-0.29
			v-1.41c0-0.83-0.23-1.5-0.7-2.01c-0.47-0.51-1.09-0.77-1.85-0.77c-0.74,0-1.37,0.21-1.88,0.64c-0.51,0.43-0.8,0.99-0.89,1.68
			h-4.66c0-1.85,0.69-3.42,2.06-4.69c1.37-1.27,3.09-1.91,5.15-1.91c2.34,0,4.17,0.67,5.5,2.01c1.33,1.34,2,3.04,2,5.09v14.08h-4.16
			L65.7,66.25z"/>
		<path d="M73.95,47.69h2.72v-5.4h4.82v5.4h6.43v4.36h-6.43v10.59c0,0.58,0.18,1.04,0.54,1.37c0.36,0.33,0.8,0.5,1.32,0.5
			c0.52,0,0.94-0.16,1.26-0.48c0.32-0.32,0.47-0.78,0.47-1.39V62.1h4.37v0.33c0,1.91-0.61,3.46-1.83,4.65
			c-1.22,1.19-2.71,1.79-4.47,1.79c-1.98,0-3.55-0.61-4.72-1.83c-1.17-1.22-1.75-2.96-1.75-5.23v-9.76h-2.72V47.69z"/>
		<path d="M93.77,47.69h4.86v20.76h-4.86V47.69z M93.61,39.39h5.23v5.31h-5.23V39.39z"/>
		<polygon points="108.98,55.66 111.62,64.26 112.03,64.26 114.71,55.66 114.71,47.69 119.53,47.69 119.53,55.83 115.33,68.45 
			108.36,68.45 104.16,55.83 104.16,47.69 108.98,47.69 		"/>
		<path d="M132.84,63.8c0.71-0.64,1.07-1.32,1.07-2.03v-2.41l-3.3,0.29c-0.93,0.08-1.66,0.36-2.18,0.83
			c-0.52,0.47-0.78,1.11-0.78,1.91c0,0.61,0.22,1.16,0.66,1.64c0.44,0.48,1.09,0.73,1.94,0.73
			C131.26,64.76,132.13,64.44,132.84,63.8 M134.29,66.25c-0.14,0.19-0.33,0.43-0.58,0.71c-0.25,0.28-0.83,0.65-1.75,1.12
			c-0.92,0.47-1.93,0.71-3.03,0.71c-1.87,0-3.35-0.59-4.45-1.76c-1.1-1.18-1.65-2.66-1.65-4.46c0-1.94,0.69-3.47,2.06-4.59
			c1.37-1.12,3.17-1.76,5.4-1.93l3.63-0.29v-1.41c0-0.83-0.23-1.5-0.7-2.01c-0.47-0.51-1.09-0.77-1.85-0.77
			c-0.74,0-1.37,0.21-1.88,0.64c-0.51,0.43-0.8,0.99-0.89,1.68h-4.66c0-1.85,0.69-3.42,2.06-4.69c1.37-1.27,3.09-1.91,5.15-1.91
			c2.34,0,4.17,0.67,5.5,2.01c1.33,1.34,2,3.04,2,5.09v14.08h-4.16L134.29,66.25z"/>
	</g>
</g>
</svg>
