<?xml version="1.0" encoding="utf-8"?>
<!-- Generator: Adobe Illustrator 24.1.0, SVG Export Plug-In . SVG Version: 6.00 Build 0)  -->
<svg version="1.1" id="Layer_1" xmlns="http://www.w3.org/2000/svg" xmlns:xlink="http://www.w3.org/1999/xlink" x="0px" y="0px"
	 viewBox="0 0 270 120" style="enable-background:new 0 0 270 120;" xml:space="preserve">
<style type="text/css">
	.st0{fill:#FFFFFF;}
	.st1{fill:#FFCC07;}
	.st2{fill:#EB0C8B;}
</style>
<g>
	<path class="st0" d="M15.4,107.8c2.4,1,3.6,2.9,3.6,5.6c0,4-2.9,6.3-6.9,6.3H4.1c-0.3,0-0.4-0.2-0.4-0.4V97c0-0.3,0.2-0.4,0.4-0.4
		h7.7c4.2,0,6.9,2.2,6.9,6.1c0,2.5-1.2,4.1-3.3,5C15.3,107.7,15.3,107.8,15.4,107.8z M6.1,98.8v7.9c0,0.1,0.1,0.2,0.2,0.2h5.6
		c2.8,0,4.6-1.6,4.6-4c0-2.6-1.8-4.2-4.6-4.2H6.2C6.1,98.6,6.1,98.7,6.1,98.8z M16.6,113.2c0-2.7-1.8-4.4-4.7-4.4H6.2
		c-0.1,0-0.2,0.1-0.2,0.2v8.5c0,0.1,0.1,0.2,0.2,0.2h5.8C14.8,117.6,16.6,115.9,16.6,113.2z"/>
	<path class="st0" d="M32.6,103.2c0.2,0.1,0.3,0.3,0.2,0.5l-0.3,1.5c-0.1,0.3-0.2,0.4-0.5,0.3c-0.4-0.1-0.9-0.2-1.6-0.2
		c-2.3,0.1-4,1.9-4,4.3v9.7c0,0.3-0.2,0.4-0.4,0.4h-1.5c-0.3,0-0.4-0.2-0.4-0.4v-15.9c0-0.3,0.2-0.4,0.4-0.4h1.5
		c0.3,0,0.4,0.2,0.4,0.4v1.9c0,0.2,0.1,0.2,0.2,0.1c0.9-1.5,2.3-2.5,4.2-2.5C31.6,102.8,32.2,103,32.6,103.2z"/>
	<path class="st0" d="M35.7,98.2c0-1,0.7-1.7,1.8-1.7s1.8,0.7,1.8,1.7c0,1-0.7,1.7-1.8,1.7S35.7,99.3,35.7,98.2z M36.3,119.3v-15.9
		c0-0.3,0.2-0.4,0.4-0.4h1.5c0.3,0,0.4,0.2,0.4,0.4v15.9c0,0.3-0.2,0.4-0.4,0.4h-1.5C36.5,119.7,36.3,119.6,36.3,119.3z"/>
	<path class="st0" d="M56.9,108.5v10.8c0,0.3-0.2,0.4-0.4,0.4H55c-0.3,0-0.4-0.2-0.4-0.4v-10.4c0-2.5-1.6-4.1-3.9-4.1
		c-2.3,0-3.8,1.4-4.1,3.5v11c0,0.3-0.2,0.4-0.4,0.4h-1.5c-0.3,0-0.4-0.2-0.4-0.4v-15.9c0-0.3,0.2-0.4,0.4-0.4h1.5
		c0.3,0,0.4,0.2,0.4,0.4v1.2c0,0.1,0.1,0.2,0.2,0.1c1-1.3,2.5-2,4.4-2C54.6,102.7,56.9,105,56.9,108.5z"/>
	<path class="st0" d="M62,115.4c-0.3-1.1-0.4-2.4-0.4-4.1c0-1.8,0.2-3,0.4-4c0.8-2.7,3.2-4.5,6.4-4.5c3.3,0,5.8,1.9,6.5,4.3
		c0.1,0.3,0.2,0.7,0.2,0.9c0,0.3-0.1,0.5-0.4,0.5l-1.5,0.2c-0.3,0-0.4-0.1-0.5-0.4c0-0.1,0-0.3-0.1-0.4c-0.4-1.6-2-3-4.3-3
		c-2.3,0-3.8,1.3-4.2,3.2c-0.2,0.7-0.3,1.9-0.3,3.3c0,1.6,0.1,2.7,0.3,3.4c0.4,1.9,2,3.2,4.2,3.2c2.2,0,3.9-1.3,4.2-3
		c0-0.1,0-0.1,0-0.2l0,0c0-0.3,0.2-0.4,0.5-0.4l1.4,0.2c0.3,0,0.4,0.2,0.4,0.5c0,0.1-0.1,0.3-0.1,0.6c-0.7,2.6-3.2,4.3-6.5,4.3
		C65.1,120,62.8,118.2,62,115.4z"/>
	<path class="st0" d="M91.4,108.3v11c0,0.3-0.2,0.4-0.4,0.4h-1.5c-0.3,0-0.4-0.2-0.4-0.4v-1.2c0-0.1-0.1-0.2-0.2-0.1
		c-1.2,1.3-3.1,2-5.2,2c-2.8,0-5.5-1.4-5.5-4.8c0-3.3,2.5-5.4,6.8-5.4h3.8c0.1,0,0.2-0.1,0.2-0.2v-1.2c0-2.2-1.1-3.6-3.9-3.6
		c-2.1,0-3.4,0.9-3.8,2.3c-0.1,0.3-0.2,0.4-0.5,0.3l-1.6-0.2c-0.3,0-0.4-0.1-0.4-0.4c0.4-2.4,2.9-4.1,6.3-4.1
		C89.1,102.7,91.4,105,91.4,108.3z M89,114.4v-2.6c0-0.1-0.1-0.2-0.2-0.2h-3.5c-2.9,0-4.8,1.2-4.8,3.4c0,2,1.6,2.9,3.6,2.9
		C86.6,118,89,116.7,89,114.4z"/>
	<path class="st0" d="M104.8,103.2c0.2,0.1,0.3,0.3,0.2,0.5l-0.3,1.5c-0.1,0.3-0.2,0.4-0.5,0.3c-0.4-0.1-0.9-0.2-1.6-0.2
		c-2.3,0.1-4,1.9-4,4.3v9.7c0,0.3-0.2,0.4-0.4,0.4h-1.5c-0.3,0-0.4-0.2-0.4-0.4v-15.9c0-0.3,0.2-0.4,0.4-0.4h1.5
		c0.3,0,0.4,0.2,0.4,0.4v1.9c0,0.2,0.1,0.2,0.2,0.1c0.9-1.5,2.3-2.5,4.2-2.5C103.8,102.8,104.4,103,104.8,103.2z"/>
	<path class="st0" d="M114.8,115.4c-0.3-1.1-0.4-2.4-0.4-4.1c0-1.8,0.2-3,0.4-4c0.8-2.7,3.2-4.5,6.4-4.5c3.3,0,5.8,1.9,6.5,4.3
		c0.1,0.3,0.2,0.7,0.2,0.9c0,0.3-0.1,0.5-0.4,0.5l-1.5,0.2c-0.3,0-0.4-0.1-0.5-0.4c0-0.1,0-0.3-0.1-0.4c-0.4-1.6-2-3-4.3-3
		c-2.3,0-3.8,1.3-4.2,3.2c-0.2,0.7-0.3,1.9-0.3,3.3c0,1.6,0.1,2.7,0.3,3.4c0.4,1.9,2,3.2,4.2,3.2c2.2,0,3.9-1.3,4.2-3
		c0-0.1,0-0.1,0-0.2l0,0c0-0.3,0.2-0.4,0.5-0.4l1.4,0.2c0.3,0,0.4,0.2,0.4,0.5c0,0.1-0.1,0.3-0.1,0.6c-0.7,2.6-3.2,4.3-6.5,4.3
		C118,120,115.7,118.2,114.8,115.4z"/>
	<path class="st0" d="M132,115.4c-0.3-1.1-0.5-2.5-0.5-4.1c0-1.6,0.1-3,0.4-4c0.9-2.8,3.2-4.6,6.5-4.6c3.2,0,5.6,1.8,6.4,4.5
		c0.3,1.1,0.5,2.5,0.5,4.1c0,1.6-0.1,3-0.5,4.1c-0.9,2.8-3.3,4.6-6.4,4.6C135.2,120,132.9,118.2,132,115.4z M142.7,114.7
		c0.2-0.8,0.3-2,0.3-3.3c0-1.5-0.1-2.6-0.3-3.3c-0.5-2-2.1-3.2-4.3-3.2c-2.2,0-3.7,1.3-4.2,3.2c-0.2,0.7-0.3,2-0.3,3.3
		c0,1.4,0.1,2.6,0.3,3.3c0.5,2,2.1,3.2,4.3,3.2C140.6,117.9,142.2,116.7,142.7,114.7z"/>
	<path class="st0" d="M162.9,108.5v10.8c0,0.3-0.2,0.4-0.4,0.4H161c-0.3,0-0.4-0.2-0.4-0.4v-10.4c0-2.5-1.6-4.1-3.9-4.1
		c-2.3,0-3.8,1.4-4.1,3.5v11c0,0.3-0.2,0.4-0.4,0.4h-1.5c-0.3,0-0.4-0.2-0.4-0.4v-15.9c0-0.3,0.2-0.4,0.4-0.4h1.5
		c0.3,0,0.4,0.2,0.4,0.4v1.2c0,0.1,0.1,0.2,0.2,0.1c1-1.3,2.5-2,4.4-2C160.6,102.7,162.9,105,162.9,108.5z"/>
	<path class="st0" d="M178.8,115.5c0.1-0.2,0.3-0.3,0.6-0.2l1,0.5c0.2,0.1,0.3,0.3,0.2,0.6c-1,2.2-3.2,3.6-6.2,3.6
		c-3.1,0-5.3-1.6-6.2-4.1c-0.5-1.2-0.6-2.7-0.6-4.6c0-1.7,0-2.8,0.3-3.8c0.7-2.8,3.1-4.7,6.4-4.7c3.9,0,6,2.2,6.6,5.7
		c0.2,0.9,0.2,1.8,0.2,3.3c0,0.3-0.2,0.4-0.4,0.4H170c-0.1,0-0.2,0.1-0.2,0.2c0,1.1,0.1,1.9,0.2,2.4c0.5,1.9,2.1,3.2,4.5,3.2
		C176.6,117.9,178,117,178.8,115.5z M170.1,107.9c-0.2,0.5-0.2,1.3-0.3,2.3c0,0.1,0.1,0.2,0.2,0.2h8.5c0.1,0,0.2-0.1,0.2-0.2
		c0-0.9-0.1-1.7-0.2-2.1c-0.5-1.9-2-3.2-4.3-3.2C172,104.8,170.5,106,170.1,107.9z"/>
	<path class="st0" d="M185.6,115.4c-0.3-1.1-0.4-2.4-0.4-4.1c0-1.8,0.2-3,0.4-4c0.8-2.7,3.2-4.5,6.4-4.5c3.3,0,5.8,1.9,6.5,4.3
		c0.1,0.3,0.2,0.7,0.2,0.9c0,0.3-0.1,0.5-0.4,0.5l-1.5,0.2c-0.3,0-0.4-0.1-0.5-0.4c0-0.1,0-0.3-0.1-0.4c-0.4-1.6-2-3-4.3-3
		c-2.3,0-3.8,1.3-4.2,3.2c-0.2,0.7-0.3,1.9-0.3,3.3c0,1.6,0.1,2.7,0.3,3.4c0.4,1.9,2,3.2,4.2,3.2c2.2,0,3.9-1.3,4.2-3
		c0-0.1,0-0.1,0-0.2l0,0c0-0.3,0.2-0.4,0.5-0.4l1.4,0.2c0.3,0,0.4,0.2,0.4,0.5c0,0.1-0.1,0.3-0.1,0.6c-0.7,2.6-3.2,4.3-6.5,4.3
		C188.8,120,186.4,118.2,185.6,115.4z"/>
	<path class="st0" d="M210,104.9h-3.6c-0.1,0-0.2,0.1-0.2,0.2v9.7c0,2.2,1,2.9,2.9,2.9h0.7c0.3,0,0.4,0.2,0.4,0.4v1.2
		c0,0.3-0.1,0.4-0.4,0.5h-1.1c-2.9,0-4.8-0.8-4.8-4.2v-10.4c0-0.1-0.1-0.2-0.2-0.2h-1.9c-0.3,0-0.4-0.2-0.4-0.4v-1.1
		c0-0.3,0.2-0.4,0.4-0.4h1.9c0.1,0,0.2-0.1,0.2-0.2v-3.7c0-0.3,0.2-0.4,0.4-0.4h1.4c0.3,0,0.4,0.2,0.4,0.4v3.7
		c0,0.1,0.1,0.2,0.2,0.2h3.6c0.3,0,0.4,0.2,0.4,0.4v1.1C210.5,104.8,210.3,104.9,210,104.9z"/>
	<path class="st0" d="M227.1,108.3v11c0,0.3-0.2,0.4-0.4,0.4h-1.5c-0.3,0-0.4-0.2-0.4-0.4v-1.2c0-0.1-0.1-0.2-0.2-0.1
		c-1.2,1.3-3.1,2-5.2,2c-2.8,0-5.5-1.4-5.5-4.8c0-3.3,2.5-5.4,6.8-5.4h3.8c0.1,0,0.2-0.1,0.2-0.2v-1.2c0-2.2-1.1-3.6-3.9-3.6
		c-2.1,0-3.4,0.9-3.8,2.3c-0.1,0.3-0.2,0.4-0.5,0.3l-1.6-0.2c-0.3,0-0.4-0.1-0.4-0.4c0.4-2.4,2.9-4.1,6.3-4.1
		C224.8,102.7,227.1,105,227.1,108.3z M224.7,114.4v-2.6c0-0.1-0.1-0.2-0.2-0.2h-3.5c-2.9,0-4.8,1.2-4.8,3.4c0,2,1.6,2.9,3.6,2.9
		C222.3,118,224.7,116.7,224.7,114.4z"/>
</g>
<rect x="129.7" y="45.8" transform="matrix(0.9874 -0.1581 0.1581 0.9874 -7.4364 31.6999)" class="st1" width="131.6" height="33.6"/>
<g>
	<path class="st2" d="M152.6,78.2c0.3,0,0.6,0,0.9,0.2c0.3,0.2,0.5,0.5,0.5,0.8c0,0.3,0,0.6-0.3,0.9c-0.2,0.3-0.5,0.4-0.8,0.5
		l-11.7,1.7c-0.3,0.1-0.7,0-0.9-0.2c-0.3-0.2-0.4-0.5-0.5-0.8l-2.8-19.2c0-0.3,0-0.6,0.2-0.9c0.2-0.3,0.5-0.4,0.8-0.5l11.7-1.7
		c0.3,0,0.6,0,0.9,0.2c0.3,0.2,0.5,0.5,0.5,0.8c0.1,0.3,0,0.7-0.2,0.9c-0.2,0.3-0.5,0.4-0.8,0.5L139.6,63l2.4,16.7L152.6,78.2z
		 M143.2,72.2c-0.3,0.1-0.7,0-0.9-0.2c-0.3-0.2-0.4-0.5-0.5-0.8c-0.1-0.3,0-0.7,0.2-0.9c0.2-0.3,0.5-0.4,0.8-0.5l6.7-1
		c0.3,0,0.6,0,0.9,0.2c0.3,0.2,0.4,0.5,0.5,0.8c0,0.3,0,0.6-0.2,0.9c-0.2,0.3-0.5,0.4-0.8,0.5L143.2,72.2z"/>
	<path class="st2" d="M153.9,59.6c0-0.3,0-0.5,0.2-0.8c0.1-0.2,0.3-0.4,0.6-0.5c0.3-0.1,0.5-0.1,0.8-0.1c0.3,0.1,0.5,0.2,0.7,0.4
		l8.1,10.1l5.2-12c0.1-0.3,0.3-0.5,0.5-0.6c0.2-0.1,0.5-0.2,0.8-0.1c0.3,0,0.5,0.2,0.7,0.4c0.2,0.2,0.3,0.4,0.4,0.7l2.8,19.2
		c0.1,0.3,0,0.7-0.2,0.9c-0.2,0.3-0.5,0.4-0.8,0.5c-0.3,0-0.6,0-0.9-0.2c-0.3-0.2-0.5-0.5-0.5-0.8l-2.2-14.8l-4.2,9.9
		c-0.1,0.2-0.2,0.4-0.4,0.5c-0.2,0.1-0.4,0.2-0.6,0.2c-0.5,0.1-0.9-0.1-1.2-0.5l-6.5-8.1l2.1,14.7c0.1,0.3,0,0.7-0.2,0.9
		c-0.2,0.3-0.5,0.4-0.8,0.5c-0.3,0.1-0.7,0-0.9-0.2c-0.3-0.2-0.4-0.5-0.5-0.8L153.9,59.6z"/>
	<path class="st2" d="M193.8,74.7c-1,0.1-2,0.1-3-0.2c-1-0.3-1.8-0.7-2.6-1.2c-0.8-0.6-1.4-1.3-1.9-2.1c-0.5-0.8-0.9-1.8-1-2.8
		l-1-6.9c-0.1-1-0.1-2,0.2-3c0.3-1,0.7-1.8,1.2-2.6c0.6-0.8,1.3-1.4,2.1-1.9c0.8-0.5,1.8-0.9,2.8-1c1-0.1,2-0.1,3,0.2
		c1,0.3,1.8,0.7,2.6,1.2c0.8,0.6,1.4,1.3,1.9,2.1c0.5,0.8,0.9,1.8,1,2.8c0,0.3,0,0.6-0.2,0.9c-0.2,0.3-0.5,0.5-0.8,0.5
		c-0.3,0.1-0.7,0-0.9-0.2c-0.3-0.2-0.4-0.5-0.5-0.8c-0.1-0.7-0.3-1.3-0.7-1.9c-0.3-0.6-0.8-1-1.3-1.4c-0.5-0.4-1.1-0.7-1.7-0.8
		c-0.6-0.2-1.3-0.2-2-0.1c-0.7,0.1-1.3,0.3-1.9,0.7c-0.6,0.3-1,0.8-1.4,1.3c-0.4,0.5-0.7,1.1-0.8,1.7c-0.2,0.6-0.2,1.3-0.1,2l1,6.9
		c0.1,0.7,0.3,1.3,0.7,1.9c0.3,0.6,0.8,1,1.3,1.4c0.5,0.4,1.1,0.7,1.7,0.8c0.6,0.2,1.3,0.2,2,0.1s1.3-0.3,1.9-0.7
		c0.6-0.3,1-0.8,1.4-1.3c0.4-0.5,0.7-1.1,0.8-1.7c0.2-0.6,0.2-1.3,0.1-2c-0.1-0.3,0-0.7,0.2-0.9c0.2-0.3,0.5-0.4,0.8-0.5
		c0.3,0,0.6,0,0.9,0.2c0.3,0.2,0.4,0.5,0.5,0.8c0.1,1,0.1,2-0.2,3c-0.3,1-0.7,1.8-1.2,2.6c-0.6,0.8-1.3,1.4-2.1,1.9
		C195.8,74.2,194.8,74.5,193.8,74.7z"/>
	<path class="st2" d="M204.4,73.1c-0.3,0-0.6-0.2-0.8-0.5c-0.2-0.3-0.3-0.6-0.2-0.9l3.4-20.2c0-0.3,0.2-0.5,0.3-0.7
		c0.2-0.2,0.4-0.3,0.7-0.3c0.3,0,0.5,0,0.8,0.1c0.2,0.1,0.4,0.3,0.6,0.5l6.6,13.5l2.4,4.9c0.2,0.3,0.2,0.6,0.1,1
		c-0.1,0.3-0.3,0.6-0.6,0.7c-0.1,0-0.1,0.1-0.2,0.1c-0.1,0-0.1,0-0.2,0c-0.3,0-0.5,0-0.8-0.1c-0.2-0.1-0.4-0.3-0.6-0.6l-2-4.1
		l-4.2,0.6c-0.3,0.1-0.7,0-0.9-0.2c-0.3-0.2-0.4-0.5-0.5-0.8c-0.1-0.3,0-0.7,0.2-0.9c0.2-0.3,0.5-0.4,0.8-0.5l3.5-0.5l-4.1-8.4
		l-2.7,16.3c0,0.3-0.2,0.6-0.5,0.8C205.1,73.1,204.8,73.1,204.4,73.1z"/>
	<path class="st2" d="M231,66.5c0.4-0.3,0.7-0.6,1-0.9c0.3-0.4,0.5-0.8,0.6-1.2c0.1-0.5,0.1-0.9,0.1-1.4c-0.1-0.5-0.2-0.9-0.5-1.3
		c-0.2-0.4-0.6-0.8-0.9-1c-0.4-0.3-0.8-0.5-1.2-0.6c-0.5-0.1-0.9-0.1-1.4-0.1l-1.4,0.2l-1.4,0.2c-0.8,0.1-1.6,0.1-2.4-0.1
		c-0.8-0.2-1.5-0.6-2.1-1c-0.6-0.5-1.1-1-1.6-1.7c-0.4-0.7-0.7-1.5-0.8-2.3c-0.1-0.8-0.1-1.6,0.1-2.4c0.2-0.8,0.6-1.5,1-2.1
		c0.5-0.6,1-1.1,1.7-1.6c0.7-0.4,1.5-0.7,2.3-0.8l1.4-0.2l1.4-0.2c0.8-0.1,1.6-0.1,2.4,0.1c0.8,0.2,1.5,0.6,2.1,1
		c0.6,0.5,1.1,1,1.6,1.7c0.4,0.7,0.7,1.5,0.8,2.3c0.1,0.3,0,0.7-0.2,0.9c-0.2,0.3-0.5,0.4-0.8,0.5c-0.3,0.1-0.7,0-0.9-0.2
		c-0.3-0.2-0.4-0.5-0.5-0.8c-0.1-0.5-0.2-0.9-0.5-1.3c-0.2-0.4-0.6-0.8-0.9-1c-0.4-0.3-0.8-0.5-1.2-0.6c-0.5-0.1-0.9-0.1-1.4-0.1
		l-1.4,0.2l-1.4,0.2c-0.5,0.1-1,0.2-1.4,0.5c-0.4,0.2-0.7,0.6-1,0.9c-0.3,0.4-0.5,0.8-0.6,1.3s-0.1,0.9-0.1,1.4
		c0.1,0.5,0.2,1,0.5,1.4c0.2,0.4,0.6,0.7,0.9,1c0.4,0.3,0.8,0.5,1.2,0.6c0.5,0.1,0.9,0.1,1.4,0.1l1.4-0.2l1.4-0.2
		c0.8-0.1,1.6-0.1,2.4,0.1c0.8,0.2,1.5,0.6,2.1,1c0.6,0.5,1.1,1,1.6,1.7c0.4,0.7,0.7,1.5,0.8,2.3c0.1,0.8,0.1,1.6-0.1,2.4
		c-0.2,0.8-0.6,1.5-1,2.1c-0.5,0.6-1,1.2-1.7,1.6c-0.7,0.4-1.4,0.7-2.3,0.8l-1.4,0.2l-1.4,0.2c-0.8,0.1-1.6,0.1-2.4-0.1
		c-0.8-0.2-1.5-0.6-2.1-1c-0.6-0.5-1.1-1.1-1.6-1.7c-0.4-0.7-0.7-1.4-0.8-2.3c-0.1-0.3,0-0.7,0.2-0.9c0.2-0.3,0.5-0.4,0.8-0.5
		c0.3-0.1,0.7,0,0.9,0.2c0.3,0.2,0.4,0.5,0.5,0.8c0.1,0.5,0.2,0.9,0.5,1.3c0.2,0.4,0.6,0.7,0.9,1c0.4,0.3,0.8,0.5,1.2,0.6
		c0.5,0.1,0.9,0.2,1.4,0.1l1.4-0.2l1.4-0.2C230.2,66.9,230.6,66.7,231,66.5z"/>
	<path class="st2" d="M238.9,68c-0.3,0-0.6-0.2-0.8-0.5c-0.2-0.3-0.3-0.6-0.2-0.9l3.4-20.2c0-0.3,0.2-0.5,0.3-0.7
		c0.2-0.2,0.4-0.3,0.7-0.3c0.3,0,0.5,0,0.8,0.1c0.2,0.1,0.4,0.3,0.6,0.5l6.6,13.5l2.4,4.9c0.2,0.3,0.2,0.6,0.1,1
		c-0.1,0.3-0.3,0.6-0.6,0.7c-0.1,0-0.1,0.1-0.2,0.1c-0.1,0-0.1,0-0.2,0c-0.3,0-0.5,0-0.8-0.1c-0.2-0.1-0.4-0.3-0.6-0.6l-2-4.1
		l-4.2,0.6c-0.3,0.1-0.7,0-0.9-0.2c-0.3-0.2-0.4-0.5-0.5-0.8c-0.1-0.3,0-0.7,0.2-0.9c0.2-0.3,0.5-0.4,0.8-0.5l3.5-0.5l-4.1-8.4
		L240.3,67c0,0.3-0.2,0.6-0.5,0.8C239.5,68,239.2,68.1,238.9,68z"/>
</g>
<g>
	<path class="st0" d="M11.6,4.9h-0.8L7.8,15.6h6.6L11.6,4.9z M15.1,0l4.7,16.4v12.7h-4.9v-8.7H7.4v8.7H2.5V16.4L7.2,0H15.1z"/>
	<g>
		<path class="st0" d="M35.6,15.2c0-0.9-0.3-1.7-0.9-2.2c-0.6-0.6-1.3-0.8-2.1-0.8c-0.9,0-1.6,0.3-2.2,0.8c-0.6,0.6-0.9,1.3-0.9,2.2
			v7.1c0,0.9,0.3,1.7,0.9,2.2c0.6,0.6,1.3,0.8,2.1,0.8c0.9,0,1.6-0.3,2.1-0.8c0.6-0.6,0.9-1.3,0.9-2.2V15.2z M24.8,8.3H29l0.2,1.9
			c0.1-0.2,0.3-0.4,0.5-0.6c0.2-0.2,0.7-0.6,1.5-1C31.9,8.2,32.8,8,33.7,8c1.8,0,3.4,0.7,4.7,2c1.3,1.3,2,3,2,5.1v7.4
			c0,2-0.7,3.6-2,5c-1.3,1.4-2.9,2.1-4.7,2.1c-0.9,0-1.7-0.1-2.4-0.4c-0.7-0.3-1.1-0.5-1.4-0.8L29.5,28v8.7h-4.8V8.3z"/>
		<path class="st0" d="M55.3,12.7c-0.6-0.3-1.3-0.5-2.2-0.5c-1,0-1.8,0.4-2.4,1.2c-0.6,0.8-0.9,2-0.9,3.6v12H45V8.3h4.5l0.1,2.3
			c0-0.1,0.1-0.2,0.2-0.3c0.1-0.1,0.2-0.3,0.5-0.6c0.2-0.3,0.5-0.6,0.8-0.8c0.3-0.2,0.7-0.5,1.1-0.6c0.5-0.2,1-0.3,1.4-0.3
			c0.6,0,1.1,0.1,1.6,0.2c0.5,0.1,0.9,0.2,1.1,0.3l0.4,0.2L55.3,12.7z"/>
		<path class="st0" d="M62.1,16.4h6V15c0-0.9-0.3-1.6-0.8-2.1c-0.6-0.5-1.3-0.8-2.1-0.8c-0.8,0-1.5,0.3-2.1,0.8
			c-0.6,0.5-0.9,1.2-0.9,2.1V16.4z M72.8,23c-0.2,2-1.1,3.6-2.5,4.7c-1.5,1.2-3.2,1.8-5.2,1.8c-2.3,0-4.1-0.7-5.5-2
			c-1.4-1.4-2.1-3.1-2.1-5.1V15c0-2,0.7-3.7,2.2-5.1c1.4-1.4,3.3-2.1,5.6-2.1c2.3,0,4.1,0.7,5.5,2c1.4,1.3,2.1,3,2.1,5v5.4H62.1v2
			c0,0.9,0.3,1.6,0.8,2.2c0.6,0.6,1.3,0.8,2.1,0.8c0.8,0,1.4-0.2,1.9-0.6c0.5-0.4,0.8-0.8,0.9-1.2L68,23H72.8z"/>
		<path class="st0" d="M88.2,15.6c0-1-0.3-1.8-0.8-2.4c-0.5-0.6-1.3-0.9-2.2-0.9c-0.9,0-1.6,0.3-2.2,0.9c-0.6,0.6-0.9,1.4-0.9,2.4
			v13.5h-4.8V8.3h4.5l0.3,2c0.1-0.2,0.3-0.4,0.5-0.6c0.2-0.3,0.7-0.6,1.5-1C84.8,8.2,85.7,8,86.6,8c1.9,0,3.4,0.7,4.6,2
			c1.2,1.3,1.8,3.2,1.8,5.5v13.7h-4.8V15.6z"/>
		<path class="st0" d="M102.2,22.3c0,0.9,0.3,1.7,0.9,2.2c0.6,0.6,1.3,0.8,2.1,0.8c0.9,0,1.6-0.3,2.2-0.8c0.6-0.6,0.9-1.3,0.9-2.2
			v-7c0-1.1-0.3-1.9-0.8-2.4c-0.6-0.6-1.3-0.8-2.2-0.8c-0.9,0-1.6,0.3-2.1,0.8c-0.6,0.6-0.9,1.3-0.9,2.2V22.3z M113,29.1h-4.2
			l-0.2-1.8c-0.1,0.2-0.3,0.4-0.5,0.6c-0.2,0.2-0.8,0.5-1.6,0.9c-0.8,0.4-1.7,0.6-2.6,0.6c-1.8,0-3.3-0.7-4.6-2
			c-1.3-1.3-1.9-3-1.9-5.1V15c0-2,0.7-3.6,2-5c1.4-1.4,2.9-2.1,4.7-2.1c0.9,0,1.7,0.2,2.4,0.5c0.7,0.3,1.1,0.6,1.3,0.9l0.3,0.5V0
			h4.8V29.1z"/>
	</g>
	<path class="st0" d="M118.2,8.3h4.9v20.8h-4.9V8.3z M118,0h5.2v5.3H118V0z"/>
	<polygon class="st0" points="133,24.8 141.7,24.8 141.7,29.1 127.4,29.1 127.4,25 135.9,12.7 127.9,12.7 127.9,8.3 141.6,8.3 
		141.6,12.5 	"/>
	<path class="st0" d="M154.1,24.5c0.7-0.6,1.1-1.3,1.1-2V20l-3.3,0.3c-0.9,0.1-1.7,0.4-2.2,0.8c-0.5,0.5-0.8,1.1-0.8,1.9
		c0,0.6,0.2,1.2,0.7,1.6c0.4,0.5,1.1,0.7,1.9,0.7C152.6,25.4,153.4,25.1,154.1,24.5 M155.6,26.9c-0.1,0.2-0.3,0.4-0.6,0.7
		c-0.2,0.3-0.8,0.7-1.8,1.1c-0.9,0.5-1.9,0.7-3,0.7c-1.9,0-3.4-0.6-4.5-1.8c-1.1-1.2-1.7-2.7-1.7-4.5c0-1.9,0.7-3.5,2.1-4.6
		c1.4-1.1,3.2-1.8,5.4-1.9l3.6-0.3V15c0-0.8-0.2-1.5-0.7-2c-0.5-0.5-1.1-0.8-1.9-0.8c-0.7,0-1.4,0.2-1.9,0.6c-0.5,0.4-0.8,1-0.9,1.7
		h-4.7c0-1.9,0.7-3.4,2.1-4.7c1.4-1.3,3.1-1.9,5.2-1.9c2.3,0,4.2,0.7,5.5,2c1.3,1.3,2,3,2,5.1v14.1h-4.2L155.6,26.9z"/>
	<path class="st0" d="M173.3,14.3c0-0.6-0.2-1.1-0.7-1.6c-0.5-0.4-1-0.6-1.6-0.6c-0.7,0-1.3,0.2-1.7,0.6c-0.5,0.4-0.7,1-0.7,1.6v3.1
		c0,0.6,0.2,1.1,0.7,1.6c0.5,0.4,1,0.6,1.7,0.6c0.6,0,1.2-0.2,1.6-0.6c0.5-0.4,0.7-1,0.7-1.6V14.3z M168.6,24.7v-1.5
		c-1.4-0.5-2.5-1.3-3.4-2.4c-0.9-1.1-1.3-2.3-1.3-3.7v-2.5c0-1.9,0.7-3.5,2.1-4.8c1.4-1.3,3-2,4.9-2c1.3,0,2.3,0.2,3.1,0.7
		c0.4-0.6,0.7-1,1-1.2c0.3-0.3,0.8-0.5,1.5-0.8c0.7-0.2,1.5-0.4,2.5-0.4v3.9c-0.9,0-1.6,0.3-2.1,1c0.7,0.9,1.1,2.1,1.1,3.5v2.5
		c0,1.4-0.4,2.7-1.3,3.8c-0.9,1.1-2,1.9-3.5,2.3c0,0.7,0.2,1.2,0.5,1.5l3.3,2.1c1.8,1.1,2.8,2.6,2.8,4.4c0,1.3-0.5,2.4-1.4,3.3
		c-0.9,0.9-2,1.5-3.2,1.9c-1.2,0.3-2.5,0.5-3.9,0.5c-2.3,0-4.2-0.5-5.8-1.4c-1.6-0.9-2.4-2.4-2.4-4.3v-0.6h4.7v0.5
		c0,0.5,0.3,1,1,1.4c0.6,0.4,1.5,0.6,2.6,0.6c1.1,0,2-0.2,2.7-0.5c0.7-0.3,1-0.7,1-1.2c0-0.4-0.2-0.8-0.7-1.1l-3.8-2.3
		C169.3,27.2,168.6,26.1,168.6,24.7"/>
	<path class="st0" d="M186.4,16.4h6V15c0-0.9-0.3-1.6-0.8-2.1c-0.6-0.5-1.3-0.8-2.1-0.8c-0.8,0-1.5,0.3-2.1,0.8
		c-0.6,0.5-0.9,1.2-0.9,2.1V16.4z M197.1,23c-0.2,2-1.1,3.6-2.5,4.7c-1.5,1.2-3.2,1.8-5.2,1.8c-2.3,0-4.1-0.7-5.5-2
		c-1.4-1.4-2.1-3.1-2.1-5.1V15c0-2,0.7-3.7,2.2-5.1c1.4-1.4,3.3-2.1,5.6-2.1c2.3,0,4.1,0.7,5.5,2c1.4,1.3,2.1,3,2.1,5v5.4h-10.7v2
		c0,0.9,0.3,1.6,0.8,2.2c0.6,0.6,1.3,0.8,2.1,0.8c0.8,0,1.4-0.2,1.9-0.6c0.5-0.4,0.8-0.8,0.9-1.2l0.2-0.6H197.1z"/>
	<path class="st0" d="M221.7,15.2c0-0.8-0.2-1.5-0.7-2s-1-0.8-1.7-0.8c-0.8,0-1.5,0.3-2.1,0.9c-0.6,0.6-0.8,1.3-0.8,2.2v13.7h-4.8
		V15.2c0-0.8-0.2-1.5-0.7-2c-0.4-0.6-1-0.8-1.7-0.8c-0.8,0-1.4,0.3-2,0.9s-0.9,1.3-0.9,2.2v13.7h-4.8V8.3h4.5l0.2,2
		c0.1-0.2,0.3-0.4,0.5-0.6c0.2-0.3,0.7-0.6,1.5-1.1c0.8-0.4,1.6-0.7,2.4-0.7c0.8,0,1.5,0.2,2.1,0.5c0.7,0.3,1.1,0.7,1.4,1.1l0.4,0.5
		c0.2-0.2,0.4-0.4,0.7-0.6c0.3-0.2,0.8-0.5,1.7-0.9c0.9-0.4,1.7-0.6,2.6-0.6c2,0,3.6,0.7,4.9,2c1.3,1.3,1.9,3.1,1.9,5.2v14h-4.8
		V15.2z"/>
	<g>
		<path class="st0" d="M20.7,57.1c0,2.3-0.8,4.2-2.5,5.8c-1.7,1.6-3.7,2.4-6.1,2.4S7.6,64.5,6,62.9c-1.7-1.6-2.5-3.5-2.5-5.8V43.5
			c0-2.2,0.8-4.1,2.5-5.7c1.7-1.6,3.7-2.4,6.1-2.4c1.5,0,2.8,0.3,4,0.8c1.2,0.5,2,1.2,2.7,2.1c0.6,0.9,1.1,1.8,1.4,2.7
			c0.3,0.9,0.5,1.9,0.5,2.9h-5c0-1-0.3-1.9-0.9-2.6c-0.6-0.7-1.4-1.1-2.5-1.1c-1,0-1.8,0.3-2.5,1c-0.7,0.6-1,1.4-1,2.3v13.9
			c0,1,0.3,1.8,1,2.4c0.7,0.6,1.5,0.9,2.5,0.9c1,0,1.8-0.3,2.6-0.9c0.7-0.6,1.1-1.5,1.1-2.6v-1.2h5V57.1z"/>
		<path class="st0" d="M36.4,48.5c-0.6-0.3-1.3-0.5-2.2-0.5c-1,0-1.8,0.4-2.4,1.2c-0.6,0.8-0.9,2-0.9,3.6v12h-4.8V44.1h4.5l0.1,2.3
			c0-0.1,0.1-0.2,0.2-0.3c0.1-0.1,0.2-0.3,0.5-0.6c0.2-0.3,0.5-0.6,0.8-0.8c0.3-0.2,0.7-0.5,1.1-0.6c0.5-0.2,0.9-0.3,1.4-0.3
			c0.6,0,1.1,0.1,1.6,0.2c0.5,0.1,0.9,0.2,1.1,0.3l0.4,0.2L36.4,48.5z"/>
		<path class="st0" d="M41,44.1h4.9v20.8H41V44.1z M40.9,35.8h5.2v5.3h-5.2V35.8z"/>
		<path class="st0" d="M61.1,60.3c0.7-0.6,1.1-1.3,1.1-2v-2.4l-3.3,0.3c-0.9,0.1-1.7,0.4-2.2,0.8c-0.5,0.5-0.8,1.1-0.8,1.9
			c0,0.6,0.2,1.2,0.7,1.6c0.4,0.5,1.1,0.7,1.9,0.7C59.5,61.2,60.3,60.9,61.1,60.3 M62.5,62.7c-0.1,0.2-0.3,0.4-0.6,0.7
			c-0.2,0.3-0.8,0.7-1.8,1.1c-0.9,0.5-1.9,0.7-3,0.7c-1.9,0-3.4-0.6-4.5-1.8C51.6,62.3,51,60.8,51,59c0-1.9,0.7-3.5,2.1-4.6
			c1.4-1.1,3.2-1.8,5.4-1.9l3.6-0.3v-1.4c0-0.8-0.2-1.5-0.7-2C61,48.2,60.3,48,59.6,48c-0.7,0-1.4,0.2-1.9,0.6
			c-0.5,0.4-0.8,1-0.9,1.7h-4.7c0-1.9,0.7-3.4,2.1-4.7c1.4-1.3,3.1-1.9,5.2-1.9c2.3,0,4.2,0.7,5.5,2c1.3,1.3,2,3,2,5.1v14.1h-4.2
			L62.5,62.7z"/>
		<path class="st0" d="M70.8,44.1h2.7v-5.4h4.8v5.4h6.4v4.4h-6.4v10.6c0,0.6,0.2,1,0.5,1.4c0.4,0.3,0.8,0.5,1.3,0.5
			c0.5,0,0.9-0.2,1.3-0.5c0.3-0.3,0.5-0.8,0.5-1.4v-0.5h4.4v0.3c0,1.9-0.6,3.5-1.8,4.7c-1.2,1.2-2.7,1.8-4.5,1.8
			c-2,0-3.6-0.6-4.7-1.8c-1.2-1.2-1.8-3-1.8-5.2v-9.8h-2.7V44.1z"/>
		<path class="st0" d="M90.6,44.1h4.9v20.8h-4.9V44.1z M90.5,35.8h5.2v5.3h-5.2V35.8z"/>
		<polygon class="st0" points="105.9,52.1 108.5,60.7 108.9,60.7 111.6,52.1 111.6,44.1 116.5,44.1 116.5,52.3 112.3,64.9 
			105.3,64.9 101.1,52.3 101.1,44.1 105.9,44.1 		"/>
		<path class="st0" d="M129.8,60.3c0.7-0.6,1.1-1.3,1.1-2v-2.4l-3.3,0.3c-0.9,0.1-1.7,0.4-2.2,0.8c-0.5,0.5-0.8,1.1-0.8,1.9
			c0,0.6,0.2,1.2,0.7,1.6c0.4,0.5,1.1,0.7,1.9,0.7C128.2,61.2,129.1,60.9,129.8,60.3 M131.3,62.7c-0.1,0.2-0.3,0.4-0.6,0.7
			c-0.2,0.3-0.8,0.7-1.8,1.1c-0.9,0.5-1.9,0.7-3,0.7c-1.9,0-3.4-0.6-4.5-1.8c-1.1-1.2-1.7-2.7-1.7-4.5c0-1.9,0.7-3.5,2.1-4.6
			c1.4-1.1,3.2-1.8,5.4-1.9l3.6-0.3v-1.4c0-0.8-0.2-1.5-0.7-2c-0.5-0.5-1.1-0.8-1.9-0.8c-0.7,0-1.4,0.2-1.9,0.6
			c-0.5,0.4-0.8,1-0.9,1.7h-4.7c0-1.9,0.7-3.4,2.1-4.7c1.4-1.3,3.1-1.9,5.2-1.9c2.3,0,4.2,0.7,5.5,2c1.3,1.3,2,3,2,5.1v14.1h-4.2
			L131.3,62.7z"/>
	</g>
</g>
</svg>
